<svg width="100" height="60" viewBox="0 0 100 60" fill="none" xmlns="http://www.w3.org/2000/svg">
<path fill-rule="evenodd" clip-rule="evenodd" d="M93.3321 0H6.66787C2.9853 0 0 2.83347 0 6.32178V53.6782C0 57.1696 2.9928 60 6.66787 60H93.3321C97.0147 60 100 57.1665 100 53.6782V6.32178C100 2.83036 97.0072 0 93.3321 0Z" fill="#F4F4F4"/>
<path fill-rule="evenodd" clip-rule="evenodd" d="M63.9934 48.5951C60.1957 51.2373 54.6912 52.6469 49.9519 52.6469C43.3067 52.6469 37.3242 50.327 32.7983 46.4685C32.4427 46.1651 32.7613 45.7516 33.188 45.9879C38.0724 48.6703 44.1117 50.284 50.3502 50.284C54.5575 50.284 59.1858 49.4624 63.4415 47.7574C64.0844 47.4996 64.6221 48.1548 63.9934 48.5951Z" fill="#E87E04"/>
<path fill-rule="evenodd" clip-rule="evenodd" d="M65.5723 46.8903C65.0887 46.305 62.3635 46.6137 61.1403 46.7507C60.7676 46.7936 60.7107 46.4875 61.0464 46.2674C63.2169 44.8255 66.7785 45.2417 67.1938 45.725C67.6091 46.211 67.0857 49.5808 65.0461 51.1891C64.7331 51.4362 64.4344 51.3046 64.5738 50.977C65.0318 49.8976 66.0588 47.4783 65.5723 46.8903Z" fill="#E87E04"/>
<path fill-rule="evenodd" clip-rule="evenodd" d="M53.7918 27.2302C53.7918 29.7688 53.8597 31.8858 52.5004 34.1403C51.4033 35.9732 49.6653 37.1004 47.7234 37.1004C45.0728 37.1004 43.529 35.1942 43.529 32.3807C43.529 26.827 48.8012 25.8189 53.7918 25.8189V27.2302ZM60.7534 43.1124C60.2971 43.4973 59.6368 43.5248 59.1222 43.2682C56.8308 41.4719 56.423 40.6379 55.1608 38.9242C51.3742 42.5717 48.6944 43.6622 43.7814 43.6622C37.9752 43.6622 33.4507 40.2805 33.4507 33.5079C33.4507 28.22 36.4897 24.6184 40.8104 22.8588C44.5582 21.3008 49.7915 21.0259 53.7918 20.5951V19.752C53.7918 18.2032 53.918 16.3703 52.9568 15.0323C52.1121 13.8317 50.5003 13.3368 49.0827 13.3368C46.4515 13.3368 44.1018 14.6107 43.529 17.2501C43.4125 17.8366 42.9561 18.414 42.3347 18.4415L35.6353 17.7633C35.0721 17.6441 34.4507 17.2134 34.6061 16.3978C36.1499 8.73622 43.4804 6.42676 50.044 6.42676C53.4034 6.42676 57.792 7.26989 60.4427 9.671C63.8021 12.6311 63.4817 16.5811 63.4817 20.8792V31.0335C63.4817 34.0853 64.8216 35.4233 66.0838 37.0729C66.5305 37.6595 66.6276 38.3651 66.0644 38.805C64.6566 39.9139 62.1515 41.976 60.7728 43.1307L60.7534 43.1123" fill="#221F1F"/>
</svg>
