<svg width="60" height="60" viewBox="0 0 60 60" fill="none" xmlns="http://www.w3.org/2000/svg">
<path fill-rule="evenodd" clip-rule="evenodd" d="M0 0H60V60H0V0Z" fill="white"/>
<path fill-rule="evenodd" clip-rule="evenodd" d="M57.7516 24.4123C57.9807 24.4123 58.2051 24.4708 58.424 24.5885C58.6398 24.7039 58.8173 24.8796 58.9348 25.0943C59.0565 25.3131 59.1178 25.5419 59.1178 25.7801C59.1178 26.0154 59.0577 26.242 58.9372 26.459C58.8207 26.6726 58.6454 26.8483 58.432 26.9654C58.2246 27.0834 57.9902 27.1456 57.7516 27.1459C57.513 27.1455 57.2786 27.0833 57.0712 26.9654C56.8575 26.8484 56.6817 26.6726 56.5647 26.459C56.4465 26.2522 56.3841 26.0182 56.3835 25.7801C56.3835 25.5419 56.4449 25.3131 56.5672 25.0943C56.6852 24.8795 56.8632 24.7037 57.0796 24.5885C57.2853 24.4744 57.5164 24.4138 57.7516 24.4123ZM57.7516 24.6386C57.5595 24.6386 57.3728 24.6881 57.191 24.7865C57.0092 24.8848 56.867 25.0258 56.7642 25.2083C56.6615 25.3913 56.6105 25.5818 56.6105 25.7801C56.6105 25.9765 56.6609 26.1651 56.7617 26.3456C56.862 26.5262 57.003 26.6672 57.1841 26.768C57.357 26.8665 57.5524 26.9187 57.7513 26.9193C57.9502 26.9186 58.1456 26.8665 58.3184 26.768C58.4963 26.6703 58.6425 26.5237 58.7399 26.3456C58.8401 26.1651 58.8899 25.9765 58.8899 25.7801C58.8899 25.5815 58.8395 25.391 58.7374 25.2083C58.6353 25.0258 58.4931 24.8848 58.3106 24.7865C58.1282 24.6881 57.9421 24.6386 57.7516 24.6386ZM57.1521 26.5352V25.0648H57.6567C57.83 25.0648 57.9552 25.0778 58.0324 25.1049C58.1096 25.132 58.1709 25.1796 58.2173 25.2472C58.2627 25.3153 58.2861 25.3869 58.2861 25.4629C58.2861 25.5706 58.2478 25.664 58.1712 25.7433C58.094 25.8233 57.9925 25.8675 57.8655 25.8778C57.9178 25.8993 57.9598 25.9251 57.9907 25.9556C58.0495 26.0138 58.122 26.1109 58.2082 26.2476L58.3875 26.5352H58.0974L57.9667 26.3033C57.864 26.1215 57.7818 26.0073 57.7186 25.9615C57.6753 25.9276 57.6115 25.9108 57.5284 25.9108H57.3893V26.5352H57.1521ZM57.3893 25.7078H57.6775C57.8148 25.7078 57.9085 25.6867 57.9589 25.6459C57.9833 25.6264 58.0028 25.6016 58.0158 25.5732C58.0289 25.5449 58.0352 25.514 58.0342 25.4828C58.0344 25.4411 58.0217 25.4003 57.9978 25.3661C57.9727 25.3312 57.9378 25.3046 57.8976 25.2895C57.8543 25.2721 57.7753 25.264 57.6585 25.264H57.3893V25.7078ZM31.3966 24.3224H31.4421V27.465H28.2671V24.3224H31.3966ZM17.5785 30.9681L24.9218 31.4235C25.2272 31.4235 25.4768 31.6734 25.4768 31.9785C25.4768 32.2835 25.2272 32.5335 24.9218 32.5335H14.4564V28.4427C14.778 29.7059 15.8849 30.739 17.5785 30.9681ZM14.4564 35.6938H25.1556C26.7151 35.6938 28.0246 34.5686 28.3131 33.09C28.5678 34.5636 29.8567 35.6938 31.3969 35.6938H38.2328C39.7599 35.6938 41.0408 34.582 41.3098 33.1258V35.6938H52.2701C54.0393 35.6938 55.4868 34.2464 55.4868 32.4765V32.0211C55.4868 30.2518 54.0393 28.8044 52.2701 28.8044L51.6687 28.7779C48.2587 28.6279 44.8589 28.4561 41.4533 28.2802C41.7185 29.6165 42.8462 30.729 44.6121 30.9681L52.036 31.4235C52.1831 31.4239 52.3241 31.4825 52.4282 31.5864C52.5323 31.6904 52.591 31.8313 52.5916 31.9785C52.591 32.1256 52.5323 32.2665 52.4282 32.3705C52.3241 32.4745 52.1831 32.5331 52.036 32.5335H41.3621V28.2755L38.1874 28.1118V31.7537C38.1867 31.9993 38.0889 32.2346 37.9152 32.4083C37.7416 32.5819 37.5063 32.6797 37.2607 32.6804H32.369C32.1234 32.6798 31.8881 32.582 31.7144 32.4083C31.5408 32.2347 31.443 31.9993 31.4424 31.7537V27.7638L28.2671 27.6001V31.2102C27.9041 29.8447 26.6435 28.8601 25.1556 28.8601L11.1722 27.9459V35.6941H14.4564V35.6938ZM27.7625 27.4665V24.3065H17.5785C16.0751 24.3065 14.8045 25.3514 14.4564 26.7512V24.3221H8.37757L6.30604 27.465H14.3628L27.7625 27.4665ZM9.83122 27.8681L4.81005 35.6938H0.88208L6.17935 27.6574L9.83122 27.8681ZM55.4865 27.4665V24.3065H44.6118C42.8621 24.3065 41.4274 25.7225 41.3957 27.465L55.4865 27.4665ZM38.1871 27.465V24.3224H41.3618V27.465H38.1871Z" fill="black"/>
</svg>
