<svg width="50" height="50" viewBox="0 0 50 50" fill="none" xmlns="http://www.w3.org/2000/svg">
<path fill-rule="evenodd" clip-rule="evenodd" d="M0 0H50V50H0V0Z" fill="white"/>
<path fill-rule="evenodd" clip-rule="evenodd" d="M48.1264 20.3436C48.3173 20.3436 48.5043 20.3923 48.6867 20.4904C48.8665 20.5865 49.0144 20.733 49.1123 20.9119C49.2138 21.0943 49.2649 21.2849 49.2649 21.4833C49.2649 21.6795 49.2148 21.8683 49.1144 22.0491C49.0173 22.2271 48.8712 22.3736 48.6934 22.4711C48.5206 22.5694 48.3252 22.6213 48.1264 22.6216C47.9275 22.6212 47.7322 22.5694 47.5593 22.4711C47.3813 22.3736 47.2348 22.2272 47.1373 22.0491C47.0388 21.8768 46.9868 21.6818 46.9863 21.4833C46.9863 21.2849 47.0374 21.0943 47.1394 20.9119C47.2377 20.7329 47.3861 20.5864 47.5663 20.4904C47.7378 20.3953 47.9303 20.3448 48.1264 20.3436ZM48.1264 20.5321C47.9663 20.5321 47.8107 20.5734 47.6592 20.6554C47.5077 20.7373 47.3892 20.8548 47.3036 21.0068C47.218 21.1594 47.1754 21.3181 47.1754 21.4833C47.1754 21.647 47.2174 21.8042 47.3015 21.9547C47.385 22.1051 47.5025 22.2226 47.6535 22.3067C47.7975 22.3888 47.9603 22.4322 48.1261 22.4327C48.2919 22.4321 48.4547 22.3887 48.5987 22.3067C48.747 22.2252 48.8688 22.1031 48.9499 21.9547C49.0335 21.8042 49.075 21.647 49.075 21.4833C49.075 21.3179 49.033 21.1591 48.9479 21.0068C48.8628 20.8548 48.7442 20.7373 48.5922 20.6554C48.4402 20.5734 48.2851 20.5321 48.1264 20.5321ZM47.6268 22.1126V20.8873H48.0473C48.1917 20.8873 48.296 20.8982 48.3603 20.9207C48.4247 20.9433 48.4758 20.983 48.5144 21.0393C48.5523 21.0961 48.5718 21.1557 48.5718 21.219C48.5718 21.3088 48.5398 21.3866 48.476 21.4527C48.4117 21.5194 48.3271 21.5562 48.2213 21.5648C48.2649 21.5827 48.2999 21.6042 48.3256 21.6296C48.3746 21.6782 48.4351 21.7591 48.5069 21.873L48.6563 22.1126H48.4146L48.3056 21.9194C48.22 21.7679 48.1515 21.6727 48.0989 21.6346C48.0628 21.6063 48.0096 21.5923 47.9404 21.5923H47.8244V22.1126H47.6268ZM47.8244 21.4232H48.0646C48.179 21.4232 48.2571 21.4055 48.2991 21.3715C48.3194 21.3553 48.3357 21.3346 48.3466 21.311C48.3575 21.2874 48.3627 21.2616 48.3619 21.2356C48.362 21.2008 48.3514 21.1669 48.3316 21.1384C48.3106 21.1093 48.2815 21.0871 48.248 21.0745C48.212 21.06 48.1461 21.0533 48.0488 21.0533H47.8244V21.4232ZM26.1639 20.2686H26.2018V22.8875H23.5559V20.2686H26.1639ZM14.6488 25.8067L20.7682 26.1862C21.0227 26.1862 21.2307 26.3945 21.2307 26.6487C21.2307 26.9029 21.0227 27.1112 20.7682 27.1112H12.0471V23.7022C12.315 24.7548 13.2374 25.6158 14.6488 25.8067ZM12.0471 29.7448H20.963C22.2626 29.7448 23.3539 28.8071 23.5943 27.575C23.8065 28.803 24.8807 29.7448 26.1641 29.7448H31.8607C33.1333 29.7448 34.2007 28.8183 34.4249 27.6048V29.7448H43.5584C45.0328 29.7448 46.239 28.5386 46.239 27.0637V26.6842C46.239 25.2098 45.0328 24.0036 43.5584 24.0036L43.0573 23.9816C40.2156 23.8566 37.3825 23.7134 34.5444 23.5668C34.7654 24.6804 35.7052 25.6075 37.1768 25.8067L43.3634 26.1862C43.486 26.1865 43.6035 26.2353 43.6902 26.322C43.7769 26.4086 43.8259 26.5261 43.8264 26.6487C43.8259 26.7713 43.7769 26.8887 43.6902 26.9754C43.6035 27.062 43.486 27.1108 43.3634 27.1112H34.4684V23.5629L31.8229 23.4265V26.4614C31.8223 26.666 31.7408 26.8621 31.5961 27.0068C31.4514 27.1515 31.2553 27.2331 31.0506 27.2336H26.9742C26.7696 27.2331 26.5734 27.1516 26.4287 27.0069C26.284 26.8622 26.2025 26.6661 26.202 26.4614V23.1365L23.5559 23V26.0085C23.2535 24.8705 22.2029 24.0501 20.963 24.0501L9.3102 23.2882V29.7451H12.0471V29.7448ZM23.1354 22.8888V20.2554H14.6488C13.3959 20.2554 12.3371 21.1262 12.0471 22.2927V20.2683H6.98135L5.25507 22.8875H11.969L23.1354 22.8888ZM8.19272 23.2234L4.00842 29.7448H0.735107L5.1495 23.0478L8.19272 23.2234ZM46.2388 22.8888V20.2554H37.1765C35.7185 20.2554 34.5229 21.4354 34.4964 22.8875L46.2388 22.8888ZM31.8226 22.8875V20.2686H34.4682V22.8875H31.8226Z" fill="#323232"/>
</svg>
