<svg width="60" height="60" viewBox="0 0 60 60" fill="none" xmlns="http://www.w3.org/2000/svg">
<path d="M58.0976 47.8311C58.0976 48.9559 58.0976 50.0808 58.0976 51.2062C58.0976 53.8623 55.9243 56.033 53.2675 56.033H6.81498C4.15822 56.033 1.98486 53.8624 1.98486 51.2062V14.1602C1.98486 11.5033 4.15822 9.3335 6.81498 9.3335H53.2675C55.9243 9.3335 58.0976 11.5035 58.0976 14.1602C58.0976 21.825 58.0976 29.4899 58.0976 37.154M58.0976 37.154C58.0976 38.0693 58.0976 46.9166 58.0976 47.8311" stroke="black" stroke-width="3" stroke-miterlimit="10" stroke-linecap="round" stroke-linejoin="round"/>
<path d="M14.7012 32.5856H5.96582C5.70695 32.5856 5.49707 32.3758 5.49707 32.1169V25.1782C5.49707 24.9194 5.70695 24.7095 5.96582 24.7095H14.7012C14.9601 24.7095 15.17 24.9194 15.17 25.1782V32.1169C15.17 32.3758 14.9601 32.5856 14.7012 32.5856ZM6.43457 31.6481H14.2325V25.647H6.43457V31.6481ZM27.8095 32.5856H19.0707C18.8118 32.5856 18.6019 32.3758 18.6019 32.1169V25.1782C18.6019 24.9194 18.8118 24.7095 19.0707 24.7095H27.8095C28.0683 24.7095 28.2782 24.9194 28.2782 25.1782V32.1169C28.2782 32.3758 28.0683 32.5856 27.8095 32.5856ZM19.5393 31.6481H27.3406V25.647H19.5393V31.6481ZM40.9142 32.5856H32.1754C31.9165 32.5856 31.7066 32.3758 31.7066 32.1169V25.1782C31.7066 24.9194 31.9165 24.7095 32.1754 24.7095H40.9142C41.173 24.7095 41.3829 24.9194 41.3829 25.1782V32.1169C41.3829 32.3758 41.173 32.5856 40.9142 32.5856ZM32.6441 31.6481H40.4454V25.647H32.6441V31.6481ZM54.0183 32.5856H45.2836C45.0248 32.5856 44.8149 32.3758 44.8149 32.1169V25.1782C44.8149 24.9194 45.0248 24.7095 45.2836 24.7095H54.0183C54.2772 24.7095 54.4871 24.9194 54.4871 25.1782V32.1169C54.4871 32.3758 54.2772 32.5856 54.0183 32.5856ZM45.7524 31.6481H53.5496V25.647H45.7524V31.6481Z" fill="black"/>
<path d="M52.5999 21.4185L57.7056 21.5416M1.98486 21.4185H47.4467" stroke="black" stroke-miterlimit="2.613" stroke-linecap="round" stroke-linejoin="round"/>
<path d="M14.7012 42.6526H5.96582C5.70695 42.6526 5.49707 42.4428 5.49707 42.1839V35.2451C5.49707 34.9862 5.70695 34.7763 5.96582 34.7763H14.7012C14.9601 34.7763 15.17 34.9862 15.17 35.2451V42.1839C15.17 42.4428 14.9601 42.6526 14.7012 42.6526ZM6.43457 41.7151H14.2325V35.7138H6.43457V41.7151ZM27.8095 42.6526H19.0707C18.8118 42.6526 18.6019 42.4428 18.6019 42.1839V35.2451C18.6019 34.9862 18.8118 34.7763 19.0707 34.7763H27.8095C28.0683 34.7763 28.2782 34.9862 28.2782 35.2451V42.1839C28.2782 42.4428 28.0683 42.6526 27.8095 42.6526ZM19.5393 41.7151H27.3406V35.7138H19.5393V41.7151ZM40.9142 42.6526H32.1754C31.9165 42.6526 31.7066 42.4428 31.7066 42.1839V35.2451C31.7066 34.9862 31.9165 34.7763 32.1754 34.7763H40.9142C41.173 34.7763 41.3829 34.9862 41.3829 35.2451V42.1839C41.3829 42.4428 41.173 42.6526 40.9142 42.6526ZM32.6441 41.7151H40.4454V35.7138H32.6441V41.7151ZM54.0183 42.6526H45.2836C45.0248 42.6526 44.8149 42.4428 44.8149 42.1839V35.2451C44.8149 34.9862 45.0248 34.7763 45.2836 34.7763H54.0183C54.2772 34.7763 54.4871 34.9862 54.4871 35.2451V42.1839C54.4871 42.4428 54.2772 42.6526 54.0183 42.6526ZM45.7524 41.7151H53.5496V35.7138H45.7524V41.7151ZM14.7012 52.7272H5.96582C5.70695 52.7272 5.49707 52.5174 5.49707 52.2585V45.3198C5.49707 45.061 5.70695 44.8511 5.96582 44.8511H14.7012C14.9601 44.8511 15.17 45.061 15.17 45.3198V52.2585C15.17 52.5174 14.9601 52.7272 14.7012 52.7272ZM6.43457 51.7897H14.2325V45.7886H6.43457V51.7897ZM27.8095 52.7272H19.0707C18.8118 52.7272 18.6019 52.5174 18.6019 52.2585V45.3198C18.6019 45.061 18.8118 44.8511 19.0707 44.8511H27.8095C28.0683 44.8511 28.2782 45.061 28.2782 45.3198V52.2585C28.2782 52.5174 28.0683 52.7272 27.8095 52.7272ZM19.5393 51.7897H27.3406V45.7886H19.5393V51.7897ZM12.2514 13.6055C11.9925 13.6055 11.7827 13.3956 11.7827 13.1367V4.04932C11.7827 3.79045 11.9925 3.58057 12.2514 3.58057C12.5103 3.58057 12.7202 3.79045 12.7202 4.04932V13.1367C12.7202 13.3956 12.5103 13.6055 12.2514 13.6055ZM43.4143 13.6055C43.1554 13.6055 42.9455 13.3956 42.9455 13.1367V4.04932C42.9455 3.79045 43.1554 3.58057 43.4143 3.58057C43.6731 3.58057 43.883 3.79045 43.883 4.04932V13.1367C43.883 13.3956 43.6731 13.6055 43.4143 13.6055ZM16.6682 13.6055C16.4093 13.6055 16.1995 13.3956 16.1995 13.1367V4.04932C16.1995 3.79045 16.4093 3.58057 16.6682 3.58057C16.9271 3.58057 17.137 3.79045 17.137 4.04932V13.1367C17.137 13.3956 16.9271 13.6055 16.6682 13.6055ZM47.8277 13.6055C47.5688 13.6055 47.3589 13.3956 47.3589 13.1367V4.04932C47.3589 3.79045 47.5688 3.58057 47.8277 3.58057C48.0865 3.58057 48.2964 3.79045 48.2964 4.04932V13.1367C48.2964 13.3956 48.0865 13.6055 47.8277 13.6055Z" fill="black"/>
</svg>
