<svg width="60" height="60" viewBox="0 0 60 60" fill="none" xmlns="http://www.w3.org/2000/svg">
<path d="M8.09766 18.6924C8.21325 18.6926 8.32775 18.6699 8.43454 18.6256C8.54134 18.5814 8.63832 18.5165 8.71992 18.4346L13.8082 13.3463C13.9731 13.1814 14.0657 12.9578 14.0657 12.7246C14.0657 12.4914 13.9731 12.2678 13.8082 12.1029C13.6433 11.9381 13.4197 11.8454 13.1865 11.8454C12.9533 11.8454 12.7297 11.9381 12.5648 12.1029L8.09766 16.5701L6.17578 14.6483C6.09474 14.5643 5.99779 14.4973 5.89058 14.4512C5.78338 14.405 5.66806 14.3807 5.55136 14.3797C5.43466 14.3786 5.31892 14.4008 5.21088 14.4449C5.10285 14.4891 5.00468 14.5543 4.92212 14.6368C4.83956 14.7193 4.77425 14.8174 4.73001 14.9254C4.68577 15.0333 4.66348 15.1491 4.66443 15.2658C4.66539 15.3825 4.68958 15.4978 4.73559 15.6051C4.78161 15.7123 4.84852 15.8093 4.93242 15.8904L7.47656 18.4346C7.55794 18.5164 7.65473 18.5813 7.76133 18.6256C7.86793 18.6698 7.98224 18.6925 8.09766 18.6924ZM51.0938 30.7697C51.2676 30.7697 51.4375 30.7182 51.582 30.6216C51.7266 30.525 51.8392 30.3878 51.9058 30.2272C51.9723 30.0666 51.9897 29.8899 51.9558 29.7194C51.9219 29.5489 51.8382 29.3923 51.7152 29.2694C51.5923 29.1464 51.4357 29.0627 51.2652 29.0288C51.0947 28.9949 50.918 29.0123 50.7574 29.0788C50.5968 29.1454 50.4595 29.258 50.363 29.4025C50.2664 29.5471 50.2148 29.717 50.2148 29.8908C50.2148 30.1239 50.3074 30.3475 50.4723 30.5123C50.6371 30.6771 50.8606 30.7697 51.0938 30.7697ZM50.0906 45.5119C49.637 45.5073 49.1954 45.6575 48.8388 45.9379C48.4822 46.2183 48.2319 46.612 48.1294 47.0539C48.027 47.4959 48.0784 47.9595 48.2752 48.3682C48.472 48.777 48.8024 49.1063 49.2117 49.3018V51.5694C49.2117 51.8024 49.3043 52.026 49.4691 52.1908C49.634 52.3557 49.8575 52.4483 50.0906 52.4483C50.3237 52.4483 50.5473 52.3557 50.7121 52.1908C50.8769 52.026 50.9695 51.8024 50.9695 51.5694V49.3018C51.3789 49.1063 51.7093 48.777 51.9061 48.3682C52.1029 47.9595 52.1543 47.4959 52.0518 47.0539C51.9493 46.612 51.6991 46.2183 51.3425 45.9379C50.9859 45.6575 50.5442 45.5073 50.0906 45.5119ZM56.6531 41.8322V39.0443C56.6536 38.3194 56.5185 37.6008 56.2547 36.9256C56.4003 36.7651 56.4813 36.5564 56.482 36.3397V19.2303C56.4808 18.0652 56.0174 16.9481 55.1935 16.1243C54.3697 15.3004 53.2526 14.837 52.0875 14.8358H18.6328C18.7012 14.2872 18.7356 13.735 18.7359 13.1822V8.77013C18.736 8.56955 18.6675 8.37497 18.5417 8.21872C18.4159 8.06247 18.2405 7.95394 18.0445 7.91114C16.4444 7.56228 14.8979 7.00147 13.4461 6.24357C12.1812 5.58173 10.9975 4.77515 9.91875 3.84005C9.76109 3.70339 9.56 3.62719 9.35137 3.62505C9.14274 3.6229 8.94013 3.69495 8.77969 3.82833C7.9309 4.53625 7.02421 5.17168 6.06914 5.72794C4.38779 6.70647 2.5714 7.43184 0.678516 7.88068C0.485719 7.92582 0.313816 8.03475 0.190665 8.18981C0.067513 8.34486 0.000328988 8.53696 0 8.73497L0 13.1787C0 16.058 0.923437 18.8858 2.67188 21.3584C2.93437 21.7311 3.2168 22.0932 3.51562 22.4471V40.5549C3.51687 41.72 3.98026 42.8371 4.80412 43.6609C5.62799 44.4848 6.74504 44.9482 7.91016 44.9494H40.3348C40.2333 45.3242 40.182 45.7108 40.1824 46.099V51.9807C40.1837 53.1458 40.6471 54.2628 41.4709 55.0867C42.2948 55.9106 43.4118 56.374 44.577 56.3752H55.6055C56.7706 56.374 57.8876 55.9106 58.7115 55.0867C59.5354 54.2628 59.9988 53.1458 60 51.9807V46.099C59.9977 45.1172 59.6673 44.1644 59.0613 43.3919C58.4553 42.6195 57.6085 42.0717 56.6555 41.8358L56.6531 41.8322ZM52.0828 16.5901C52.7819 16.5907 53.4522 16.8687 53.9466 17.363C54.4409 17.8574 54.7189 18.5277 54.7195 19.2268V21.8049C53.4061 21.6132 52.1895 21.0027 51.2508 20.0642C50.3121 19.1257 49.7013 17.9093 49.5094 16.5959L52.0828 16.5901ZM54.8953 39.0443V41.7045H45.2859V39.0443C45.2859 37.9565 45.7181 36.9133 46.4873 36.1441C47.2564 35.3749 48.2997 34.9428 49.3875 34.9428H50.7938C51.3326 34.9425 51.8662 35.0483 52.3641 35.2543C52.862 35.4603 53.3144 35.7624 53.6955 36.1433C54.0766 36.5242 54.379 36.9764 54.5852 37.4742C54.7915 37.972 54.8977 38.5055 54.8977 39.0443H54.8953ZM4.10742 20.3436C2.56992 18.1697 1.76367 15.6924 1.76367 13.1787V9.41818C3.58126 8.92443 5.32623 8.19437 6.95391 7.24669C7.78173 6.76466 8.57646 6.22792 9.33281 5.64005C10.3611 6.46699 11.4679 7.19115 12.6375 7.80216C14.017 8.52202 15.4751 9.08002 16.9828 9.46505V13.1787C16.9828 15.6924 16.1707 18.1697 14.6391 20.3436C13.3359 22.1893 11.5219 23.8018 9.37617 25.0311C7.22461 23.8018 5.41055 22.1893 4.10742 20.3436ZM7.91016 43.1951C7.21053 43.1942 6.53988 42.9156 6.0455 42.4206C5.55112 41.9255 5.27344 41.2545 5.27344 40.5549V37.9768C6.58708 38.1685 7.80375 38.7792 8.74248 39.7179C9.68121 40.6566 10.2919 41.8733 10.4836 43.1869L7.91016 43.1951ZM41.2641 43.2197C41.1977 43.2033 41.1297 43.195 41.0613 43.1951H12.2543C12.0532 41.4126 11.2532 39.7511 9.98505 38.4824C8.71695 37.2136 7.05584 36.4128 5.27344 36.2108V24.2459C6.39694 25.2394 7.63173 26.0994 8.95312 26.8088C9.08133 26.8772 9.22441 26.913 9.36973 26.913C9.51505 26.913 9.65813 26.8772 9.78633 26.8088C12.3527 25.4295 14.5312 23.5428 16.0687 21.3584C17.0935 19.9169 17.8479 18.3012 18.2953 16.5901H47.7457C47.9476 18.3719 48.7479 20.0326 50.016 21.3007C51.284 22.5687 52.9447 23.3691 54.7266 23.5709V34.7037C53.6509 33.7264 52.2495 33.1853 50.7961 33.1861H49.3898C47.8364 33.188 46.3471 33.8059 45.2487 34.9044C44.1503 36.0028 43.5323 37.4921 43.5305 39.0455V41.8358C42.6509 42.0515 41.8593 42.5336 41.2641 43.2162V43.2197ZM58.2422 51.9807C58.2413 52.6797 57.9632 53.3498 57.4689 53.8441C56.9746 54.3384 56.3045 54.6165 55.6055 54.6174H44.577C43.8779 54.6165 43.2078 54.3384 42.7135 53.8441C42.2193 53.3498 41.9412 52.6797 41.9402 51.9807V46.099C41.9412 45.4 42.2193 44.7299 42.7135 44.2356C43.2078 43.7413 43.8779 43.4632 44.577 43.4623H55.6055C56.3045 43.4632 56.9746 43.7413 57.4689 44.2356C57.9632 44.7299 58.2413 45.4 58.2422 46.099V51.9807ZM30 18.1721C27.2888 18.172 24.6615 19.1121 22.5657 20.832C20.4699 22.552 19.0353 24.9454 18.5063 27.6045C17.9773 30.2636 18.3867 33.0238 19.6648 35.4149C20.9428 37.806 23.0103 39.6799 25.5151 40.7175C28.02 41.7551 30.807 41.892 33.4015 41.105C35.996 40.318 38.2373 38.6558 39.7436 36.4015C41.2498 34.1473 41.9279 31.4405 41.6622 28.7423C41.3965 26.0442 40.2034 23.5216 38.2863 21.6045C37.2007 20.5129 35.9094 19.6474 34.487 19.0582C33.0646 18.4691 31.5395 18.1679 30 18.1721ZM37.043 36.9338C35.4133 38.5632 33.2691 39.5772 30.9756 39.8029C28.6822 40.0286 26.3814 39.4521 24.4654 38.1717C22.5493 36.8912 21.1365 34.986 20.4678 32.7806C19.799 30.5753 19.9155 28.2063 20.7976 26.0772C21.6797 23.9482 23.2727 22.1909 25.3052 21.1047C27.3377 20.0185 29.6839 19.6707 31.9442 20.1205C34.2044 20.5703 36.2387 21.7899 37.7005 23.5714C39.1623 25.353 39.9612 27.5863 39.9609 29.8908C39.9646 31.1994 39.7086 32.4958 39.2077 33.7047C38.7068 34.9137 37.971 36.0112 37.043 36.9338ZM8.90625 29.0119C8.73242 29.0119 8.56249 29.0635 8.41796 29.16C8.27342 29.2566 8.16077 29.3939 8.09425 29.5545C8.02772 29.7151 8.01032 29.8918 8.04423 30.0623C8.07815 30.2328 8.16185 30.3894 8.28477 30.5123C8.40769 30.6352 8.56429 30.7189 8.73478 30.7529C8.90527 30.7868 9.08199 30.7694 9.24259 30.7028C9.40319 30.6363 9.54046 30.5237 9.63703 30.3791C9.73361 30.2346 9.78516 30.0647 9.78516 29.8908C9.78516 29.6577 9.69256 29.4342 9.52773 29.2694C9.3629 29.1045 9.13935 29.0119 8.90625 29.0119ZM34.6137 24.5858C34.6137 24.3527 34.5211 24.1291 34.3562 23.9643C34.1914 23.7994 33.9679 23.7068 33.7348 23.7068H26.2652C26.0321 23.7068 25.8086 23.7994 25.6438 23.9643C25.4789 24.1291 25.3863 24.3527 25.3863 24.5858C25.3863 24.8189 25.4789 25.0424 25.6438 25.2072C25.8086 25.3721 26.0321 25.4647 26.2652 25.4647H28.8762C29.3256 25.4651 29.7648 25.5982 30.1388 25.8474C30.5128 26.0965 30.8049 26.4505 30.9785 26.8651H26.2652C26.0321 26.8651 25.8086 26.9577 25.6438 27.1225C25.4789 27.2873 25.3863 27.5109 25.3863 27.744C25.3863 27.9771 25.4789 28.2006 25.6438 28.3654C25.8086 28.5303 26.0321 28.6229 26.2652 28.6229H30.9785C30.8049 29.0373 30.5127 29.3911 30.1387 29.6401C29.7647 29.889 29.3255 30.0219 28.8762 30.0221H26.257H26.2102H26.1691L26.1316 30.0279L26.0836 30.0361L26.0613 30.042L26.0016 30.0572H25.991L25.9219 30.083L25.8949 30.0959L25.8445 30.1193L25.8094 30.1416L25.7719 30.1639L25.7402 30.1873C25.7285 30.1979 25.7156 30.2061 25.7027 30.2166C25.6898 30.2272 25.6852 30.233 25.677 30.2401L25.6383 30.2764L25.6184 30.2986L25.5855 30.3361L25.5609 30.369L25.5352 30.4065C25.5271 30.4181 25.5196 30.4303 25.5129 30.4428C25.5052 30.4549 25.4981 30.4674 25.4918 30.4803C25.4848 30.4932 25.4789 30.5061 25.473 30.519C25.4672 30.5318 25.4602 30.5447 25.4555 30.5576C25.4497 30.5705 25.445 30.5838 25.4414 30.5975C25.4357 30.6112 25.431 30.6253 25.4273 30.6397C25.4273 30.6526 25.4203 30.6666 25.4168 30.6795L25.4062 30.7229C25.4062 30.7369 25.4062 30.751 25.4062 30.7662C25.4062 30.7815 25.4062 30.7932 25.4004 30.8084C25.3945 30.8236 25.4004 30.8401 25.4004 30.8565C25.4004 30.8729 25.4004 30.8776 25.4004 30.8869V30.8951C25.4004 30.9115 25.4004 30.9279 25.4004 30.9455C25.4004 30.9631 25.4004 30.9701 25.4004 30.9818L25.4074 31.0252C25.4074 31.0393 25.4074 31.0545 25.4145 31.0686C25.4215 31.0826 25.4203 31.0897 25.4227 31.1002C25.425 31.1108 25.4309 31.1342 25.4355 31.1506C25.4392 31.1594 25.4423 31.1684 25.4449 31.1776C25.452 31.1951 25.4578 31.2139 25.4648 31.2303C25.4719 31.2467 25.4777 31.2572 25.4848 31.2713C25.4918 31.2854 25.4953 31.2959 25.5023 31.3076C25.5094 31.3193 25.5176 31.3334 25.5258 31.3463C25.534 31.3592 25.5387 31.3697 25.5469 31.3803C25.554 31.3909 25.5619 31.4011 25.5703 31.4108L25.5984 31.4494L25.6219 31.4752L25.6582 31.5139L31.3066 36.9795C31.3894 37.0605 31.4874 37.1243 31.595 37.1673C31.7025 37.2103 31.8175 37.2316 31.9333 37.23C32.0491 37.2284 32.1635 37.204 32.2698 37.158C32.3761 37.1121 32.4723 37.0456 32.5529 36.9623C32.6334 36.8791 32.6967 36.7808 32.7391 36.673C32.7815 36.5652 32.8022 36.4501 32.8 36.3343C32.7977 36.2185 32.7726 36.1043 32.7261 35.9982C32.6796 35.8921 32.6126 35.7963 32.5289 35.7162L28.4414 31.7611H28.8809C29.7944 31.7592 30.6803 31.4479 31.3942 30.878C32.1082 30.3081 32.6081 29.5132 32.8125 28.6229H33.7313C33.9644 28.6229 34.1879 28.5303 34.3527 28.3654C34.5176 28.2006 34.6102 27.9771 34.6102 27.744C34.6102 27.5109 34.5176 27.2873 34.3527 27.1225C34.1879 26.9577 33.9644 26.8651 33.7313 26.8651H32.8125C32.7006 26.3636 32.4938 25.8883 32.2031 25.4647H33.7266C33.8427 25.4657 33.9578 25.4438 34.0654 25.4001C34.173 25.3564 34.2709 25.2919 34.3534 25.2102C34.4358 25.1284 34.5013 25.0312 34.546 24.924C34.5907 24.8168 34.6137 24.7019 34.6137 24.5858Z" fill="black"/>
</svg>
