<svg width="60" height="60" viewBox="0 0 60 60" fill="none" xmlns="http://www.w3.org/2000/svg">
<path d="M45.9375 56.25H6.5625V3.75H37.5V9.375C37.5 10.1209 37.7963 10.8363 38.3238 11.3637C38.8512 11.8912 39.5666 12.1875 40.3125 12.1875H45.9375V21.5625H47.8125V11.25C47.8125 11.2303 47.8022 11.2125 47.8013 11.1919C47.7958 11.1091 47.7794 11.0275 47.7525 10.9491C47.7422 10.9191 47.7347 10.8909 47.7216 10.8619C47.6759 10.7599 47.6124 10.6668 47.5341 10.5872L39.0966 2.14969C39.017 2.07074 38.9236 2.00717 38.8209 1.96219C38.7928 1.94906 38.7647 1.94156 38.7356 1.93125C38.6566 1.90426 38.5743 1.88786 38.4909 1.8825C38.475 1.88531 38.4572 1.875 38.4375 1.875H5.625C5.37636 1.875 5.1379 1.97377 4.96209 2.14959C4.78627 2.3254 4.6875 2.56386 4.6875 2.8125V57.1875C4.6875 57.4361 4.78627 57.6746 4.96209 57.8504C5.1379 58.0262 5.37636 58.125 5.625 58.125H46.875C47.1236 58.125 47.3621 58.0262 47.5379 57.8504C47.7137 57.6746 47.8125 57.4361 47.8125 57.1875V44.0625H45.9375V56.25ZM44.6119 10.3125H40.3125C40.0639 10.3125 39.8254 10.2137 39.6496 10.0379C39.4738 9.8621 39.375 9.62364 39.375 9.375V5.07562L44.6119 10.3125Z" fill="#231F20"/>
<path d="M12.1875 18.75H19.6875C19.9361 18.75 20.1746 18.6512 20.3504 18.4754C20.5262 18.2996 20.625 18.0611 20.625 17.8125C20.6222 16.9899 20.4023 16.1826 19.9875 15.4723C19.5726 14.762 18.9776 14.1738 18.2625 13.7672C18.5806 13.3018 18.7505 12.7512 18.75 12.1875V11.25C18.75 10.5041 18.4537 9.78871 17.9262 9.26126C17.3988 8.73382 16.6834 8.4375 15.9375 8.4375C15.1916 8.4375 14.4762 8.73382 13.9488 9.26126C13.4213 9.78871 13.125 10.5041 13.125 11.25V12.1875C13.1245 12.7512 13.2944 13.3018 13.6125 13.7672C12.8974 14.1738 12.3024 14.762 11.8875 15.4723C11.4727 16.1826 11.2528 16.9899 11.25 17.8125C11.25 18.0611 11.3488 18.2996 11.5246 18.4754C11.7004 18.6512 11.9389 18.75 12.1875 18.75ZM15 12.1875V11.25C15 11.0014 15.0988 10.7629 15.2746 10.5871C15.4504 10.4113 15.6889 10.3125 15.9375 10.3125C16.1861 10.3125 16.4246 10.4113 16.6004 10.5871C16.7762 10.7629 16.875 11.0014 16.875 11.25V12.1875C16.875 12.4361 16.7762 12.6746 16.6004 12.8504C16.4246 13.0262 16.1861 13.125 15.9375 13.125C15.6889 13.125 15.4504 13.0262 15.2746 12.8504C15.0988 12.6746 15 12.4361 15 12.1875ZM15.9375 15C16.519 15.0007 17.0861 15.1813 17.5609 15.517C18.0357 15.8527 18.3951 16.327 18.5897 16.875H13.2853C13.4799 16.327 13.8393 15.8527 14.3141 15.517C14.7889 15.1813 15.356 15.0007 15.9375 15Z" fill="#231F20"/>
<path d="M23.4375 20.625V6.5625C23.4375 6.31386 23.3387 6.0754 23.1629 5.89959C22.9871 5.72377 22.7486 5.625 22.5 5.625H9.375C9.12636 5.625 8.8879 5.72377 8.71209 5.89959C8.53627 6.0754 8.4375 6.31386 8.4375 6.5625V20.625C8.4375 20.8736 8.53627 21.1121 8.71209 21.2879C8.8879 21.4637 9.12636 21.5625 9.375 21.5625H22.5C22.7486 21.5625 22.9871 21.4637 23.1629 21.2879C23.3387 21.1121 23.4375 20.8736 23.4375 20.625ZM21.5625 19.6875H10.3125V7.5H21.5625V19.6875Z" fill="#231F20"/>
<path d="M30.9375 14.0625H27.1875V15.9375H30.9375V14.0625Z" fill="#231F20"/>
<path d="M42.1875 14.0625H32.8125V15.9375H42.1875V14.0625Z" fill="#231F20"/>
<path d="M42.1875 18.75H27.1875V20.625H42.1875V18.75Z" fill="#231F20"/>
<path d="M42.1875 26.25H11.25V28.125H42.1875V26.25Z" fill="#231F20"/>
<path d="M42.1875 31.875H11.25V33.75H42.1875V31.875Z" fill="#231F20"/>
<path d="M15 37.5H11.25V39.375H15V37.5Z" fill="#231F20"/>
<path d="M40.3125 37.5H16.875V39.375H40.3125V37.5Z" fill="#231F20"/>
<path d="M37.5 44.0625H11.25V45.9375H37.5V44.0625Z" fill="#231F20"/>
<path d="M57.152 20.6016L55.4157 19.8225L55.7541 19.006C56.0401 18.3168 56.0406 17.5424 55.7555 16.8529C55.4704 16.1635 54.9231 15.6155 54.234 15.3295C53.5449 15.0436 52.7704 15.0431 52.0809 15.3282C51.3915 15.6133 50.8435 16.1606 50.5576 16.8497L37.6351 48.03C37.5893 48.1404 37.5648 48.2584 37.5629 48.3778L37.5001 53.4253C37.4976 53.6128 37.5514 53.7967 37.6545 53.9533C37.7576 54.1099 37.9053 54.232 38.0785 54.3038C38.1923 54.3512 38.3143 54.3754 38.4376 54.375C38.5626 54.3753 38.6863 54.3505 38.8016 54.3022C38.9169 54.2539 39.0213 54.183 39.1088 54.0938L42.6357 50.4816C42.7185 50.3958 42.7846 50.2953 42.8307 50.1853L54.6976 21.555L55.5535 21.9385L53.0298 28.0313L54.7623 28.7485L57.6348 21.8203C57.7295 21.5944 57.732 21.3403 57.6418 21.1125C57.5515 20.8848 57.3757 20.7013 57.152 20.6016ZM52.2891 17.5716C52.3362 17.4578 52.4053 17.3545 52.4923 17.2674C52.5794 17.1803 52.6827 17.1112 52.7964 17.0641C52.9102 17.0169 53.0321 16.9927 53.1552 16.9926C53.2783 16.9926 53.4002 17.0168 53.514 17.0639C53.6277 17.111 53.7311 17.18 53.8182 17.2671C53.9053 17.3541 53.9743 17.4575 54.0215 17.5712C54.0686 17.6849 54.0929 17.8068 54.0929 17.93C54.093 18.0531 54.0687 18.175 54.0216 18.2888L52.2273 22.6191L50.4948 21.901L52.2891 17.5716ZM39.421 49.7813L40.3266 50.1563L39.4041 51.1003L39.421 49.7813ZM41.4573 48.5963L39.7257 47.8781L49.7813 23.6325L51.5129 24.3506L41.4573 48.5963Z" fill="#231F20"/>
</svg>
