<svg width="60" height="60" viewBox="0 0 60 60" fill="none" xmlns="http://www.w3.org/2000/svg">
<path d="M27.6457 24.9843C27.7611 24.9843 27.8754 24.9615 27.982 24.9174C28.0886 24.8732 28.1855 24.8085 28.2671 24.7269C28.3487 24.6452 28.4135 24.5483 28.4577 24.4417C28.5018 24.3351 28.5246 24.2208 28.5246 24.1054V22.9687C28.5246 22.7356 28.432 22.512 28.2671 22.3472C28.1023 22.1823 27.8788 22.0897 27.6457 22.0897C27.4126 22.0897 27.189 22.1823 27.0242 22.3472C26.8593 22.512 26.7667 22.7356 26.7667 22.9687V24.103C26.7664 24.2186 26.7889 24.3332 26.833 24.4401C26.877 24.547 26.9417 24.6442 27.0233 24.726C27.105 24.8079 27.202 24.8728 27.3088 24.9171C27.4156 24.9615 27.53 24.9843 27.6457 24.9843ZM57.1406 38.1714H53.5886V36.4323C53.5877 35.619 53.2641 34.8394 52.6889 34.2644C52.1138 33.6894 51.3339 33.3661 50.5207 33.3655H41.0707C40.2576 33.3665 39.4781 33.6899 38.9031 34.2648C38.3282 34.8397 38.0048 35.6192 38.0039 36.4323V38.1714H34.4531C34.0533 38.1714 33.658 38.2556 33.2929 38.4187L32.3214 36.8706C32.1395 36.5819 31.8549 36.373 31.5249 36.286C31.195 36.199 30.8443 36.2404 30.5437 36.4019L30.0187 35.6249C31.1327 34.7036 32.0298 33.5479 32.646 32.2402C33.2622 30.9325 33.5823 29.5049 33.5835 28.0593H34.2796C34.9144 28.0587 35.5229 27.806 35.9715 27.3568C36.42 26.9076 36.6717 26.2987 36.6714 25.664V23.3085C36.6708 22.6743 36.4186 22.0663 35.9702 21.6179C35.5218 21.1695 34.9138 20.9173 34.2796 20.9167H33.5835V19.9921C33.5839 19.6128 33.4713 19.2419 33.2601 18.9269C33.4726 18.4264 33.5825 17.8885 33.5835 17.3448V10.7729C33.5832 10.3845 33.4288 10.0121 33.1542 9.73749C32.8795 9.46285 32.5071 9.30842 32.1187 9.30811H18.3621C15.805 9.30811 13.8949 11.8019 13.8949 14.0319V20.9202H13.1988C12.5647 20.9211 11.9569 21.1734 11.5086 21.6218C11.0602 22.0701 10.8079 22.678 10.807 23.312V25.664C10.8079 26.298 11.0602 26.9058 11.5086 27.3542C11.9569 27.8025 12.5647 28.0548 13.1988 28.0558H13.8949C13.8968 29.5155 14.2239 30.9565 14.8522 32.274C15.4806 33.5916 16.3946 34.7527 17.5277 35.6729L17.0062 36.4593C16.7277 36.3059 16.4093 36.2406 16.093 36.272C15.7766 36.3034 15.4772 36.43 15.2343 36.6351L12.88 38.5921C12.7933 38.6667 12.7147 38.7504 12.6457 38.8417L7.58315 39.7698L7.53159 39.7815C3.70542 40.719 0.814404 43.9358 0.336279 47.7866C0.325732 47.8722 0.315186 47.9577 0.308154 48.0374L0.0397949 50.7608C0.0397949 50.789 0.0397949 50.8171 0.0397949 50.8452V55.6054C0.0410337 56.7699 0.503943 57.8864 1.32705 58.7102C2.15016 59.5339 3.2663 59.9977 4.43081 59.9999H33.825C33.8997 59.9997 33.9742 59.9899 34.0464 59.9706C34.1811 59.99 34.317 59.9998 34.4531 59.9999H57.1406C57.8987 59.9993 58.6257 59.6978 59.1618 59.1617C59.6979 58.6256 59.9993 57.8987 60 57.1405V41.0308C59.999 40.2727 59.6975 39.5459 59.1614 39.0099C58.6254 38.4739 57.8986 38.1723 57.1406 38.1714ZM33.5859 22.678H34.282C34.3652 22.678 34.4477 22.6944 34.5246 22.7263C34.6015 22.7581 34.6714 22.8048 34.7303 22.8637C34.7892 22.9226 34.8358 22.9925 34.8677 23.0694C34.8996 23.1463 34.916 23.2288 34.916 23.312V25.664C34.916 25.7472 34.8996 25.8297 34.8677 25.9066C34.8358 25.9835 34.7892 26.0534 34.7303 26.1123C34.6714 26.1711 34.6015 26.2178 34.5246 26.2497C34.4477 26.2815 34.3652 26.2979 34.282 26.2979H33.5859V22.678ZM13.8984 26.3015H13.2023C13.0342 26.3012 12.8732 26.2343 12.7543 26.1154C12.6355 25.9966 12.5686 25.8355 12.5683 25.6675V23.312C12.5686 23.144 12.6355 22.9829 12.7543 22.8641C12.8732 22.7452 13.0342 22.6783 13.2023 22.678H13.8984V26.3015ZM15.6562 14.0319C15.6562 12.6878 16.8644 11.0659 18.3656 11.0659H31.8257V17.3437C31.8268 17.5914 31.7872 17.8376 31.7085 18.0726H15.9457C15.8476 18.0732 15.7496 18.0811 15.6527 18.096L15.6562 14.0319ZM15.6562 28.0487V20.1233C15.6562 20.0456 15.6871 19.9711 15.742 19.9162C15.797 19.8612 15.8715 19.8304 15.9492 19.8304H31.6628C31.6842 19.8302 31.7053 19.8343 31.7251 19.8423C31.7448 19.8504 31.7628 19.8623 31.778 19.8773C31.7931 19.8924 31.8051 19.9102 31.8133 19.9299C31.8215 19.9496 31.8257 19.9708 31.8257 19.9921V28.0487C31.8232 30.1925 30.9705 32.2477 29.4547 33.7636C27.9388 35.2795 25.8836 36.1322 23.7398 36.1347C21.5959 36.1322 19.5406 35.2795 18.0245 33.7637C16.5084 32.2478 15.6555 30.1926 15.6527 28.0487H15.6562ZM29.1984 37.5409L23.7421 42.3843L18.3515 37.6089L18.9785 36.6644C20.4467 37.4779 22.0991 37.9011 23.7777 37.8935C25.4562 37.8859 27.1047 37.4478 28.5656 36.621L29.1984 37.5409ZM16.2433 38.0858L22.4542 43.5937L19.0136 46.9054L14.1292 39.8437L16.2433 38.0858ZM9.77339 58.2421V51.9433C9.77339 51.7102 9.68079 51.4866 9.51596 51.3218C9.35114 51.157 9.12758 51.0644 8.89448 51.0644C8.66138 51.0644 8.43783 51.157 8.273 51.3218C8.10818 51.4866 8.01558 51.7102 8.01558 51.9433V58.2421H4.43081C3.7317 58.2415 3.0614 57.9635 2.56705 57.4691C2.07271 56.9748 1.79471 56.3045 1.79409 55.6054V50.8874L2.05425 48.1991C2.05425 48.13 2.06831 48.062 2.07651 47.994C2.46089 44.8827 4.81167 42.2706 7.92183 41.4948L12.5519 40.6452C12.566 40.6663 12.5777 40.6874 12.5917 40.7085L17.6812 48.069C17.8117 48.2576 17.9815 48.4155 18.179 48.5321C18.3765 48.6486 18.5968 48.7209 18.825 48.744C18.8781 48.7487 18.9308 48.7511 18.9832 48.7511C19.3923 48.7517 19.7856 48.5933 20.08 48.3093L23.7433 44.7854L27.6328 48.5272C27.8846 48.7697 28.2207 48.9049 28.5703 48.9046H28.6546C28.8412 48.8928 29.0233 48.8424 29.1894 48.7564C29.3554 48.6705 29.5018 48.5509 29.6191 48.4054L31.5937 45.9526V57.144C31.5937 57.5223 31.669 57.8968 31.8152 58.2456L9.77339 58.2421ZM31.5914 41.0308V43.1472L28.5292 46.9499L25.0347 43.5937L30.9164 38.3729L30.9281 38.3624L31.0875 38.2206L31.9675 39.6269C31.7222 40.0541 31.5925 40.538 31.5914 41.0308ZM39.7617 36.4323C39.762 36.0853 39.9 35.7525 40.1454 35.5071C40.3908 35.2617 40.7236 35.1236 41.0707 35.1233H50.5207C50.8679 35.1233 51.201 35.2612 51.4467 35.5067C51.6923 35.7521 51.8305 36.0851 51.8308 36.4323V38.1714H39.7605L39.7617 36.4323ZM58.2421 57.1405C58.2421 57.4327 58.1261 57.7129 57.9195 57.9194C57.7129 58.126 57.4327 58.2421 57.1406 58.2421H34.4531C34.161 58.2418 33.881 58.1256 33.6745 57.9191C33.468 57.7126 33.3518 57.4326 33.3515 57.1405V46.494L42.225 50.9202V53.2159C42.2256 53.6664 42.4048 54.0982 42.7233 54.4168C43.0419 54.7353 43.4737 54.9145 43.9242 54.9151H47.6742C48.1246 54.9145 48.5565 54.7353 48.875 54.4168C49.1935 54.0982 49.3728 53.6664 49.3734 53.2159V50.9202L58.2421 46.494V57.1405ZM43.9804 53.1562V49.5233H47.6132V53.1562H43.9804ZM58.2421 44.5312L49.3007 48.9913C49.1975 48.6387 48.983 48.3291 48.6891 48.1085C48.3953 47.888 48.038 47.7685 47.6707 47.7679H43.9207C43.5531 47.7684 43.1957 47.8879 42.9016 48.1084C42.6076 48.3289 42.3929 48.6386 42.2894 48.9913L33.3492 44.5312V41.0308C33.3495 40.7387 33.4656 40.4587 33.6722 40.2522C33.8787 40.0457 34.1587 39.9295 34.4507 39.9292H57.1406C57.4326 39.9295 57.7126 40.0457 57.9192 40.2522C58.1257 40.4587 58.2418 40.7387 58.2421 41.0308V44.5312ZM23.7398 47.9882C23.566 47.9882 23.396 48.0397 23.2515 48.1363C23.107 48.2329 22.9943 48.3701 22.9278 48.5307C22.8613 48.6913 22.8439 48.8681 22.8778 49.0386C22.9117 49.209 22.9954 49.3657 23.1183 49.4886C23.2412 49.6115 23.3978 49.6952 23.5683 49.7291C23.7388 49.763 23.9155 49.7456 24.0761 49.6791C24.2367 49.6126 24.374 49.4999 24.4706 49.3554C24.5672 49.2108 24.6187 49.0409 24.6187 48.8671C24.6187 48.634 24.5261 48.4104 24.3613 48.2456C24.1964 48.0808 23.9729 47.9882 23.7398 47.9882ZM23.7398 55.0194C23.566 55.0194 23.396 55.071 23.2515 55.1676C23.107 55.2641 22.9943 55.4014 22.9278 55.562C22.8613 55.7226 22.8439 55.8993 22.8778 56.0698C22.9117 56.2403 22.9954 56.3969 23.1183 56.5198C23.2412 56.6427 23.3978 56.7264 23.5683 56.7604C23.7388 56.7943 23.9155 56.7769 24.0761 56.7103C24.2367 56.6438 24.374 56.5312 24.4706 56.3866C24.5672 56.2421 24.6187 56.0722 24.6187 55.8983C24.6187 55.6652 24.5261 55.4417 24.3613 55.2769C24.1964 55.112 23.9729 55.0194 23.7398 55.0194ZM23.7398 51.5038C23.566 51.5038 23.396 51.5554 23.2515 51.6519C23.107 51.7485 22.9943 51.8858 22.9278 52.0464C22.8613 52.207 22.8439 52.3837 22.8778 52.5542C22.9117 52.7247 22.9954 52.8813 23.1183 53.0042C23.2412 53.1271 23.3978 53.2108 23.5683 53.2447C23.7388 53.2786 23.9155 53.2612 24.0761 53.1947C24.2367 53.1282 24.374 53.0155 24.4706 52.871C24.5672 52.7265 24.6187 52.5565 24.6187 52.3827C24.6187 52.1496 24.5261 51.9261 24.3613 51.7612C24.1964 51.5964 23.9729 51.5038 23.7398 51.5038ZM19.8328 24.9843C20.0659 24.9843 20.2894 24.8917 20.4542 24.7269C20.6191 24.562 20.7117 24.3385 20.7117 24.1054V22.9687C20.7117 22.7356 20.6191 22.512 20.4542 22.3472C20.2894 22.1823 20.0659 22.0897 19.8328 22.0897C19.5997 22.0897 19.3761 22.1823 19.2113 22.3472C19.0465 22.512 18.9539 22.7356 18.9539 22.9687V24.103C18.9536 24.2186 18.9761 24.3332 19.0201 24.4401C19.0641 24.547 19.1288 24.6442 19.2105 24.726C19.2921 24.8079 19.3891 24.8728 19.4959 24.9171C19.6027 24.9615 19.7171 24.9843 19.8328 24.9843ZM21.1218 31.5351C21.8771 32.0348 22.7593 32.3088 23.6648 32.3249H23.7492C24.6833 32.3204 25.5962 32.0456 26.3777 31.5339C26.5697 31.4044 26.7029 31.2044 26.7483 30.9773C26.7937 30.7502 26.7476 30.5144 26.6201 30.3211C26.4925 30.1278 26.2939 29.9926 26.0672 29.945C25.8406 29.8973 25.6043 29.9411 25.4097 30.0667C24.9177 30.3933 24.3403 30.5676 23.7498 30.5676C23.1592 30.5676 22.5818 30.3933 22.0898 30.0667C21.8952 29.9411 21.6589 29.8973 21.4323 29.945C21.2057 29.9926 21.007 30.1278 20.8794 30.3211C20.7519 30.5144 20.7058 30.7502 20.7512 30.9773C20.7966 31.2044 20.9298 31.4044 21.1218 31.5339V31.5351Z" fill="black"/>
</svg>
