<svg width="105" height="60" viewBox="0 0 105 60" fill="none" xmlns="http://www.w3.org/2000/svg">
<g clip-path="url(#clip0_22_172)">
<path fill-rule="evenodd" clip-rule="evenodd" d="M52.2319 52.2232C57.9382 57.235 65.413 60.0116 73.1677 60C81.4692 59.9497 89.4128 56.7668 95.2643 51.1461C101.116 45.5255 104.4 37.9237 104.4 30C104.4 22.0764 101.116 14.4746 95.2643 8.85394C89.4128 3.23332 81.4692 0.0504066 73.1677 3.79474e-05C65.4129 -0.0118393 57.9381 2.7648 52.2319 7.7769C48.9858 10.5908 46.3921 14.0214 44.6171 17.8485C42.8422 21.6756 41.9253 25.8147 41.9253 30C41.9253 34.1854 42.8422 38.3244 44.6171 42.1516C46.3921 45.9787 48.9858 49.4093 52.2319 52.2232Z" fill="#E9B040"/>
<path fill-rule="evenodd" clip-rule="evenodd" d="M100.257 46.7119C100.256 46.5901 100.281 46.4694 100.33 46.3567C100.378 46.244 100.45 46.1417 100.54 46.0555C100.63 45.9694 100.737 45.9011 100.855 45.8547C100.974 45.8083 101.1 45.7847 101.228 45.7851C101.359 45.7794 101.491 45.7991 101.614 45.843C101.738 45.8869 101.851 45.9542 101.946 46.0407C102.042 46.1272 102.118 46.2312 102.171 46.3466C102.223 46.4619 102.251 46.5862 102.252 46.7119C102.257 46.8416 102.233 46.9708 102.184 47.0915C102.134 47.2122 102.059 47.3219 101.963 47.4137C101.866 47.5055 101.752 47.5774 101.625 47.6251C101.499 47.6728 101.364 47.6952 101.228 47.6909C101.096 47.6898 100.966 47.6633 100.845 47.6131C100.724 47.5628 100.615 47.4898 100.524 47.3984C100.433 47.3071 100.363 47.1992 100.317 47.0812C100.271 46.9632 100.251 46.8377 100.257 46.7119ZM101.228 47.4854C101.441 47.4803 101.643 47.3972 101.794 47.2533C101.944 47.1094 102.031 46.9158 102.036 46.7125C102.029 46.5148 101.939 46.3279 101.788 46.1928C101.636 46.0577 101.435 45.9855 101.228 45.9918C101.029 45.9957 100.839 46.0729 100.698 46.2072C100.557 46.3415 100.477 46.5226 100.473 46.7125C100.476 46.9078 100.555 47.0949 100.694 47.2377C100.834 47.3805 101.024 47.4687 101.228 47.4854ZM101.12 47.1762H100.904V46.3004H101.281C101.357 46.2923 101.434 46.3108 101.497 46.3525C101.605 46.4034 101.605 46.4555 101.605 46.5586C101.605 46.6616 101.552 46.7647 101.444 46.7647L101.66 47.1769H101.389L101.281 46.8132H101.12V46.6586H101.336C101.389 46.6586 101.389 46.6065 101.389 46.5556C101.389 46.5046 101.389 46.5034 101.336 46.4525H101.12V47.1762Z" fill="#E9B040"/>
<path fill-rule="evenodd" clip-rule="evenodd" d="M62.323 26.8329C62.215 25.7515 61.9991 24.7217 61.7832 23.6397H42.6816C42.9122 22.5786 43.2003 21.5296 43.5446 20.4968H60.8662C60.4902 19.4126 60.0586 18.3483 59.5713 17.3037H44.8941C45.4339 16.2126 46.0267 15.1482 46.6723 14.1105H57.7346C57.0229 13.0106 56.2295 11.9607 55.3607 10.9688H49.0494C50.026 9.83045 51.0902 8.76311 52.233 7.77565C48.4483 4.54715 43.8987 2.24424 38.9754 1.06492C34.0521 -0.114409 28.9024 -0.134868 23.969 1.0053C19.0355 2.14547 14.466 4.41215 10.6533 7.61047C6.84056 10.8088 3.89868 14.8431 2.08058 19.3664C0.262475 23.8898 -0.377457 28.7669 0.215799 33.5785C0.809054 38.3901 2.61775 42.9922 5.48638 46.9892C8.35501 50.9861 12.1978 54.2584 16.6842 56.5245C21.1707 58.7906 26.1667 59.9829 31.2427 59.9988C39.0137 60.0106 46.5056 57.2349 52.233 52.2219C53.3584 51.2518 54.4048 50.2013 55.3633 49.0797H49.0494C48.197 48.0578 47.4043 46.9918 46.6749 45.8865H57.7372C58.4328 44.8681 59.0461 43.8006 59.5719 42.6933H44.8941C44.3889 41.6683 43.9385 40.6196 43.5446 39.5511H60.8662C61.229 38.5024 61.5349 37.4366 61.7826 36.3579C62.0193 35.3029 62.1995 34.2372 62.3224 33.1647C62.4317 32.1205 62.486 31.0718 62.485 30.0224C62.485 28.9429 62.431 27.8615 62.323 26.8317V26.8329Z" fill="#CC2131"/>
<path fill-rule="evenodd" clip-rule="evenodd" d="M100.257 36.9783C100.251 36.8526 100.271 36.7271 100.317 36.6093C100.363 36.4914 100.434 36.3836 100.524 36.2924C100.615 36.2011 100.724 36.1282 100.845 36.0781C100.966 36.0279 101.096 36.0016 101.228 36.0005C101.363 35.9961 101.499 36.0184 101.625 36.066C101.751 36.1136 101.866 36.1855 101.962 36.2771C102.058 36.3688 102.134 36.4784 102.183 36.599C102.233 36.7196 102.257 36.8487 102.252 36.9783C102.257 37.1062 102.235 37.2337 102.187 37.3532C102.139 37.4727 102.066 37.5818 101.973 37.6739C101.88 37.766 101.768 37.8393 101.645 37.8893C101.521 37.9393 101.388 37.9651 101.254 37.9651C101.12 37.9651 100.987 37.9393 100.864 37.8893C100.741 37.8393 100.629 37.766 100.536 37.6739C100.443 37.5818 100.37 37.4727 100.322 37.3532C100.274 37.2337 100.252 37.1062 100.257 36.9783ZM101.228 37.699C101.331 37.706 101.435 37.6926 101.533 37.6595C101.631 37.6265 101.721 37.5746 101.797 37.507C101.873 37.4393 101.934 37.3575 101.975 37.2666C102.017 37.1756 102.038 37.0775 102.038 36.9783C102.038 36.8791 102.017 36.7809 101.975 36.69C101.934 36.599 101.873 36.5172 101.797 36.4496C101.721 36.3819 101.631 36.33 101.533 36.297C101.435 36.2639 101.331 36.2505 101.228 36.2576C101.027 36.2576 100.835 36.3335 100.694 36.4686C100.552 36.6038 100.473 36.7871 100.473 36.9783C100.473 37.1694 100.552 37.3527 100.694 37.4879C100.835 37.623 101.027 37.699 101.228 37.699ZM101.12 37.3898H100.904V36.5661H101.497C101.605 36.6182 101.605 36.7213 101.605 36.8243C101.597 36.8685 101.579 36.9104 101.551 36.9463C101.523 36.9822 101.486 37.011 101.444 37.0304L101.659 37.3904H101.389L101.281 37.0813H101.12V36.9267H101.228C101.281 36.9267 101.336 36.9267 101.336 36.8746C101.389 36.8746 101.389 36.8237 101.389 36.7716C101.389 36.7648 101.388 36.7581 101.385 36.7519C101.383 36.7456 101.379 36.7399 101.374 36.7352C101.369 36.7304 101.363 36.7267 101.356 36.7242C101.35 36.7217 101.343 36.7205 101.336 36.7206C101.336 36.6685 101.281 36.7206 101.228 36.7206H101.12V37.3898Z" fill="white"/>
<path fill-rule="evenodd" clip-rule="evenodd" d="M41.6023 38.678C40.7791 38.9192 39.9268 39.0578 39.0664 39.0902C37.4476 39.0902 36.476 38.1112 36.476 36.3625C36.4874 35.9819 36.5235 35.6023 36.5839 35.226L36.7999 34.0422L36.9618 33.0632L38.4186 24.6184H41.6575L41.2765 26.4726H43.3284L42.8425 29.564H40.7925L39.9295 34.6107C39.8918 34.7801 39.8737 34.9529 39.8755 35.126C39.8755 35.7958 40.1994 36.0528 41.0085 36.0528C41.3526 36.047 41.6956 36.0125 42.0335 35.9497L41.6023 38.6774V38.678ZM52.0708 38.5749C50.9474 38.8802 49.7852 39.036 48.6172 39.038C44.9478 39.038 42.8432 37.1838 42.8432 33.5282C42.8432 29.253 45.3257 26.1629 48.7785 26.1629C51.5303 26.1629 53.311 27.914 53.311 30.6429C53.3004 31.666 53.1739 32.685 52.9338 33.6821H46.1862C46.1476 33.8163 46.1294 33.9552 46.1322 34.0943C46.1322 35.5363 47.1572 36.257 49.0999 36.257C50.3148 36.253 51.5132 35.9893 52.6074 35.4854L52.0708 38.5749ZM50.0741 31.2103V30.592C50.1019 30.3804 50.0797 30.1656 50.009 29.9634C49.9383 29.7611 49.8209 29.5766 49.6656 29.4234C49.5103 29.2702 49.3209 29.1522 49.1114 29.0781C48.9019 29.004 48.6777 28.9758 48.4553 28.9954C47.3757 28.9954 46.6206 29.7676 46.2961 31.2097H50.0735L50.0741 31.2103ZM15.7028 38.8319H12.356L14.2987 27.1418L9.92812 38.8319H7.60821L7.33831 27.1939L5.28766 38.8319H1.99609L4.63989 23.6395H9.55026L9.65822 33.0135L12.9498 23.6395H18.3479L15.7028 38.8319ZM23.8514 33.3221C23.638 33.2828 23.4209 33.2653 23.2036 33.2699C21.261 33.2699 20.2899 33.9907 20.2899 35.1241C20.2717 35.2888 20.2904 35.4552 20.3448 35.6124C20.3992 35.7696 20.488 35.914 20.6054 36.0358C20.7228 36.1577 20.8661 36.2543 21.0257 36.3192C21.1852 36.3841 21.3574 36.4158 21.5309 36.4122C23.1497 36.4122 23.7968 35.1241 23.8514 33.3209V33.3221ZM26.5492 38.8319H23.6342L23.6882 37.5451C22.9325 38.5228 21.91 39.038 20.1267 39.038C18.5079 39.038 17.1051 37.6481 17.1051 35.6394C17.1114 35.0975 17.2024 34.5596 17.375 34.0434C17.9141 32.1371 19.9108 30.952 22.9864 30.9011C23.3675 30.9011 23.9575 30.9011 24.4973 30.9532C24.5767 30.6853 24.6129 30.4073 24.6046 30.1289C24.6046 29.3045 23.906 29.0469 22.3387 29.0469C21.3865 29.0418 20.4395 29.181 19.5329 29.4591L19.0471 29.5621L18.8312 29.6131L19.317 26.8321C20.5842 26.4122 21.9132 26.1871 23.2544 26.1653C26.1681 26.1653 27.733 27.4528 27.733 29.8216C27.7671 30.6317 27.7129 31.4431 27.571 32.2425L26.8165 36.6692L26.7086 37.442L26.6546 38.0603L26.6006 38.4725L26.5466 38.8319H26.5492ZM68.3679 26.5751C69.4307 26.6092 70.4683 26.8921 71.3896 27.3988L71.9827 24.1026C71.702 23.9827 71.4138 23.8794 71.1197 23.7935L69.7714 23.4298C69.2579 23.3192 68.7324 23.2673 68.206 23.2752C66.5326 23.2752 65.5616 23.3267 64.5372 23.8935C63.799 24.3574 63.1276 24.9115 62.5399 25.5416L62.108 25.4385L58.6545 27.7558L58.8171 26.4684H55.255L53.1516 38.8283H56.5518L57.7921 32.1855C57.7921 32.1855 58.2786 31.2575 58.4939 30.9496C58.7035 30.6674 58.9907 30.4459 59.3239 30.3095C59.657 30.1731 60.0232 30.1272 60.3819 30.1768H60.6525C60.5392 30.9617 60.4849 31.7533 60.4899 32.5456C60.4899 36.5625 62.8638 39.0865 66.5332 39.0865C67.5378 39.0803 68.5367 38.9416 69.5015 38.6743L70.096 35.1726C69.2296 35.669 68.2476 35.9521 67.2381 35.9964C65.2421 35.9964 64.0539 34.5544 64.0539 32.2886C64.0539 28.9408 65.8321 26.572 68.3724 26.572L68.3679 26.5751ZM97.0191 23.6395L96.2647 27.9656C95.9653 27.4358 95.5212 26.9933 94.9796 26.685C94.438 26.3766 93.819 26.214 93.1884 26.2144C92.2393 26.241 91.317 26.5203 90.5255 27.0208C89.734 27.5213 89.1049 28.2231 88.7092 29.0469V28.996L86.55 27.7595L86.7659 26.472H83.1505L81.0998 38.8319H84.4454L85.579 32.1892C85.579 32.1892 86.442 31.2612 86.6586 30.9532C86.8397 30.7306 87.0677 30.5468 87.328 30.4137C87.5883 30.2805 87.8749 30.2011 88.1694 30.1804C87.7595 31.3593 87.559 32.5953 87.5763 33.8373C87.5763 36.9286 89.2484 38.9895 91.7303 38.9895C92.3285 39.0009 92.9216 38.8815 93.4641 38.6404C94.0066 38.3993 94.484 38.0428 94.8599 37.5984L94.6986 38.8344H97.8809L100.471 23.6419H97.0166L97.0191 23.6395ZM92.8639 35.897C91.7303 35.897 91.1371 35.0732 91.1371 33.476C91.1371 31.0551 92.2167 29.3045 93.7803 29.3045C94.9672 29.3045 95.5585 30.1804 95.5585 31.7255C95.5585 34.1973 94.4788 35.897 92.8607 35.897H92.8639ZM77.2703 33.3221C77.057 33.2828 76.8398 33.2653 76.6226 33.2699C74.6786 33.2699 73.7076 33.9907 73.7076 35.1241C73.6894 35.2888 73.7082 35.4553 73.7627 35.6125C73.8172 35.7697 73.9061 35.914 74.0235 36.0359C74.141 36.1577 74.2843 36.2543 74.4439 36.3192C74.6035 36.3841 74.7757 36.4158 74.9492 36.4122C76.568 36.4122 77.2157 35.1241 77.2703 33.3221ZM79.9681 38.8319H76.9998L77.1078 37.5451C76.3527 38.5228 75.3296 39.038 73.5469 39.038C71.8735 39.038 70.4173 37.6991 70.4173 35.6394C70.4173 32.7044 72.7366 30.9017 76.406 30.9017C76.8925 30.8949 77.379 30.9123 77.8635 30.9539C77.9557 30.6872 78.0104 30.4099 78.0261 30.1295C78.0261 29.3051 77.3275 29.0475 75.7055 29.0475C74.7536 29.0465 73.8073 29.1855 72.8998 29.4597L72.4679 29.5628L72.252 29.6137L72.7372 26.8327C74.0044 26.4129 75.3335 26.1879 76.6747 26.1659C79.5884 26.1659 81.0992 27.4534 81.0992 29.8222C81.1618 30.6324 81.1076 31.447 80.9379 32.2431L80.2393 36.6722L80.1313 37.4451L80.0234 38.0633L79.97 38.4755V38.8344L79.9681 38.8319ZM33.6162 29.0984C34.4661 29.1027 35.3143 29.1717 36.1527 29.3045L36.6385 26.4205C35.6669 26.3174 34.372 26.1629 33.6162 26.1629C29.8395 26.1629 28.5992 28.1201 28.5992 30.3859C28.5992 31.88 29.2978 32.9608 31.135 33.7846C32.4839 34.4028 32.6998 34.5053 32.6998 35.0726C32.6998 35.8442 32.0013 36.3086 30.7032 36.3086C29.6544 36.3085 28.6136 36.1342 27.6275 35.7933L27.2465 38.6252L27.2998 38.6774L27.9476 38.7804C28.2325 38.8459 28.5208 38.8973 28.8113 38.9344C29.6204 38.9865 30.3221 39.0374 30.754 39.0374C34.5314 39.0374 36.0962 37.6475 36.0962 34.9156C36.0962 33.2184 35.2325 32.188 33.5597 31.4661C32.1029 30.8472 31.9409 30.7453 31.9409 30.178C31.9409 29.6106 32.5887 29.0966 33.6137 29.0966L33.6162 29.0984Z" fill="#1B3771"/>
<path fill-rule="evenodd" clip-rule="evenodd" d="M72.8991 23.1246L72.3047 26.4208C71.3836 25.9136 70.3459 25.6307 69.2831 25.597C66.7466 25.597 64.9646 27.9659 64.9646 31.3136C64.9646 33.6315 66.1515 35.0214 68.1488 35.0214C69.1503 34.9739 70.1275 34.7101 71.0066 34.2498L70.4135 37.6994C69.4503 37.9803 68.4519 38.1365 67.4452 38.1637C63.7764 38.1637 61.5098 35.6397 61.5098 31.5718C61.5098 26.1638 64.6394 22.3523 69.1179 22.3523C69.6439 22.3445 70.169 22.3964 70.6821 22.5069L72.0316 22.816C72.4641 22.9706 72.5721 23.0221 72.896 23.1246H72.8991ZM61.9994 25.3909H61.6756C60.5432 25.3909 59.8974 25.9062 58.8698 27.3991L59.1937 25.4934H56.1174L54.0141 37.8539H57.4142C58.6545 30.2831 58.9784 28.9957 60.5972 28.9957H60.8131C61.0612 27.7572 61.4974 26.56 62.108 25.4419L61.9994 25.3909ZM42.4659 37.6994C41.6886 37.9728 40.8665 38.1123 40.0381 38.1115C38.3113 38.1115 37.3397 37.1847 37.3397 35.3839C37.3514 35.0214 37.3875 34.66 37.4476 34.3019L37.6635 33.066L37.8255 32.0883L39.2823 23.641H42.6298L42.2488 25.4952H43.9755L43.5437 28.5338H41.8182L40.9011 33.6861C40.859 33.8547 40.8409 34.028 40.8471 34.2013C40.8471 34.8195 41.171 35.0772 41.9801 35.0772C42.29 35.1038 42.6023 35.0688 42.8972 34.9741L42.4659 37.7018V37.6994ZM29.4616 29.4073C29.4616 30.9529 30.2167 32.0337 31.9974 32.8581C33.4003 33.4763 33.6162 33.6818 33.6162 34.197C33.6162 34.9699 33.0224 35.3299 31.6736 35.3299C30.6475 35.3232 29.6286 35.167 28.6519 34.8668L28.1661 37.6987L28.328 37.7509L28.9218 37.8539C29.2215 37.9263 29.5298 37.9609 29.8388 37.957C30.4469 38.0343 31.0602 38.0688 31.6736 38.06C35.2344 38.06 36.9078 36.7719 36.9078 33.9382C36.9078 32.238 36.2092 31.259 34.5339 30.4874C33.0771 29.8716 32.9132 29.7176 32.9132 29.1509C32.9132 28.4841 33.507 28.1725 34.586 28.1725C35.3979 28.1794 36.2088 28.231 37.0145 28.3271L37.4997 25.4946C36.5188 25.3368 35.5267 25.2506 34.532 25.237C30.7546 25.237 29.4057 27.1421 29.4597 29.4079L29.4616 29.4073ZM98.7478 37.8539H95.5635L95.7261 36.6689C95.3391 37.0976 94.858 37.4399 94.3169 37.6713C93.7759 37.9027 93.1881 38.0176 92.5952 38.0079C90.1134 38.0079 88.4946 36.0003 88.4946 32.9102C88.4946 28.7884 91.031 25.2873 93.9981 25.2873C94.6433 25.2907 95.2773 25.4477 95.8429 25.7441C96.4084 26.0405 96.8876 26.4668 97.237 26.9845L97.9921 22.6584H101.338L98.7478 37.8515V37.8539ZM93.7828 34.9699C95.3483 34.9699 96.4272 33.2187 96.4272 30.7978C96.4272 29.2012 95.8328 28.3768 94.649 28.3768C93.1382 28.3768 92.0059 30.074 92.0059 32.4986C92.0059 34.1473 92.5986 34.9715 93.7841 34.9711L93.7828 34.9699ZM52.8259 37.5963C51.6934 37.9472 50.509 38.1212 49.3184 38.1115C45.541 38.1115 43.5983 36.2064 43.5983 32.5495C43.5983 28.3265 46.0808 25.1849 49.4803 25.1849C52.286 25.1849 54.0661 26.936 54.0661 29.6655C54.0585 30.7091 53.9134 31.7477 53.6343 32.7568H46.9445C46.9033 32.8739 46.885 32.9972 46.8905 33.1205C46.8905 34.5625 47.9161 35.2833 49.8582 35.2833C51.0761 35.3042 52.2806 35.0388 53.3657 34.5104L52.8259 37.6018V37.5963ZM50.9371 30.2316V29.614C50.965 29.4024 50.9427 29.1876 50.872 28.9854C50.8013 28.7831 50.684 28.5986 50.5287 28.4454C50.3733 28.2922 50.1839 28.1742 49.9745 28.1001C49.765 28.026 49.5408 27.9978 49.3184 28.0174C48.2387 28.0174 47.4836 28.7902 47.1591 30.2316H50.9365H50.9371ZM16.5652 37.8545H13.2197L15.1624 26.1632L10.7918 37.8545H8.47127L8.20136 26.2662L6.15136 37.8545H3.02173L5.6687 22.6615H10.5251L10.6858 32.0864L13.9246 22.6615H19.2128L16.569 37.8545H16.5652ZM24.9291 32.3434C24.6052 32.3434 24.4433 32.2925 24.1734 32.2925C22.2847 32.2925 21.3156 32.9593 21.3156 34.1976C21.2922 34.3563 21.3059 34.518 21.3557 34.671C21.4055 34.8241 21.4901 34.9647 21.6036 35.0828C21.717 35.201 21.8565 35.2937 22.0119 35.3543C22.1673 35.415 22.3348 35.442 22.5025 35.4336C23.9054 35.4336 24.877 34.1976 24.931 32.3422L24.9291 32.3434ZM27.411 37.8545H24.6046L24.6573 36.5665C24.2336 37.0708 23.6885 37.4701 23.0685 37.7302C22.4484 37.9904 21.7717 38.1037 21.0958 38.0606C19.2611 38.0606 18.0202 36.7216 18.0202 34.7129C18.0202 31.6749 20.1794 29.9243 23.9556 29.9243C24.3366 29.9243 24.8192 29.9758 25.3584 30.0267C25.4349 29.776 25.4713 29.5156 25.4664 29.2545C25.4664 28.4308 24.8726 28.1216 23.3071 28.1216C22.3619 28.1105 21.4191 28.2144 20.5014 28.4308L20.0156 28.5853L19.6917 28.6369L20.1775 25.8559C21.486 25.4554 22.8507 25.2469 24.2248 25.2376C27.1385 25.2376 28.7033 26.4735 28.7033 28.8423C28.6825 29.672 28.5923 30.4988 28.4334 31.3148L27.6777 35.693L27.5697 36.4646L27.5158 37.0829L27.4618 37.5472L27.4091 37.8551L27.411 37.8545ZM78.3493 32.3434C77.9683 32.3434 77.8095 32.2925 77.5942 32.2925C75.6516 32.2925 74.6793 32.9593 74.6793 34.1976C74.6619 34.3597 74.6817 34.5233 74.7372 34.6773C74.7927 34.8313 74.8826 34.972 75.0007 35.0895C75.1188 35.2071 75.2622 35.2987 75.4211 35.3582C75.58 35.4176 75.7505 35.4433 75.9208 35.4336C77.2703 35.4336 78.2947 34.1976 78.3493 32.3422V32.3434ZM80.8312 37.8545H78.0254L78.0788 36.5665C77.6553 37.0709 77.1104 37.4702 76.4904 37.7304C75.8704 37.9905 75.1937 38.1038 74.5179 38.0606C72.6832 38.0606 71.4417 36.7216 71.4417 34.7129C71.4417 31.6749 73.6009 29.9243 77.377 29.9243C77.7581 29.9243 78.2414 29.9758 78.7266 30.0267C78.8131 29.7765 78.8677 29.5172 78.8891 29.2545C78.8891 28.4308 78.2947 28.1216 76.7299 28.1216C75.7675 28.1109 74.8075 28.2147 73.8721 28.4308L73.4402 28.5853L73.1163 28.6369L73.6015 25.8559C74.9101 25.4554 76.2747 25.2469 77.6488 25.2376C80.5625 25.2376 82.0734 26.4735 82.0734 28.8423C82.0811 29.6735 81.9907 30.5029 81.8041 31.3148L81.1055 35.693L80.9976 36.4646L80.8896 37.0829L80.8363 37.5472V37.8551L80.8312 37.8545ZM89.8962 25.3909H89.5723C88.44 25.3909 87.7941 25.9062 86.7665 27.3991L87.0904 25.4934H84.0142L81.9635 37.8539H85.3065C86.5481 30.2831 86.872 28.9957 88.4908 28.9957H88.7067C88.9547 27.7572 89.3909 26.56 90.0016 25.4419L89.8936 25.3909H89.8962Z" fill="white"/>
</g>
<defs>
<clipPath id="clip0_22_172">
<rect width="104.41" height="60" fill="white"/>
</clipPath>
</defs>
</svg>
