<svg width="40" height="40" viewBox="0 0 40 40" fill="none" xmlns="http://www.w3.org/2000/svg">
<path fill-rule="evenodd" clip-rule="evenodd" d="M0 0H40V40H0V0Z" fill="white"/>
<path fill-rule="evenodd" clip-rule="evenodd" d="M16.6688 13.3755C16.8292 13.3755 16.9585 13.2452 16.9585 13.085C16.9595 13.0462 16.9528 13.0077 16.9387 12.9716C16.9246 12.9355 16.9034 12.9026 16.8763 12.8748C16.8493 12.8471 16.817 12.825 16.7813 12.8099C16.7456 12.7949 16.7072 12.7871 16.6685 12.7871C16.6297 12.7871 16.5914 12.7949 16.5557 12.8099C16.52 12.825 16.4876 12.8471 16.4606 12.8748C16.4336 12.9026 16.4124 12.9355 16.3983 12.9716C16.3842 13.0077 16.3774 13.0462 16.3785 13.085C16.3785 13.2452 16.5075 13.3755 16.6688 13.3755ZM20.1754 19.3289C20.6062 19.3289 20.8961 19.2708 21.1295 19.1847C21.3618 19.0984 21.5402 18.9944 21.6701 18.888C21.7934 18.7871 21.8716 18.6848 22.0032 18.6176C22.1192 18.5576 22.2825 18.5435 22.4657 18.5435C22.7289 18.5435 23.025 18.6248 23.2414 18.7439L23.2726 18.3412C23.1283 18.27 22.6199 18.0917 22.1783 18.0917C21.6766 18.0917 21.4869 18.227 21.3016 18.3943C21.086 18.5898 20.8135 18.8222 20.0768 18.8222C19.8805 18.8222 19.4094 18.7691 19.2181 18.7691C19.1019 18.7691 19.0127 18.7981 19.0127 18.7981C19.0477 18.9083 19.1229 19.2119 19.1229 19.2119C19.2993 19.2339 19.607 19.3289 20.1754 19.3289ZM17.9106 18.1345C18.0598 18.1345 18.4937 18.2007 18.9948 18.2488C19.2795 18.2756 19.5842 18.2967 19.8718 18.2967C20.4348 18.2967 21.0513 18.029 21.5965 17.7495L21.4898 17.3617C21.2352 17.5011 20.7506 17.6561 20.3468 17.7205C20.2474 17.7367 19.9587 17.7406 19.8766 17.7275C19.7404 17.7064 19.5771 17.6574 19.4016 17.6254C19.155 17.5792 18.8857 17.5682 18.7261 17.5611C18.5499 17.5532 18.2341 17.5831 18.0789 17.5933C17.5086 17.6273 17.1317 17.7616 16.7711 18.005C16.5889 18.1282 16.3563 18.3295 16.1768 18.5732C16.2691 18.58 16.5324 18.6535 16.5324 18.6535C16.9213 18.3227 17.5057 18.1345 17.9106 18.1345Z" fill="#2463A9"/>
<path fill-rule="evenodd" clip-rule="evenodd" d="M11.0389 18.3224C11.3166 18.3224 11.428 18.4125 11.5811 18.5046C11.6884 18.5708 11.7727 18.6438 11.8528 18.7163C12.0242 18.8694 11.9752 19.0099 11.8407 19.1159C11.7716 19.1709 11.7125 19.2371 11.5382 19.3504C11.4541 19.4058 11.3089 19.4949 11.2097 19.5368C11.0352 19.609 10.9592 19.6171 10.8959 19.6171C10.8318 19.6171 10.7297 19.6071 10.6724 19.5501L10.2286 19.8215C10.3618 19.9255 10.5131 19.9607 10.7677 19.9607C11.0553 19.9607 11.2848 19.8987 11.5683 19.7877C11.9358 19.6422 12.349 19.3564 12.4861 19.2782C12.7669 19.1178 13.0504 19.0136 13.354 19.0136C13.6214 19.0136 13.923 19.172 14.2608 19.3334C14.6596 19.5247 15.1467 19.7121 15.5945 19.7121C15.863 19.7121 16.1637 19.6729 16.4785 19.6088C17.0376 19.4947 17.6387 19.3062 18.2271 19.1068L18.0359 18.7634C17.8925 18.8163 17.4013 18.9545 16.8732 19.0719C16.4354 19.168 15.9913 19.255 15.7609 19.255C15.5727 19.255 15.3511 19.2413 15.1527 19.1801C14.8159 19.0788 14.5133 18.9725 14.5133 18.7019C14.5133 18.5148 14.5934 18.3824 14.8201 18.2913C15.1867 18.1439 15.758 18.1531 16.0585 18.1531C16.1147 18.0929 16.3422 17.8194 16.3422 17.8194C16.1014 17.7709 15.8564 17.7461 15.6107 17.7453C15.234 17.7453 14.886 17.7934 14.5976 17.9146C14.3301 18.0271 14.1197 18.1894 13.9674 18.4087C13.9062 18.4959 13.8431 18.5789 13.7511 18.5789C13.5986 18.5789 13.334 18.4546 13.0576 18.4546C12.9373 18.4546 12.8352 18.4795 12.7289 18.4795C12.4492 18.4795 12.0846 18.2761 11.7598 18.1028C11.5554 17.9937 11.345 17.8914 11.1005 17.8914C10.9993 17.8914 10.8602 17.9165 10.7368 17.9686C10.4994 18.0678 10.2586 18.2282 10.1375 18.3292L10.3549 18.4787C10.4817 18.4125 10.7125 18.3224 11.0389 18.3224ZM30.6716 21.4418C29.6263 20.5602 28.6151 19.5957 27.9021 18.8072C26.6707 17.4475 24.9931 14.8529 24.4202 13.3848C24.2085 12.8446 23.7717 13.028 23.9954 13.5773C24.5364 14.9042 25.784 16.8553 27.0865 18.4637C26.7829 18.3292 26.4065 18.1487 26.2029 18.0588C26.1336 18.1722 25.9622 18.3965 25.7858 18.5808C25.5816 18.7932 25.3712 18.9655 25.3061 19.0257C25.1627 19.1591 25.0577 19.1691 24.9612 19.0209C24.9174 18.9505 24.8242 18.8246 24.7759 18.6059L24.499 18.2554C24.3507 18.069 23.6557 17.1182 23.4428 16.7984C23.2305 16.4799 22.9551 16.1389 22.5089 16.1389C21.957 16.1389 21.7665 16.7503 21.7235 17.3083L22.09 17.1489C22.1755 16.8032 22.345 16.6228 22.5092 16.6228C22.6262 16.6228 22.7698 16.7932 22.7698 16.9204C22.7167 17.0698 22.6202 17.3784 22.5733 17.6168L22.9344 17.7393C22.9344 17.5637 23.008 17.245 23.1095 17.0798C23.1095 17.0798 23.2095 17.1649 23.2469 17.2342C23.2707 17.279 23.4492 17.5517 23.6559 17.9144C23.8404 18.2381 24.0454 18.638 24.2338 18.9566C24.3249 19.1099 24.4295 19.2473 24.4992 19.3554C24.5924 19.498 24.676 19.5978 24.7646 19.6482C24.8477 19.6941 24.9373 19.6953 25.0095 19.6953C25.243 19.6953 25.3501 19.6179 25.5084 19.483C25.8051 19.2272 26.0608 18.8717 26.3252 18.5529L26.9485 18.8343C27.1896 18.949 27.4328 19.0589 27.6782 19.1641C28.2096 19.7675 28.8046 20.3588 29.4288 20.9209L29.8527 21.2946C29.9683 21.3947 30.0841 21.4928 30.2018 21.5902L30.6716 21.4418Z" fill="#2463A9"/>
<path fill-rule="evenodd" clip-rule="evenodd" d="M33.0112 21.26C31.9435 18.9229 30.5368 16.0488 29.3334 14.2882L29.0524 13.8933C28.6507 13.3515 28.2159 12.9022 27.7899 12.4664L27.4591 12.1409C26.6253 11.333 25.6896 10.5253 24.9766 9.9499C24.3476 9.44315 23.9004 8.27441 22.4596 8.27441C21.161 8.27441 20.7169 9.15719 20.5716 9.67453C20.4751 10.014 20.4334 10.1313 20.3429 10.2587L19.5181 11.2409L20.4911 11.1626L19.9981 11.9813C20.2807 11.9223 21.9871 11.5795 22.338 12.1307C22.764 12.7972 22.4733 13.5206 23.2698 15.037L23.6142 15.6363C24.0106 16.2738 24.48 16.8998 24.8971 17.3939L24.4982 18.2547L24.7751 18.6052L25.3951 17.2976C25.0787 17.015 24.1314 15.7413 23.7398 15.0328C22.8497 13.4214 23.1994 12.5926 22.6563 11.8541C22.1533 11.1686 20.7146 11.4924 20.7146 11.4924L21.2452 10.748L20.3268 10.8601L20.7515 10.3492C20.842 10.217 20.863 10.1369 20.8999 10.0093C21.0802 9.35516 21.5532 8.70667 22.4511 8.70667C23.5414 8.70667 23.8531 9.54358 24.6109 10.2099C25.3781 10.8854 26.9868 12.184 28.4585 13.8634C29.6453 15.2173 31.1664 18.3649 32.3349 20.8493C31.0574 20.2267 28.8939 18.0864 27.9876 16.4829L27.5599 16.4329C28.533 18.2788 30.6212 20.428 32.6866 21.5982L33.0112 21.26Z" fill="#2463A9"/>
<path fill-rule="evenodd" clip-rule="evenodd" d="M30.0529 13.5454C30.3934 13.3007 30.7966 13.1013 31.2214 12.9401C31.4829 13.2567 32.0992 13.5342 32.5881 13.5994L32.5098 14.1167C31.9676 13.843 31.0091 13.5643 30.0529 13.5454L29.6241 13.9139C30.9215 13.938 31.7474 14.2007 32.8168 14.6506L33.0291 13.2848C32.6051 13.2267 31.9367 13.1055 31.7053 12.7768C32.6833 12.479 33.6983 12.3667 34.2976 12.375V10.6923C34.0301 10.8487 33.6933 10.995 33.3756 11.0934C32.9869 11.2125 32.6335 11.2648 32.5362 11.0934C32.4287 10.905 32.9649 10.5692 33.5175 10.2756L32.2737 9.24235C32.0853 9.49593 31.6572 10.2054 31.2208 10.6742C30.9107 11.0071 30.5914 11.2254 30.409 11.0892C30.3133 11.017 30.3096 10.8087 30.3886 10.5462C30.5399 10.0419 30.9377 9.34154 31.1801 9.03296L29.4608 8.87048C29.4608 9.57313 29.1309 10.3467 28.7248 10.972C28.3745 11.5101 27.8663 11.9013 27.4593 12.1416L27.7901 12.4671C28.2931 12.1175 28.7831 11.6896 29.162 11.0801C29.4668 10.5902 29.7501 9.99791 29.8563 9.30439L30.4517 9.3735C30.2041 9.82733 29.9244 10.5321 29.9032 10.993C29.9182 11.3065 29.9786 11.3625 30.14 11.4819C30.4386 11.7054 30.8084 11.5551 31.161 11.2534C31.5497 10.9216 31.9319 10.3654 32.3198 9.8622L32.8224 10.2814C32.1853 10.674 32.005 11.094 32.1994 11.3725C32.2751 11.4806 32.4389 11.562 32.642 11.568C32.8435 11.573 33.0822 11.5136 33.3428 11.4516C33.5261 11.4074 33.7246 11.3434 33.9079 11.2872V11.9567C32.46 12.06 29.9889 12.646 29.0528 13.8936L29.3338 14.2885C29.415 14.1553 29.5129 14.0308 29.6243 13.9135L30.0529 13.5454ZM11.1201 10.2565L11.3146 10.4026C11.8238 9.98774 12.419 9.23321 12.7547 8.52268L12.5812 8.39941C12.2565 8.6972 11.4818 9.66796 11.1201 10.2565Z" fill="#2463A9"/>
<path fill-rule="evenodd" clip-rule="evenodd" d="M10.8216 9.80233C10.536 8.79443 11.2684 8.19097 12.0331 8.247C12.3198 7.6948 12.7695 7.58461 13.2477 7.87119C13.6926 8.13888 13.6554 8.81912 13.2846 9.13787C13.417 9.74402 12.8789 10.6079 12.0432 10.565C12.1424 11.4017 11.116 11.8777 10.4939 11.3313C9.97678 10.8777 10.0849 10.1221 10.8216 9.80233ZM10.4678 9.64815C10.2024 9.70625 10.0639 9.83948 9.94566 10.1273C10.0249 9.4728 9.58997 8.84547 8.87342 8.89362C8.94356 7.72426 7.78521 7.02784 6.76091 7.59706C6.15579 7.07889 5.47929 7.1841 5.07235 7.66616C4.68346 8.12705 4.69653 8.90462 5.4824 9.31965C5.28381 10.1273 6.0236 10.93 6.8933 10.7434C6.94331 10.992 7.12572 11.1252 7.36623 11.2244C7.00453 11.2456 6.85616 11.6052 6.85616 11.6052C5.70278 11.3097 5.10762 12.0763 5.08832 12.8808C4.24664 13.1365 4.01111 14.1886 4.65565 14.8031C5.32199 15.4403 6.11678 15.1789 6.46333 14.5273C7.20686 14.8099 8.00268 14.3509 8.02343 13.5293C8.85225 13.6073 9.16996 12.9541 9.09277 12.2658L8.83005 12.2446C8.71695 12.8839 8.41315 13.1595 7.71963 13.1595C7.68954 13.7738 7.03317 14.3069 6.28964 14.1658C6.08108 14.6568 5.46891 14.817 5.05097 14.4063C4.63407 13.9954 4.77228 13.2228 5.50792 13.0834C5.47783 12.3299 6.2112 11.863 7.25853 11.913C7.55611 11.5442 7.79662 11.3878 8.24257 11.4309L8.24672 11.2166C7.82878 11.1603 7.35772 10.7644 7.32286 10.3388C6.43095 10.4097 5.82044 9.89862 5.85074 9.09698C5.27758 8.82846 5.38072 8.24015 5.56623 8.01686C5.88581 7.63109 6.33259 7.66201 6.69367 7.9737C7.71278 7.58398 8.5333 8.38852 8.5333 9.26736C8.5333 9.26736 9.00955 9.25822 9.27704 9.53692C9.63086 9.90671 9.63086 10.2284 9.7149 10.587C9.79417 10.9256 9.96454 11.3757 10.3804 11.7003C11.1158 12.2736 12.2555 12.1182 12.3717 10.9088C13.3506 10.9958 13.9941 10.2273 13.6714 9.28748C14.3568 8.79837 14.2205 7.79025 13.5762 7.40033C13.4315 7.3048 13.2679 7.24167 13.0966 7.21524C12.9252 7.18881 12.7502 7.19971 12.5835 7.24721C12.4168 7.2947 12.2623 7.37766 12.1306 7.49041C11.9989 7.60316 11.8932 7.74303 11.8206 7.90045C10.8174 7.6699 9.99982 8.67012 10.4678 9.64815ZM14.9933 15.5074C15.0815 15.1546 14.6164 15.1023 14.5523 15.4273C14.4842 15.7751 14.0613 16.3684 13.6606 16.74L13.8038 16.8944C14.3299 16.5014 14.8802 15.9575 14.9933 15.5074ZM17.3291 9.6801C17.4055 9.67724 17.4779 9.64485 17.531 9.58975C17.5841 9.53464 17.6137 9.46111 17.6137 9.3846C17.6137 9.30809 17.5841 9.23456 17.531 9.17946C17.4779 9.12435 17.4055 9.09196 17.3291 9.0891C17.1658 9.0891 17.0346 9.22232 17.0346 9.3846C17.0346 9.54792 17.1658 9.6801 17.3291 9.6801ZM21.6803 9.94967C21.6825 9.85822 21.7204 9.77126 21.7859 9.70736C21.8513 9.64347 21.9392 9.6077 22.0307 9.6077C22.1222 9.6077 22.21 9.64347 22.2755 9.70736C22.341 9.77126 22.3788 9.85822 22.3811 9.94967C22.3812 9.99578 22.3722 10.0415 22.3547 10.0841C22.3372 10.1267 22.3114 10.1655 22.2789 10.1982C22.2463 10.2308 22.2077 10.2568 22.1651 10.2745C22.1225 10.2922 22.0769 10.3014 22.0308 10.3014C21.8378 10.3014 21.6803 10.1441 21.6803 9.94967ZM21.125 16.2538C18.8444 16.0787 16.5737 16.2218 16.5737 16.2218L16.7337 15.8039C18.9143 15.6456 21.1571 15.8039 21.1571 15.8039L21.125 16.2538Z" fill="#2463A9"/>
<path fill-rule="evenodd" clip-rule="evenodd" d="M7.34308 17.841C7.34308 17.841 7.47236 18.0137 7.67386 18.2281C7.74213 18.3243 7.81705 18.3932 7.91209 18.4827C8.33024 18.8904 8.94531 19.1961 9.57969 19.3183C9.76002 19.3528 9.92043 19.3796 10.0989 19.3796C10.3695 19.3796 10.6187 19.2343 10.7781 19.0917L10.5297 18.802C10.4496 18.8259 10.2832 18.8259 10.173 18.8259C9.25306 18.8259 8.08578 18.2239 7.81705 17.5262C7.78986 17.4582 7.75791 17.4202 7.78509 17.3559C7.81103 17.2917 7.84527 17.1566 7.86415 17.0323C7.91832 17.0944 8.02934 17.1876 8.17066 17.2787C8.51347 17.4982 9.16487 17.8018 9.29207 17.8832C9.55896 17.8068 9.81745 17.7037 10.0636 17.5754C10.2549 17.4762 10.5166 17.387 10.8192 17.387C11.4915 17.387 12.2641 17.7696 12.9898 18.1274L13.4858 17.933C12.8414 17.4791 11.4407 16.8447 10.6611 16.8447C10.202 16.8447 9.76998 17.1815 9.46265 17.1815C9.08476 17.1815 8.00257 16.6534 8.00257 16.2135C8.00257 15.8748 8.70293 15.6822 9.82913 15.5438C9.63268 15.8336 9.44851 16.1315 9.27713 16.4368L9.56371 16.5961C11.3274 14.0377 13.1612 12.3765 14.7045 11.3653C15.2656 10.9974 15.3931 10.7822 15.5883 10.3802C16.0664 9.40218 16.5174 8.64952 17.302 8.64952C17.6676 8.64952 17.9673 8.856 18.1729 9.11062L18.7401 9.28099L18.1657 9.67071L18.7532 9.9052C17.9864 10.1206 16.9393 10.8672 16.5145 11.9625C15.6977 12.0057 15.3038 12.6681 15.0374 13.2232C14.8568 13.5971 14.5705 13.7463 14.1525 14.03L10.8125 16.3619L11.2724 16.426L14.3578 14.3556C14.9672 13.9449 15.2557 13.6422 15.4022 13.3493C15.6877 12.7762 15.9965 12.3504 16.6018 12.3504C16.8994 12.3504 17.2169 12.4776 17.4715 12.7191L18.0136 12.8955L17.4224 13.2572L17.9183 13.5631C16.5014 14.0072 15.6244 15.0232 15.1154 16.9651L15.4902 17.0494C15.6776 16.4071 15.8639 15.8169 16.1955 15.2956C17.0152 15.2867 17.8463 15.2566 18.6608 15.2566C20.8354 15.2566 22.641 15.3488 23.6151 15.6364L23.2706 15.0371C22.2286 14.8586 20.7163 14.7675 18.661 14.7675C17.9727 14.7675 17.274 14.7924 16.5807 14.8005C17.0287 14.3265 17.672 13.9267 18.6641 13.6191L17.9607 13.2313L18.7422 12.7963L17.677 12.3993C17.4906 12.2321 17.259 12.0787 16.9677 12.0044C17.3093 10.9552 18.4707 10.342 19.5851 9.9191L18.8046 9.59932L19.5911 9.16852L18.3796 8.7815C18.063 8.4088 17.7594 8.23926 17.2922 8.23926C16.1679 8.23926 15.695 9.21624 15.2501 10.0822C15.0145 10.5392 14.8672 10.7315 14.4684 10.9922C13.6034 11.5583 12.5021 12.424 11.4502 13.5334C10.9009 13.1368 9.77745 11.976 9.47406 11.3429C9.35371 11.4921 9.23459 11.817 9.23459 11.817C9.34997 11.938 10.6716 13.2759 11.1635 13.843C11.1263 13.8841 11.0896 13.9252 11.0524 13.9673C10.5282 14.0715 9.16756 14.2029 8.70439 14.1398L8.44395 14.6019C8.78947 14.5679 10.1425 14.4083 10.7036 14.3753C10.5316 14.5842 10.3649 14.7974 10.2035 15.0147C8.46491 15.213 7.30241 15.5698 7.30241 16.2133C7.30241 16.3195 7.34536 16.4397 7.34536 16.5528C7.34536 16.8223 7.2441 16.9217 7.05277 17.0419C6.92846 17.1212 6.92037 17.1753 6.9737 17.2494C7.26215 17.7155 6.3663 17.9469 6.99051 18.7807L7.51968 18.8126C7.51947 18.8128 7.00338 18.5126 7.34308 17.841ZM6.65724 8.58415L6.485 8.76054C6.73257 9.11435 7.82888 10.0965 8.38481 10.4613L8.58922 10.2078C8.22461 9.77882 7.18827 8.85392 6.65724 8.58415ZM5.90063 13.5349L6.06291 13.7121C6.48085 13.5098 7.2663 12.9285 7.69129 12.4927L7.57425 12.3192C7.07497 12.5278 6.30342 13.0989 5.90063 13.5349Z" fill="#2463A9"/>
<path fill-rule="evenodd" clip-rule="evenodd" d="M30.1114 20.7758C30.1115 20.7033 30.0973 20.6314 30.0696 20.5644C30.0419 20.4973 30.0012 20.4364 29.95 20.3851C29.8987 20.3337 29.8378 20.293 29.7708 20.2652C29.7038 20.2374 29.632 20.2231 29.5594 20.223L28.742 20.2226C28.6694 20.2227 28.5974 20.2372 28.5304 20.2651C28.4633 20.2931 28.4024 20.334 28.3511 20.3855C28.2999 20.437 28.2592 20.4981 28.2316 20.5653C28.204 20.6324 28.1898 20.7044 28.19 20.7771L28.1904 29.3278C28.1903 29.4004 28.2044 29.4723 28.2321 29.5394C28.2598 29.6065 28.3004 29.6675 28.3517 29.7189C28.4029 29.7703 28.4638 29.8111 28.5309 29.8389C28.598 29.8667 28.6698 29.881 28.7424 29.881H29.5598C29.6324 29.8809 29.7043 29.8664 29.7713 29.8385C29.8383 29.8105 29.8992 29.7697 29.9504 29.7182C30.0016 29.6668 30.0422 29.6058 30.0698 29.5386C30.0974 29.4715 30.1116 29.3996 30.1114 29.327V20.7758ZM31.1534 21.0033V21.4098C31.1535 21.4499 31.1615 21.4895 31.177 21.5265C31.1924 21.5634 31.215 21.597 31.2434 21.6252C31.2719 21.6534 31.3056 21.6758 31.3426 21.691C31.3797 21.7062 31.4194 21.714 31.4594 21.7138H37.1001C37.357 21.7138 37.5658 21.5063 37.5658 21.249V20.5604C37.5658 20.3035 37.3546 20.0705 37.0989 20.0956C37.0989 20.0956 31.6468 20.6306 31.4709 20.6505C31.2677 20.6729 31.1534 20.835 31.1534 21.0033ZM26.5872 29.8815C25.1839 29.8815 24.3007 28.8175 24.3007 27.6328L24.2995 24.2117H23.8978C23.8469 24.2118 23.7965 24.2018 23.7495 24.1824C23.7025 24.163 23.6597 24.1345 23.6238 24.0985C23.5878 24.0626 23.5592 24.0199 23.5398 23.9729C23.5203 23.9259 23.5103 23.8755 23.5103 23.8247V23.2519C23.5103 23.038 23.6846 22.8662 23.8982 22.8662L24.2995 22.8666L24.2987 20.763C24.2985 20.6922 24.3124 20.6221 24.3394 20.5567C24.3664 20.4913 24.406 20.4318 24.456 20.3818C24.506 20.3317 24.5654 20.2919 24.6307 20.2649C24.6961 20.2378 24.7662 20.2238 24.837 20.2239H25.6342C25.7773 20.2243 25.9143 20.2815 26.0152 20.3828C26.1161 20.4842 26.1727 20.6214 26.1725 20.7644L26.173 22.8664H27.416C27.6304 22.8664 27.8047 23.0386 27.8047 23.2526V23.8253C27.8046 23.8761 27.7946 23.9264 27.7751 23.9733C27.7556 24.0203 27.727 24.0629 27.691 24.0988C27.6551 24.1346 27.6124 24.163 27.5654 24.1824C27.5184 24.2017 27.468 24.2116 27.4172 24.2115H26.173L26.1738 27.3761C26.1738 27.9974 26.5502 28.4214 27.2236 28.4214L27.3367 28.4205C27.5689 28.4205 27.7578 28.6077 27.7578 28.8399V29.4616C27.7578 29.5168 27.7469 29.5715 27.7258 29.6225C27.7046 29.6734 27.6736 29.7197 27.6346 29.7587C27.5955 29.7977 27.5491 29.8285 27.498 29.8495C27.447 29.8705 27.3923 29.8812 27.3371 29.881H26.5872V29.8815ZM13.4464 22.62C11.178 22.62 9.90576 24.3953 9.90576 26.2657C9.90576 28.2589 11.2685 30.0143 13.4611 30.0143C14.9619 30.0143 16.4413 29.2234 16.7208 27.9246C16.7586 27.7494 16.6405 27.5197 16.3936 27.5189H15.3213C15.1267 27.5189 14.9675 27.6121 14.8716 27.7528C14.5649 28.2026 14.1152 28.4421 13.4506 28.4421C12.5113 28.4421 11.8601 27.7021 11.8112 26.8814H16.3718C16.7918 26.8814 16.9794 26.6535 16.9794 26.2653C16.9798 24.4414 15.9001 22.62 13.4464 22.62ZM13.4464 24.0841C14.2837 24.0841 15.0065 24.6799 15.0798 25.4861H11.8255C11.8985 24.6799 12.6091 24.0841 13.4464 24.0841ZM34.2275 22.62C31.9593 22.62 30.6871 24.3953 30.6871 26.2657C30.6871 28.2589 32.05 30.0143 34.2424 30.0143C35.7432 30.0143 37.2226 29.2234 37.5023 27.9246C37.5401 27.7494 37.422 27.5197 37.1753 27.5189H36.1028C35.9082 27.5189 35.749 27.6121 35.6529 27.7528C35.3464 28.2026 34.8965 28.4421 34.2319 28.4421C33.2928 28.4421 32.6419 27.7021 32.5925 26.8814H37.1535C37.5733 26.8814 37.7611 26.6535 37.7611 26.2653C37.7611 24.4414 36.6814 22.62 34.2275 22.62ZM34.2275 24.0841C35.0652 24.0841 35.788 24.6799 35.8613 25.4861H32.6066C32.6796 24.6799 33.3902 24.0841 34.2275 24.0841Z" fill="white"/>
<path fill-rule="evenodd" clip-rule="evenodd" d="M22.7656 20.3196H7.99312C7.91332 20.3196 7.83431 20.3353 7.7606 20.3659C7.68689 20.3964 7.61993 20.4412 7.56355 20.4977C7.50717 20.5542 7.46248 20.6212 7.43204 20.695C7.4016 20.7687 7.386 20.8478 7.38613 20.9276L7.43698 26.7295C7.43698 26.7295 4.25368 20.9799 4.08766 20.6865C3.93182 20.4105 3.59668 20.1563 3.13288 20.1563H1.91808C1.8382 20.1562 1.7591 20.172 1.68531 20.2026C1.61151 20.2332 1.54446 20.278 1.488 20.3345C1.43153 20.391 1.38675 20.4581 1.35622 20.5319C1.32569 20.6057 1.31 20.6848 1.31006 20.7647L1.31068 29.2733C1.31063 29.3531 1.3263 29.4322 1.35681 29.506C1.38731 29.5798 1.43205 29.6468 1.48847 29.7033C1.5449 29.7598 1.61189 29.8047 1.68564 29.8353C1.75939 29.8659 1.83844 29.8817 1.91829 29.8817H2.69751C2.8589 29.8813 3.01353 29.8169 3.12739 29.7025C3.24126 29.5881 3.30504 29.4332 3.3047 29.2718L3.25573 23.3074C3.25573 23.3074 6.46974 29.1145 6.60733 29.3432C6.79264 29.6524 7.1064 29.8819 7.56128 29.8819H8.6773C8.75714 29.8819 8.83618 29.8661 8.90992 29.8355C8.98365 29.8049 9.05064 29.76 9.10704 29.7035C9.16345 29.647 9.20817 29.58 9.23865 29.5062C9.26913 29.4324 9.28478 29.3533 9.2847 29.2735L9.28429 21.7616L22.7664 21.762C22.8209 21.7622 22.8749 21.7516 22.9254 21.7308C22.9758 21.7101 23.0216 21.6796 23.0602 21.6412C23.0989 21.6027 23.1295 21.557 23.1505 21.5066C23.1714 21.4563 23.1822 21.4023 23.1823 21.3478V20.7342C23.1819 20.624 23.1379 20.5184 23.0597 20.4406C22.9816 20.3629 22.8758 20.3193 22.7656 20.3196Z" fill="white"/>
<path fill-rule="evenodd" clip-rule="evenodd" d="M20.3747 24.013C21.0172 24.013 21.4974 24.2461 21.6704 24.6484C21.7534 24.8418 21.9145 24.879 22.1357 24.879H23.0189C23.1648 24.879 23.3326 24.7534 23.3326 24.5625C23.3326 23.5359 22.1083 22.6191 20.3734 22.6191C18.5799 22.6191 17.4018 23.4735 17.4018 24.835C17.4018 25.8763 18.2248 26.496 19.2365 26.7605C19.6976 26.8809 20.4849 27.0756 20.8682 27.1764C21.2815 27.2845 21.6511 27.4111 21.6511 27.7649C21.6511 28.3238 21.0622 28.5138 20.4189 28.5138C19.8094 28.5138 19.2024 28.2418 19.0283 27.807C18.9277 27.5553 18.7511 27.5188 18.4834 27.5188H17.5851C17.4284 27.5188 17.248 27.6533 17.248 27.8577V27.9737C17.248 28.9675 18.5813 30.0084 20.4206 30.0084C21.7248 30.0084 23.5418 29.4661 23.5418 27.7172C23.5418 26.7043 22.8641 26.0031 21.7613 25.7228C21.3301 25.6134 20.2933 25.3498 20.0678 25.2915C19.6658 25.1874 19.2906 25.0564 19.2906 24.7119C19.2908 24.19 19.7731 24.013 20.3747 24.013Z" fill="white"/>
<path fill-rule="evenodd" clip-rule="evenodd" d="M30.1114 20.7758C30.1115 20.7033 30.0973 20.6314 30.0696 20.5644C30.0419 20.4973 30.0013 20.4364 29.95 20.3851C29.8987 20.3337 29.8379 20.293 29.7709 20.2652C29.7038 20.2374 29.632 20.2231 29.5595 20.223L28.742 20.2226C28.6694 20.2227 28.5975 20.2372 28.5304 20.2651C28.4633 20.2931 28.4024 20.334 28.3511 20.3855C28.2999 20.437 28.2593 20.4981 28.2316 20.5653C28.204 20.6324 28.1899 20.7044 28.1901 20.7771L28.1905 29.3278C28.1903 29.4004 28.2045 29.4723 28.2321 29.5394C28.2598 29.6065 28.3004 29.6675 28.3517 29.7189C28.403 29.7703 28.4639 29.8111 28.5309 29.8389C28.598 29.8667 28.6699 29.881 28.7425 29.881H29.5599C29.6325 29.8809 29.7043 29.8664 29.7713 29.8385C29.8383 29.8105 29.8992 29.7697 29.9504 29.7182C30.0016 29.6668 30.0422 29.6058 30.0698 29.5386C30.0975 29.4715 30.1116 29.3996 30.1114 29.327V20.7758ZM31.1534 21.0033V21.4098C31.1535 21.4499 31.1615 21.4895 31.177 21.5265C31.1925 21.5634 31.215 21.597 31.2435 21.6252C31.2719 21.6534 31.3056 21.6758 31.3427 21.691C31.3797 21.7062 31.4194 21.714 31.4595 21.7138H37.1002C37.3571 21.7138 37.5658 21.5063 37.5658 21.249V20.5604C37.5658 20.3035 37.3546 20.0705 37.0989 20.0956C37.0989 20.0956 31.6469 20.6306 31.4709 20.6505C31.2677 20.6729 31.1534 20.835 31.1534 21.0033ZM26.5872 29.8815C25.184 29.8815 24.3008 28.8175 24.3008 27.6328L24.2995 24.2117H23.8978C23.8469 24.2118 23.7965 24.2018 23.7495 24.1824C23.7025 24.163 23.6598 24.1345 23.6238 24.0985C23.5878 24.0626 23.5593 24.0199 23.5398 23.9729C23.5203 23.9259 23.5103 23.8755 23.5104 23.8247V23.2519C23.5104 23.038 23.6847 22.8662 23.8982 22.8662L24.2995 22.8666L24.2987 20.763C24.2986 20.6922 24.3124 20.6221 24.3394 20.5567C24.3664 20.4913 24.406 20.4318 24.456 20.3818C24.506 20.3317 24.5654 20.2919 24.6308 20.2649C24.6962 20.2378 24.7662 20.2238 24.837 20.2239H25.6343C25.7773 20.2243 25.9143 20.2815 26.0152 20.3828C26.1162 20.4842 26.1727 20.6214 26.1726 20.7644L26.173 22.8664H27.416C27.6304 22.8664 27.8047 23.0386 27.8047 23.2526V23.8253C27.8047 23.8761 27.7946 23.9264 27.7751 23.9733C27.7556 24.0203 27.7271 24.0629 27.6911 24.0988C27.6551 24.1346 27.6124 24.163 27.5654 24.1824C27.5184 24.2017 27.4681 24.2116 27.4173 24.2115H26.173L26.1738 27.3761C26.1738 27.9974 26.5503 28.4214 27.2236 28.4214L27.3367 28.4205C27.569 28.4205 27.7578 28.6077 27.7578 28.8399V29.4616C27.7578 29.5168 27.747 29.5715 27.7258 29.6225C27.7047 29.6734 27.6737 29.7197 27.6346 29.7587C27.5955 29.7977 27.5491 29.8285 27.4981 29.8495C27.447 29.8705 27.3923 29.8812 27.3372 29.881H26.5872V29.8815ZM16.9798 26.2653C16.9798 24.4414 15.9001 22.62 13.4466 22.62C11.1783 22.62 9.90601 24.3953 9.90601 26.2657C9.90601 28.2589 11.2688 30.0143 13.4614 30.0143C14.9621 30.0143 16.4415 29.2234 16.721 27.9246C16.7588 27.7494 16.6407 27.5197 16.3938 27.5189H15.3216C15.1269 27.5189 14.9677 27.6121 14.8719 27.7528C14.5652 28.2026 14.1155 28.4421 13.4508 28.4421C12.5116 28.4421 11.8604 27.7021 11.8114 26.8814H16.372C16.792 26.8814 16.9798 26.6535 16.9798 26.2653ZM11.8255 25.4858C11.8988 24.6796 12.6091 24.0839 13.4466 24.0839C14.284 24.0839 15.0068 24.6796 15.08 25.4858H11.8255ZM37.7611 26.2653C37.7611 24.4414 36.6814 22.62 34.2277 22.62C31.9596 22.62 30.6873 24.3953 30.6873 26.2657C30.6873 28.2589 32.0503 30.0143 34.2427 30.0143C35.7434 30.0143 37.2228 29.2234 37.5025 27.9246C37.5403 27.7494 37.4222 27.5197 37.1755 27.5189H36.1031C35.9084 27.5189 35.7492 27.6121 35.6532 27.7528C35.3467 28.2026 34.8968 28.4421 34.2321 28.4421C33.2931 28.4421 32.6421 27.7021 32.5927 26.8814H37.1537C37.5733 26.8814 37.7611 26.6535 37.7611 26.2653ZM32.6068 25.4858C32.6799 24.6796 33.3902 24.0839 34.2277 24.0839C35.0655 24.0839 35.7883 24.6796 35.8615 25.4858H32.6068Z" fill="#2463A9"/>
<path fill-rule="evenodd" clip-rule="evenodd" d="M22.7656 20.3196H7.99312C7.91332 20.3196 7.83431 20.3353 7.7606 20.3659C7.68689 20.3964 7.61993 20.4412 7.56355 20.4977C7.50717 20.5542 7.46248 20.6212 7.43204 20.695C7.4016 20.7687 7.386 20.8478 7.38613 20.9276L7.43698 26.7295C7.43698 26.7295 4.25368 20.9799 4.08766 20.6865C3.93182 20.4105 3.59668 20.1563 3.13288 20.1563H1.91808C1.8382 20.1562 1.7591 20.172 1.68531 20.2026C1.61151 20.2332 1.54446 20.278 1.488 20.3345C1.43153 20.391 1.38675 20.4581 1.35622 20.5319C1.32569 20.6057 1.31 20.6848 1.31006 20.7647L1.31068 29.2733C1.31063 29.3531 1.3263 29.4322 1.35681 29.506C1.38731 29.5798 1.43205 29.6468 1.48847 29.7033C1.5449 29.7598 1.61189 29.8047 1.68564 29.8353C1.75939 29.8659 1.83844 29.8817 1.91829 29.8817H2.69751C2.8589 29.8813 3.01353 29.8169 3.12739 29.7025C3.24126 29.5881 3.30504 29.4332 3.3047 29.2718L3.25573 23.3074C3.25573 23.3074 6.46974 29.1145 6.60733 29.3432C6.79264 29.6524 7.1064 29.8819 7.56128 29.8819H8.6773C8.75714 29.8819 8.83618 29.8661 8.90992 29.8355C8.98365 29.8049 9.05064 29.76 9.10704 29.7035C9.16345 29.647 9.20817 29.58 9.23865 29.5062C9.26913 29.4324 9.28478 29.3533 9.2847 29.2735L9.28429 21.7616L22.7664 21.762C22.8209 21.7622 22.8749 21.7516 22.9254 21.7308C22.9758 21.7101 23.0216 21.6796 23.0602 21.6412C23.0989 21.6027 23.1295 21.557 23.1505 21.5066C23.1714 21.4563 23.1822 21.4023 23.1823 21.3478V20.7342C23.1819 20.624 23.1379 20.5184 23.0597 20.4406C22.9816 20.3629 22.8758 20.3193 22.7656 20.3196Z" fill="#2463A9"/>
<path fill-rule="evenodd" clip-rule="evenodd" d="M20.3747 24.013C21.0172 24.013 21.4974 24.2461 21.6704 24.6484C21.7534 24.8418 21.9145 24.879 22.1357 24.879H23.0189C23.1647 24.879 23.3326 24.7534 23.3326 24.5625C23.3326 23.5359 22.1083 22.6191 20.3734 22.6191C18.5799 22.6191 17.4018 23.4735 17.4018 24.835C17.4018 25.8763 18.2248 26.496 19.2365 26.7605C19.6976 26.8809 20.4849 27.0756 20.8682 27.1764C21.2815 27.2845 21.6511 27.4111 21.6511 27.7649C21.6511 28.3238 21.0622 28.5138 20.4189 28.5138C19.8094 28.5138 19.2024 28.2418 19.0283 27.807C18.9277 27.5553 18.7511 27.5188 18.4834 27.5188H17.5851C17.4284 27.5188 17.248 27.6533 17.248 27.8577V27.9737C17.248 28.9675 18.5813 30.0084 20.4206 30.0084C21.7248 30.0084 23.5418 29.4661 23.5418 27.7172C23.5418 26.7043 22.8641 26.0031 21.7613 25.7228C21.3301 25.6134 20.2933 25.3498 20.0678 25.2915C19.6658 25.1874 19.2906 25.0564 19.2906 24.7119C19.2908 24.19 19.7731 24.013 20.3747 24.013ZM38.3946 29.522H38.1943V28.5856H38.5442C38.7857 28.5856 38.9285 28.6545 38.9285 28.8685C38.9285 29.0407 38.8272 29.1032 38.7031 29.1125L38.9422 29.522H38.705L38.489 29.1285H38.3946V29.522ZM38.5716 28.97C38.6616 28.97 38.7144 28.9513 38.7144 28.8475C38.7144 28.751 38.6106 28.7442 38.5353 28.7442H38.3946V28.97H38.5716ZM38.5392 29.9243C38.0771 29.9243 37.6649 29.6046 37.6649 29.0546C37.6649 28.5051 38.0771 28.1853 38.5392 28.1853C38.9997 28.1853 39.4118 28.5051 39.4118 29.0546C39.4118 29.6046 38.9997 29.9243 38.5392 29.9243ZM38.5392 28.3875C38.1943 28.3875 37.9158 28.6545 37.9158 29.0546C37.9158 29.4551 38.1943 29.7247 38.5392 29.7222V29.7247C38.8756 29.7247 39.1605 29.4551 39.1605 29.0546C39.1605 28.6545 38.8756 28.3875 38.5392 28.3875Z" fill="#2463A9"/>
</svg>
