<svg width="60" height="60" viewBox="0 0 60 60" fill="none" xmlns="http://www.w3.org/2000/svg">
<path fill-rule="evenodd" clip-rule="evenodd" d="M0 0H60V60H0V0Z" fill="white"/>
<path fill-rule="evenodd" clip-rule="evenodd" d="M25.0032 20.0635C25.2438 20.0635 25.4377 19.868 25.4377 19.6277C25.4393 19.5696 25.4292 19.5118 25.408 19.4576C25.3868 19.4035 25.355 19.3542 25.3145 19.3125C25.2739 19.2709 25.2255 19.2378 25.1719 19.2152C25.1184 19.1926 25.0608 19.1809 25.0027 19.1809C24.9446 19.1809 24.887 19.1926 24.8335 19.2152C24.7799 19.2378 24.7315 19.2709 24.6909 19.3125C24.6504 19.3542 24.6186 19.4035 24.5974 19.4576C24.5762 19.5118 24.5661 19.5696 24.5677 19.6277C24.5677 19.868 24.7613 20.0635 25.0032 20.0635ZM30.2631 28.9936C30.9093 28.9936 31.3441 28.9065 31.6943 28.7773C32.0426 28.6478 32.3103 28.4919 32.5052 28.3322C32.6901 28.1809 32.8074 28.0274 33.0048 27.9266C33.1788 27.8366 33.4238 27.8155 33.6986 27.8155C34.0933 27.8155 34.5375 27.9375 34.8622 28.1162L34.9089 27.512C34.6925 27.4052 33.9299 27.1378 33.2675 27.1378C32.5148 27.1378 32.2303 27.3408 31.9524 27.5917C31.629 27.8849 31.2203 28.2335 30.1152 28.2335C29.8208 28.2335 29.1142 28.1538 28.8272 28.1538C28.6529 28.1538 28.519 28.1974 28.519 28.1974C28.5716 28.3627 28.6843 28.8181 28.6843 28.8181C28.9489 28.8511 29.4105 28.9936 30.2631 28.9936ZM26.8658 27.2019C27.0896 27.2019 27.7405 27.3012 28.4922 27.3735C28.9193 27.4136 29.3763 27.4454 29.8077 27.4454C30.6522 27.4454 31.577 27.0438 32.3947 26.6245L32.2347 26.0428C31.8528 26.2519 31.1259 26.4845 30.5202 26.581C30.3711 26.6052 29.9381 26.6111 29.8148 26.5915C29.6106 26.5598 29.3657 26.4863 29.1023 26.4384C28.7325 26.369 28.3285 26.3525 28.0891 26.3419C27.8249 26.3301 27.3511 26.3749 27.1183 26.3901C26.2629 26.4412 25.6976 26.6426 25.1566 27.0077C24.8833 27.1926 24.5344 27.4945 24.2651 27.86C24.4037 27.8703 24.7987 27.9804 24.7987 27.9804C25.382 27.4843 26.2585 27.2019 26.8658 27.2019Z" fill="#2463A9"/>
<path fill-rule="evenodd" clip-rule="evenodd" d="M16.5582 27.483C16.9747 27.483 17.1419 27.6181 17.3716 27.7563C17.5325 27.8556 17.6589 27.9652 17.779 28.0738C18.0362 28.3036 17.9627 28.5143 17.761 28.6734C17.6573 28.7558 17.5686 28.8551 17.3072 29.0251C17.1811 29.1082 16.9632 29.2417 16.8144 29.3046C16.5526 29.4129 16.4387 29.4251 16.3438 29.4251C16.2476 29.4251 16.0944 29.4101 16.0085 29.3245L15.3427 29.7317C15.5425 29.8876 15.7695 29.9406 16.1514 29.9406C16.5828 29.9406 16.9271 29.8475 17.3523 29.6809C17.9036 29.4627 18.5233 29.0341 18.7291 28.9168C19.1502 28.6762 19.5754 28.5199 20.0308 28.5199C20.432 28.5199 20.8843 28.7574 21.3911 28.9996C21.9893 29.2866 22.7199 29.5676 23.3916 29.5676C23.7944 29.5676 24.2455 29.5088 24.7177 29.4126C25.5562 29.2414 26.458 28.9588 27.3405 28.6597L27.0538 28.1445C26.8387 28.2239 26.1019 28.4312 25.3097 28.6074C24.6529 28.7515 23.9868 28.8819 23.6413 28.8819C23.359 28.8819 23.0265 28.8614 22.7289 28.7695C22.2237 28.6176 21.7699 28.4583 21.7699 28.0524C21.7699 27.7716 21.89 27.573 22.23 27.4363C22.78 27.2153 23.6369 27.229 24.0876 27.229C24.172 27.1388 24.5132 26.7285 24.5132 26.7285C24.1519 26.6558 23.7844 26.6185 23.4159 26.6174C22.851 26.6174 22.3289 26.6896 21.8963 26.8714C21.495 27.0401 21.1794 27.2835 20.9509 27.6125C20.8591 27.7433 20.7645 27.8678 20.6266 27.8678C20.3978 27.8678 20.0009 27.6813 19.5863 27.6813C19.4058 27.6813 19.2526 27.7187 19.0932 27.7187C18.6737 27.7187 18.1267 27.4136 17.6396 27.1537C17.333 26.99 17.0174 26.8365 16.6507 26.8365C16.4988 26.8365 16.2902 26.8742 16.105 26.9523C15.7489 27.1011 15.3878 27.3417 15.2061 27.4933L15.5323 27.7174C15.7225 27.6181 16.0686 27.483 16.5582 27.483ZM46.0073 32.1621C44.4394 30.8398 42.9225 29.393 41.853 28.2102C40.0059 26.1707 37.4896 22.2788 36.6301 20.0766C36.3126 19.2663 35.6574 19.5415 35.993 20.3654C36.8044 22.3557 38.6758 25.2823 40.6297 27.695C40.1743 27.4933 39.6097 27.2225 39.3043 27.0877C39.2003 27.2577 38.9432 27.5942 38.6786 27.8706C38.3723 28.1893 38.0567 28.4477 37.959 28.538C37.7439 28.7381 37.5864 28.753 37.4416 28.5308C37.3759 28.4253 37.2362 28.2363 37.1637 27.9082L36.7484 27.3825C36.5259 27.103 35.4834 25.6767 35.164 25.197C34.8456 24.7192 34.4325 24.2078 33.7633 24.2078C32.9353 24.2078 32.6496 25.1248 32.5851 25.9618L33.1348 25.7228C33.2631 25.2042 33.5174 24.9337 33.7636 24.9337C33.9392 24.9337 34.1546 25.1893 34.1546 25.3801C34.0749 25.6042 33.9301 26.0671 33.8598 26.4247L34.4014 26.6084C34.4014 26.345 34.5119 25.8669 34.6641 25.6191C34.6641 25.6191 34.8142 25.7468 34.8702 25.8507C34.906 25.918 35.1737 26.327 35.4837 26.8711C35.7604 27.3567 36.068 27.9565 36.3506 28.4343C36.4873 28.6643 36.6441 28.8704 36.7487 29.0326C36.8885 29.2464 37.0139 29.3961 37.1468 29.4718C37.2714 29.5406 37.4058 29.5424 37.5142 29.5424C37.8643 29.5424 38.025 29.4263 38.2625 29.224C38.7076 28.8402 39.0911 28.307 39.4876 27.8289L40.4227 28.251C40.7843 28.423 41.1491 28.5879 41.5171 28.7456C42.3143 29.6508 43.2067 30.5376 44.1431 31.3808L44.779 31.9414C44.9524 32.0915 45.1261 32.2387 45.3025 32.3847L46.0073 32.1621Z" fill="#2463A9"/>
<path fill-rule="evenodd" clip-rule="evenodd" d="M49.517 31.8904C47.9155 28.3848 45.8054 24.0737 44.0003 21.4328L43.5788 20.8405C42.9762 20.0277 42.3241 19.3538 41.6851 18.7001L41.1889 18.2117C39.9382 17 38.5346 15.7885 37.4651 14.9253C36.5216 14.1652 35.8508 12.4121 33.6897 12.4121C31.7417 12.4121 31.0756 13.7362 30.8577 14.5122C30.7129 15.0215 30.6504 15.1974 30.5147 15.3885L29.2773 16.8617L30.7369 16.7444L29.9973 17.9724C30.4213 17.884 32.9809 17.3697 33.5073 18.1965C34.1463 19.1963 33.7102 20.2814 34.9049 22.5559L35.4216 23.4548C36.0161 24.4111 36.7202 25.3502 37.3459 26.0913L36.7476 27.3825L37.1629 27.9082L38.0929 25.9469C37.6183 25.523 36.1973 23.6124 35.6099 22.5497C34.2749 20.1326 34.7994 18.8894 33.9847 17.7816C33.2302 16.7534 31.0722 17.239 31.0722 17.239L31.8681 16.1225L30.4904 16.2906L31.1276 15.5242C31.2633 15.3259 31.2947 15.2058 31.3501 15.0143C31.6206 14.0332 32.33 13.0605 33.6769 13.0605C35.3123 13.0605 35.7799 14.3158 36.9166 15.3153C38.0674 16.3285 40.4804 18.2765 42.688 20.7956C44.4682 22.8264 46.7498 27.5478 48.5026 31.2744C46.5864 30.3405 43.341 27.1301 41.9817 24.7248L41.3402 24.6498C42.7997 27.4186 45.9321 30.6425 49.0302 32.3978L49.517 31.8904Z" fill="#2463A9"/>
<path fill-rule="evenodd" clip-rule="evenodd" d="M45.0793 20.3175C45.5901 19.9505 46.1949 19.6514 46.8321 19.4095C47.2243 19.8845 48.1488 20.3007 48.8821 20.3984L48.7648 21.1744C47.9514 20.7639 46.5136 20.3458 45.0793 20.3175L44.4362 20.8703C46.3823 20.9064 47.6212 21.3005 49.2252 21.9753L49.5436 19.9265C48.9076 19.8394 47.905 19.6576 47.558 19.1645C49.025 18.7179 50.5474 18.5495 51.4464 18.5619V16.0378C51.0452 16.2725 50.54 16.4919 50.0634 16.6395C49.4804 16.8181 48.9503 16.8966 48.8043 16.6395C48.6431 16.3568 49.4474 15.8532 50.2763 15.4127L48.4105 13.8629C48.1279 14.2433 47.4857 15.3075 46.8311 16.0107C46.3661 16.51 45.887 16.8374 45.6134 16.6332C45.4699 16.5249 45.4643 16.2124 45.5829 15.8186C45.8098 15.0622 46.4066 14.0117 46.7701 13.5488L44.1912 13.3051C44.1912 14.3591 43.6963 15.5195 43.0871 16.4574C42.5617 17.2645 41.7994 17.8513 41.189 18.2117L41.6852 18.7001C42.4397 18.1756 43.1746 17.5338 43.743 16.6196C44.2003 15.8846 44.6251 14.9963 44.7845 13.956L45.6776 14.0596C45.3062 14.7404 44.8866 15.7975 44.8549 16.4888C44.8773 16.9592 44.9679 17.0432 45.21 17.2222C45.6579 17.5574 46.2126 17.3321 46.7415 16.8795C47.3245 16.3817 47.8979 15.5475 48.4796 14.7927L49.2336 15.4215C48.2779 16.0104 48.0074 16.6404 48.2991 17.0581C48.4127 17.2203 48.6583 17.3423 48.9631 17.3514C49.2653 17.3588 49.6233 17.2698 50.0142 17.1767C50.2891 17.1104 50.587 17.0146 50.8618 16.9302V17.9344C48.6901 18.0894 44.9834 18.9684 43.5793 20.8398L44.0007 21.4322C44.1224 21.2323 44.2694 21.0456 44.4365 20.8697L45.0793 20.3175ZM16.6802 15.3841L16.9718 15.6032C17.7357 14.981 18.6284 13.8492 19.1321 12.7834L18.8719 12.5985C18.3847 13.0452 17.2227 14.5013 16.6802 15.3841Z" fill="#2463A9"/>
<path fill-rule="evenodd" clip-rule="evenodd" d="M16.2323 14.703C15.8039 13.1912 16.9024 12.286 18.0495 12.37C18.4797 11.5417 19.1542 11.3765 19.8714 11.8063C20.5387 12.2079 20.483 13.2282 19.9268 13.7063C20.1254 14.6156 19.3182 15.9114 18.0647 15.847C18.2135 17.102 16.674 17.8161 15.7407 16.9965C14.9651 16.3161 15.1272 15.1827 16.2323 14.703ZM15.7015 14.4718C15.3034 14.5589 15.0958 14.7588 14.9184 15.1905C15.0373 14.2087 14.3848 13.2678 13.31 13.34C13.4152 11.5859 11.6777 10.5413 10.1412 11.3951C9.23356 10.6179 8.21881 10.7757 7.6084 11.4988C7.02507 12.1901 7.04468 13.3565 8.22348 13.979C7.92559 15.1905 9.03528 16.3945 10.3398 16.1147C10.4148 16.4876 10.6885 16.6874 11.0492 16.8362C10.5067 16.868 10.2841 17.4074 10.2841 17.4074C8.55405 16.9641 7.66131 18.114 7.63237 19.3208C6.36984 19.7043 6.01654 21.2824 6.98336 22.2041C7.98286 23.1601 9.17504 22.7678 9.69487 21.7904C10.8102 22.2144 12.0039 21.5259 12.035 20.2935C13.2783 20.4106 13.7548 19.4307 13.639 18.3982L13.245 18.3664C13.0753 19.3255 12.6196 19.7388 11.5793 19.7388C11.5342 20.6602 10.5496 21.4599 9.43433 21.2482C9.1215 21.9847 8.20324 22.225 7.57634 21.609C6.95099 20.9926 7.15829 19.8338 8.26176 19.6246C8.21663 18.4944 9.31667 17.794 10.8877 17.869C11.334 17.3159 11.6948 17.0812 12.3637 17.1459L12.37 16.8244C11.7431 16.74 11.0365 16.1461 10.9842 15.5077C9.64631 15.6141 8.73054 14.8475 8.77599 13.645C7.91625 13.2422 8.07095 12.3598 8.34923 12.0248C8.82859 11.4462 9.49877 11.4926 10.0404 11.9601C11.5691 11.3755 12.7998 12.5823 12.7998 13.9006C12.7998 13.9006 13.5142 13.8869 13.9154 14.3049C14.4462 14.8596 14.4462 15.3421 14.5722 15.88C14.6911 16.388 14.9467 17.0631 15.5705 17.55C16.6736 18.41 18.3832 18.1769 18.5575 16.3628C20.0258 16.4932 20.991 15.3405 20.507 13.9308C21.5351 13.1971 21.3306 11.6849 20.3641 11.1C20.1471 10.9567 19.9017 10.862 19.6447 10.8224C19.3877 10.7828 19.1252 10.7991 18.8751 10.8704C18.6251 10.9416 18.3933 11.066 18.1958 11.2352C17.9983 11.4043 17.8396 11.6141 17.7307 11.8502C16.226 11.5044 14.9996 13.0047 15.7015 14.4718ZM22.4898 23.2606C22.6221 22.7314 21.9245 22.653 21.8283 23.1404C21.7262 23.6621 21.0919 24.5521 20.4908 25.1096L20.7056 25.3412C21.4947 24.7516 22.3202 23.9357 22.4898 23.2606ZM25.9935 14.5197C26.1082 14.5154 26.2167 14.4668 26.2964 14.3842C26.376 14.3015 26.4205 14.1912 26.4205 14.0764C26.4205 13.9617 26.376 13.8514 26.2964 13.7687C26.2167 13.6861 26.1082 13.6375 25.9935 13.6332C25.7485 13.6332 25.5518 13.833 25.5518 14.0764C25.5518 14.3214 25.7485 14.5197 25.9935 14.5197ZM32.5203 14.924C32.5236 14.7869 32.5805 14.6564 32.6787 14.5606C32.7769 14.4647 32.9087 14.4111 33.0459 14.4111C33.1831 14.4111 33.3149 14.4647 33.4131 14.5606C33.5113 14.6564 33.5681 14.7869 33.5715 14.924C33.5717 14.9932 33.5582 15.0617 33.5319 15.1257C33.5056 15.1897 33.467 15.2478 33.4182 15.2968C33.3694 15.3458 33.3114 15.3847 33.2475 15.4113C33.1837 15.4379 33.1152 15.4516 33.046 15.4517C32.7566 15.4517 32.5203 15.2157 32.5203 14.924ZM31.6873 24.3802C28.2664 24.1175 24.8605 24.3323 24.8605 24.3323L25.1005 23.7054C28.3713 23.4679 31.7356 23.7054 31.7356 23.7054L31.6873 24.3802Z" fill="#2463A9"/>
<path fill-rule="evenodd" clip-rule="evenodd" d="M11.0147 26.7615C11.0147 26.7615 11.2087 27.0205 11.5109 27.342C11.6133 27.4864 11.7257 27.5898 11.8683 27.7239C12.4955 28.3356 13.4181 28.7941 14.3697 28.9775C14.6402 29.0291 14.8808 29.0693 15.1485 29.0693C15.5544 29.0693 15.9282 28.8514 16.1673 28.6375L15.7947 28.203C15.6745 28.2388 15.4249 28.2388 15.2596 28.2388C13.8797 28.2388 12.1288 27.3358 11.7257 26.2893C11.6849 26.1872 11.637 26.1302 11.6778 26.0337C11.7167 25.9375 11.768 25.7349 11.7964 25.5485C11.8776 25.6415 12.0441 25.7813 12.2561 25.9179C12.7703 26.2473 13.7474 26.7027 13.9382 26.8247C14.3386 26.7102 14.7263 26.5555 15.0955 26.3631C15.3825 26.2143 15.7751 26.0804 16.2289 26.0804C17.2374 26.0804 18.3963 26.6544 19.4848 27.191L20.2288 26.8994C19.2623 26.2186 17.1612 25.2671 15.9917 25.2671C15.3032 25.2671 14.6551 25.7723 14.1941 25.7723C13.6273 25.7723 12.004 24.9801 12.004 24.3202C12.004 23.8122 13.0545 23.5233 14.7438 23.3157C14.4491 23.7503 14.1729 24.1972 13.9158 24.6551L14.3457 24.8942C16.9912 21.0565 19.7419 18.5647 22.0569 17.0479C22.8986 16.496 23.0897 16.1732 23.3826 15.5702C24.0998 14.1032 24.7762 12.9742 25.9531 12.9742C26.5016 12.9742 26.9511 13.2839 27.2595 13.6659L28.1102 13.9214L27.2486 14.506L28.1299 14.8577C26.9797 15.1808 25.409 16.3008 24.7718 17.9437C23.5466 18.0085 22.9558 19.002 22.5562 19.8347C22.2854 20.3956 21.8558 20.6194 21.2289 21.0449L16.2189 24.5427L16.9087 24.6389L21.5368 21.5333C22.451 20.9173 22.8836 20.4632 23.1034 20.024C23.5317 19.1642 23.9949 18.5255 24.9029 18.5255C25.3492 18.5255 25.8255 18.7163 26.2074 19.0786L27.0205 19.3432L26.1337 19.8857L26.8776 20.3446C24.7522 21.0107 23.4368 22.5347 22.6732 25.4476L23.2354 25.574C23.5165 24.6106 23.796 23.7253 24.2934 22.9434C25.5229 22.93 26.7696 22.8849 27.9913 22.8849C31.2532 22.8849 33.9616 23.0231 35.4227 23.4545L34.906 22.5555C33.3431 22.2879 31.0745 22.1512 27.9916 22.1512C26.9592 22.1512 25.9111 22.1886 24.8711 22.2007C25.5432 21.4897 26.5081 20.8899 27.9963 20.4286L26.9411 19.8468L28.1134 19.1944L26.5156 18.5989C26.2361 18.3481 25.8887 18.118 25.4516 18.0066C25.964 16.4328 27.7062 15.513 29.3778 14.8786L28.207 14.3989L29.3868 13.7527L27.5696 13.1722C27.0946 12.6131 26.6392 12.3588 25.9385 12.3588C24.252 12.3588 23.5426 13.8243 22.8752 15.1233C22.5219 15.8087 22.3009 16.0972 21.7027 16.4882C20.4053 17.3373 18.7533 18.636 17.1755 20.3001C16.3515 19.7052 14.6663 17.9639 14.2112 17.0142C14.0307 17.2381 13.852 17.7255 13.852 17.7255C14.0251 17.907 16.0076 19.9138 16.7453 20.7645C16.6896 20.8261 16.6345 20.8877 16.5788 20.9509C15.7925 21.1072 13.7515 21.3042 13.0567 21.2096L12.6661 21.9028C13.1843 21.8518 15.2138 21.6124 16.0555 21.5629C15.7975 21.8763 15.5474 22.1961 15.3053 22.5219C12.6975 22.8195 10.9537 23.3546 10.9537 24.3199C10.9537 24.4792 11.0182 24.6595 11.0182 24.8291C11.0182 25.2334 10.8663 25.3825 10.5793 25.5628C10.3928 25.6817 10.3807 25.7629 10.4607 25.874C10.8933 26.5732 9.54957 26.9202 10.4859 28.1709L11.2796 28.2189C11.2793 28.2192 10.5052 27.7688 11.0147 26.7615ZM9.98598 12.8762L9.72762 13.1407C10.099 13.6715 11.7434 15.1447 12.5773 15.692L12.8839 15.3116C12.337 14.6682 10.7825 13.2808 9.98598 12.8762ZM8.85107 20.3022L9.09449 20.5681C9.7214 20.2646 10.8996 19.3927 11.5371 18.739L11.3615 18.4788C10.6126 18.7916 9.45526 19.6482 8.85107 20.3022Z" fill="#2463A9"/>
<path fill-rule="evenodd" clip-rule="evenodd" d="M45.1674 31.1639C45.1675 31.055 45.1462 30.9473 45.1046 30.8467C45.0631 30.7461 45.0021 30.6547 44.9252 30.5777C44.8483 30.5007 44.757 30.4396 44.6565 30.3979C44.556 30.3562 44.4482 30.3347 44.3394 30.3346L43.1133 30.334C43.0043 30.3342 42.8964 30.3559 42.7958 30.3978C42.6952 30.4397 42.6038 30.5011 42.5269 30.5783C42.45 30.6555 42.3891 30.7472 42.3476 30.848C42.3062 30.9488 42.285 31.0567 42.2853 31.1657L42.2859 43.9918C42.2856 44.1007 42.3069 44.2085 42.3484 44.3092C42.3899 44.4099 42.4508 44.5014 42.5277 44.5785C42.6047 44.6556 42.696 44.7167 42.7966 44.7584C42.8972 44.8002 43.005 44.8216 43.1139 44.8216H44.34C44.4489 44.8214 44.5567 44.7997 44.6572 44.7578C44.7577 44.7159 44.849 44.6546 44.9258 44.5774C45.0026 44.5003 45.0635 44.4087 45.105 44.308C45.1464 44.2073 45.1676 44.0994 45.1674 43.9905V31.1639ZM46.7303 31.505V32.1148C46.7305 32.1749 46.7425 32.2344 46.7657 32.2898C46.7889 32.3452 46.8228 32.3956 46.8654 32.4379C46.908 32.4803 46.9586 32.5138 47.0142 32.5366C47.0698 32.5594 47.1293 32.571 47.1894 32.5708H55.6505C56.0358 32.5708 56.349 32.2596 56.349 31.8736V30.8408C56.349 30.4554 56.0321 30.1058 55.6486 30.1435C55.6486 30.1435 47.4705 30.946 47.2065 30.9759C46.9018 31.0095 46.7303 31.2526 46.7303 31.505ZM39.881 44.8223C37.7762 44.8223 36.4514 43.2264 36.4514 41.4493L36.4495 36.3176H35.8469C35.7706 36.3178 35.695 36.3028 35.6245 36.2737C35.554 36.2446 35.4899 36.2018 35.4359 36.1479C35.3819 36.094 35.3391 36.0299 35.3099 35.9595C35.2807 35.889 35.2657 35.8134 35.2657 35.7371V34.878C35.2657 34.5571 35.5272 34.2993 35.8475 34.2993L36.4495 34.3L36.4483 31.1446C36.4481 31.0384 36.4688 30.9333 36.5093 30.8351C36.5498 30.737 36.6092 30.6478 36.6842 30.5727C36.7592 30.4976 36.8483 30.438 36.9464 30.3974C37.0444 30.3567 37.1495 30.3358 37.2557 30.3359H38.4516C38.6662 30.3365 38.8717 30.4223 39.0231 30.5743C39.1744 30.7263 39.2593 30.9322 39.2591 31.1467L39.2597 34.2996H41.1242C41.4458 34.2996 41.7072 34.558 41.7072 34.8789V35.738C41.7072 35.8143 41.6921 35.8897 41.6629 35.9601C41.6336 36.0305 41.5908 36.0944 41.5368 36.1482C41.4828 36.202 41.4188 36.2447 41.3483 36.2737C41.2778 36.3027 41.2023 36.3175 41.1261 36.3173H39.2597L39.2609 41.0643C39.2609 41.9962 39.8256 42.6321 40.8357 42.6321L41.0053 42.6309C41.3536 42.6309 41.6369 42.9117 41.6369 43.26V44.1926C41.6369 44.2753 41.6206 44.3573 41.5889 44.4338C41.5572 44.5103 41.5107 44.5797 41.4521 44.6381C41.3934 44.6966 41.3239 44.7429 41.2473 44.7744C41.1707 44.8059 41.0887 44.8219 41.0059 44.8216H39.881V44.8223ZM20.1698 33.9302C16.7673 33.9302 14.8589 36.5931 14.8589 39.3986C14.8589 42.3884 16.903 45.0215 20.1919 45.0215C22.4431 45.0215 24.6622 43.8352 25.0814 41.887C25.1381 41.6242 24.961 41.2797 24.5906 41.2784H22.9822C22.6902 41.2784 22.4515 41.4182 22.3077 41.6292C21.8476 42.3041 21.1731 42.6633 20.1761 42.6633C18.7672 42.6633 17.7905 41.5533 17.717 40.3222H24.5579C25.1879 40.3222 25.4693 39.9804 25.4693 39.398C25.4699 36.6622 23.8504 33.9302 20.1698 33.9302ZM20.1698 36.1262C21.4258 36.1262 22.51 37.0199 22.6199 38.2292H17.7385C17.8481 37.0199 18.9139 36.1262 20.1698 36.1262ZM51.3415 33.9302C47.9393 33.9302 46.0308 36.5931 46.0308 39.3986C46.0308 42.3884 48.0753 45.0215 51.3639 45.0215C53.615 45.0215 55.8341 43.8352 56.2537 41.887C56.3104 41.6242 56.1332 41.2797 55.7631 41.2784H54.1545C53.8625 41.2784 53.6238 41.4182 53.4796 41.6292C53.0199 42.3041 52.345 42.6633 51.348 42.6633C49.9395 42.6633 48.963 41.5533 48.889 40.3222H55.7305C56.3602 40.3222 56.6419 39.9804 56.6419 39.398C56.6419 36.6622 55.0223 33.9302 51.3415 33.9302ZM51.3415 36.1262C52.5981 36.1262 53.6823 37.0199 53.7922 38.2292H48.9101C49.0197 37.0199 50.0855 36.1262 51.3415 36.1262Z" fill="white"/>
<path fill-rule="evenodd" clip-rule="evenodd" d="M34.1481 30.4787H11.9894C11.8697 30.4787 11.7512 30.5023 11.6407 30.5482C11.5301 30.594 11.4296 30.6613 11.3451 30.746C11.2605 30.8307 11.1935 30.9312 11.1478 31.0419C11.1022 31.1525 11.0788 31.2711 11.079 31.3908L11.1552 40.0937C11.1552 40.0937 6.38027 31.4692 6.13125 31.0291C5.89748 30.6151 5.39478 30.2338 4.69908 30.2338H2.87688C2.75706 30.2338 2.63841 30.2574 2.52771 30.3032C2.41702 30.3491 2.31645 30.4164 2.23175 30.5011C2.14705 30.5859 2.07989 30.6865 2.03409 30.7972C1.98829 30.9079 1.96476 31.0266 1.96484 31.1464L1.96578 43.9093C1.9657 44.0291 1.98921 44.1477 2.03496 44.2584C2.08072 44.369 2.14783 44.4696 2.23247 44.5544C2.3171 44.6391 2.41759 44.7064 2.52822 44.7523C2.63884 44.7982 2.75742 44.8219 2.87719 44.8219H4.04602C4.2881 44.8214 4.52005 44.7247 4.69084 44.5531C4.86164 44.3816 4.95731 44.1492 4.95681 43.9071L4.88335 34.9605C4.88335 34.9605 9.70437 43.6712 9.91075 44.0142C10.1887 44.478 10.6594 44.8223 11.3417 44.8223H13.0157C13.1355 44.8222 13.254 44.7985 13.3646 44.7526C13.4752 44.7067 13.5757 44.6394 13.6603 44.5547C13.7449 44.4699 13.812 44.3693 13.8577 44.2586C13.9035 44.148 13.9269 44.0294 13.9268 43.9096L13.9262 32.6418L34.1494 32.6424C34.2311 32.6427 34.3122 32.6268 34.3878 32.5957C34.4634 32.5646 34.5322 32.5188 34.5901 32.4611C34.6481 32.4034 34.6941 32.3349 34.7255 32.2593C34.7569 32.1838 34.7731 32.1029 34.7732 32.0211V31.1007C34.7727 30.9353 34.7066 30.777 34.5894 30.6603C34.4722 30.5437 34.3135 30.4784 34.1481 30.4787Z" fill="white"/>
<path fill-rule="evenodd" clip-rule="evenodd" d="M30.562 36.0197C31.5257 36.0197 32.246 36.3693 32.5056 36.9728C32.6301 37.263 32.8717 37.3187 33.2035 37.3187H34.5283C34.7471 37.3187 34.9989 37.1304 34.9989 36.844C34.9989 35.3041 33.1624 33.9289 30.5602 33.9289C27.8698 33.9289 26.1027 35.2104 26.1027 37.2527C26.1027 38.8147 27.3372 39.7441 28.8547 40.141C29.5464 40.3215 30.7273 40.6135 31.3023 40.7648C31.9223 40.927 32.4767 41.1168 32.4767 41.6476C32.4767 42.4858 31.5933 42.771 30.6283 42.771C29.7141 42.771 28.8037 42.3629 28.5425 41.7108C28.3915 41.3332 28.1266 41.2784 27.7251 41.2784H26.3776C26.1426 41.2784 25.8721 41.4801 25.8721 41.7867V41.9607C25.8721 43.4514 27.872 45.0128 30.6308 45.0128C32.5872 45.0128 35.3127 44.1994 35.3127 41.576C35.3127 40.0566 34.2961 39.0048 32.642 38.5843C31.9951 38.4203 30.44 38.025 30.1017 37.9375C29.4987 37.7812 28.9359 37.5848 28.9359 37.0681C28.9363 36.2852 29.6597 36.0197 30.562 36.0197Z" fill="white"/>
<path fill-rule="evenodd" clip-rule="evenodd" d="M45.167 31.1639C45.1672 31.055 45.1458 30.9473 45.1043 30.8467C45.0627 30.7461 45.0018 30.6547 44.9249 30.5777C44.848 30.5007 44.7567 30.4396 44.6562 30.3979C44.5556 30.3562 44.4479 30.3347 44.3391 30.3346L43.1129 30.334C43.004 30.3342 42.8961 30.3559 42.7955 30.3978C42.6949 30.4397 42.6035 30.5011 42.5266 30.5783C42.4497 30.6555 42.3888 30.7472 42.3473 30.848C42.3059 30.9488 42.2847 31.0567 42.285 31.1657L42.2856 43.9918C42.2853 44.1007 42.3066 44.2085 42.3481 44.3092C42.3896 44.4099 42.4505 44.5014 42.5274 44.5785C42.6043 44.6556 42.6957 44.7167 42.7963 44.7584C42.8969 44.8002 43.0047 44.8216 43.1136 44.8216H44.3397C44.4486 44.8214 44.5564 44.7997 44.6569 44.7578C44.7574 44.7159 44.8487 44.6546 44.9255 44.5774C45.0023 44.5003 45.0632 44.4087 45.1046 44.308C45.1461 44.2073 45.1673 44.0994 45.167 43.9905V31.1639ZM46.73 31.505V32.1148C46.7302 32.1749 46.7422 32.2344 46.7654 32.2898C46.7886 32.3452 46.8224 32.3956 46.8651 32.4379C46.9077 32.4803 46.9583 32.5138 47.0139 32.5366C47.0695 32.5594 47.129 32.571 47.1891 32.5708H55.6501C56.0355 32.5708 56.3486 32.2596 56.3486 31.8736V30.8408C56.3486 30.4554 56.0318 30.1058 55.6483 30.1435C55.6483 30.1435 47.4702 30.946 47.2062 30.9759C46.9015 31.0095 46.73 31.2526 46.73 31.505ZM39.8807 44.8223C37.7758 44.8223 36.4511 43.2264 36.4511 41.4493L36.4492 36.3176H35.8466C35.7703 36.3178 35.6947 36.3028 35.6242 36.2737C35.5536 36.2446 35.4896 36.2018 35.4356 36.1479C35.3816 36.094 35.3388 36.0299 35.3096 35.9595C35.2804 35.889 35.2654 35.8134 35.2654 35.7371V34.878C35.2654 34.5571 35.5269 34.2993 35.8472 34.2993L36.4492 34.3L36.4479 31.1446C36.4477 31.0384 36.4685 30.9333 36.509 30.8351C36.5495 30.737 36.6089 30.6478 36.6839 30.5727C36.7589 30.4976 36.848 30.438 36.9461 30.3974C37.0441 30.3567 37.1492 30.3358 37.2554 30.3359H38.4513C38.6658 30.3365 38.8714 30.4223 39.0227 30.5743C39.1741 30.7263 39.259 30.9322 39.2587 31.1467L39.2594 34.2996H41.1239C41.4455 34.2996 41.7069 34.558 41.7069 34.8789V35.738C41.7069 35.8143 41.6918 35.8897 41.6626 35.9601C41.6333 36.0305 41.5905 36.0944 41.5365 36.1482C41.4825 36.202 41.4185 36.2447 41.348 36.2737C41.2775 36.3027 41.202 36.3175 41.1258 36.3173H39.2594L39.2606 41.0643C39.2606 41.9962 39.8253 42.6321 40.8354 42.6321L41.005 42.6309C41.3533 42.6309 41.6366 42.9117 41.6366 43.26V44.1926C41.6366 44.2753 41.6203 44.3573 41.5886 44.4338C41.5569 44.5103 41.5104 44.5797 41.4518 44.6381C41.3931 44.6966 41.3235 44.7429 41.247 44.7744C41.1704 44.8059 41.0884 44.8219 41.0056 44.8216H39.8807V44.8223ZM25.4696 39.398C25.4696 36.6622 23.85 33.9302 20.1698 33.9302C16.7673 33.9302 14.8589 36.5931 14.8589 39.3986C14.8589 42.3884 16.903 45.0215 20.192 45.0215C22.4431 45.0215 24.6622 43.8352 25.0814 41.887C25.1381 41.6242 24.961 41.2797 24.5906 41.2784H22.9822C22.6902 41.2784 22.4515 41.4182 22.3077 41.6292C21.8476 42.3041 21.1731 42.6633 20.1761 42.6633C18.7672 42.6633 17.7905 41.5533 17.717 40.3222H24.5579C25.1879 40.3222 25.4696 39.9804 25.4696 39.398ZM17.7382 38.2289C17.8481 37.0196 18.9135 36.1259 20.1698 36.1259C21.4258 36.1259 22.51 37.0196 22.6199 38.2289H17.7382ZM56.6416 39.398C56.6416 36.6622 55.022 33.9302 51.3415 33.9302C47.9393 33.9302 46.0308 36.5931 46.0308 39.3986C46.0308 42.3884 48.0753 45.0215 51.3639 45.0215C53.615 45.0215 55.8341 43.8352 56.2537 41.887C56.3104 41.6242 56.1332 41.2797 55.7631 41.2784H54.1545C53.8625 41.2784 53.6238 41.4182 53.4796 41.6292C53.0199 42.3041 52.345 42.6633 51.348 42.6633C49.9395 42.6633 48.963 41.5533 48.889 40.3222H55.7304C56.3598 40.3222 56.6416 39.9804 56.6416 39.398ZM48.9101 38.2289C49.0197 37.0196 50.0852 36.1259 51.3415 36.1259C52.5981 36.1259 53.6823 37.0196 53.7921 38.2289H48.9101Z" fill="#2463A9"/>
<path fill-rule="evenodd" clip-rule="evenodd" d="M34.1481 30.4787H11.9894C11.8697 30.4787 11.7512 30.5023 11.6407 30.5482C11.5301 30.594 11.4296 30.6613 11.3451 30.746C11.2605 30.8307 11.1935 30.9312 11.1478 31.0419C11.1022 31.1525 11.0788 31.2711 11.079 31.3908L11.1552 40.0937C11.1552 40.0937 6.38027 31.4692 6.13125 31.0291C5.89748 30.6151 5.39478 30.2338 4.69908 30.2338H2.87688C2.75706 30.2338 2.63841 30.2574 2.52771 30.3032C2.41702 30.3491 2.31645 30.4164 2.23175 30.5011C2.14705 30.5859 2.07989 30.6865 2.03409 30.7972C1.98829 30.9079 1.96476 31.0266 1.96484 31.1464L1.96578 43.9093C1.9657 44.0291 1.98921 44.1477 2.03496 44.2584C2.08072 44.369 2.14783 44.4696 2.23247 44.5544C2.3171 44.6391 2.41759 44.7064 2.52822 44.7523C2.63884 44.7982 2.75742 44.8219 2.87719 44.8219H4.04602C4.2881 44.8214 4.52005 44.7247 4.69084 44.5531C4.86164 44.3816 4.95731 44.1492 4.95681 43.9071L4.88335 34.9605C4.88335 34.9605 9.70437 43.6712 9.91075 44.0142C10.1887 44.478 10.6594 44.8223 11.3417 44.8223H13.0157C13.1355 44.8222 13.254 44.7985 13.3646 44.7526C13.4752 44.7067 13.5757 44.6394 13.6603 44.5547C13.7449 44.4699 13.812 44.3693 13.8577 44.2586C13.9035 44.148 13.9269 44.0294 13.9268 43.9096L13.9262 32.6418L34.1494 32.6424C34.2311 32.6427 34.3122 32.6268 34.3878 32.5957C34.4634 32.5646 34.5322 32.5188 34.5901 32.4611C34.6481 32.4034 34.6941 32.3349 34.7255 32.2593C34.7569 32.1838 34.7731 32.1029 34.7732 32.0211V31.1007C34.7727 30.9353 34.7066 30.777 34.5894 30.6603C34.4722 30.5437 34.3135 30.4784 34.1481 30.4787Z" fill="#2463A9"/>
<path fill-rule="evenodd" clip-rule="evenodd" d="M30.562 36.0197C31.5257 36.0197 32.246 36.3693 32.5056 36.9728C32.6301 37.263 32.8717 37.3187 33.2035 37.3187H34.5283C34.7471 37.3187 34.9989 37.1304 34.9989 36.844C34.9989 35.3041 33.1624 33.9289 30.5602 33.9289C27.8698 33.9289 26.1027 35.2104 26.1027 37.2527C26.1027 38.8147 27.3372 39.7441 28.8547 40.141C29.5464 40.3215 30.7273 40.6135 31.3023 40.7648C31.9223 40.927 32.4767 41.1168 32.4767 41.6476C32.4767 42.4858 31.5933 42.771 30.6283 42.771C29.7141 42.771 28.8037 42.3629 28.5425 41.7108C28.3915 41.3332 28.1266 41.2784 27.7251 41.2784H26.3776C26.1426 41.2784 25.8721 41.4801 25.8721 41.7867V41.9607C25.8721 43.4514 27.872 45.0128 30.6308 45.0128C32.5872 45.0128 35.3127 44.1994 35.3127 41.576C35.3127 40.0566 34.2961 39.0048 32.642 38.5843C31.9951 38.4203 30.44 38.025 30.1017 37.9375C29.4987 37.7812 28.9359 37.5848 28.9359 37.0681C28.9363 36.2852 29.6597 36.0197 30.562 36.0197ZM57.5919 44.2831H57.2915V42.8787H57.8163C58.1786 42.8787 58.3928 42.982 58.3928 43.3029C58.3928 43.5613 58.2409 43.655 58.0547 43.669L58.4133 44.2831H58.0575L57.7335 43.6929H57.5919V44.2831ZM57.8574 43.4551C57.9925 43.4551 58.0715 43.4271 58.0715 43.2715C58.0715 43.1267 57.9159 43.1165 57.8029 43.1165H57.5919V43.4551H57.8574ZM57.8088 44.8867C57.1156 44.8867 56.4974 44.407 56.4974 43.5821C56.4974 42.7579 57.1156 42.2782 57.8088 42.2782C58.4995 42.2782 59.1177 42.7579 59.1177 43.5821C59.1177 44.407 58.4995 44.8867 57.8088 44.8867ZM57.8088 42.5814C57.2915 42.5814 56.8737 42.982 56.8737 43.5821C56.8737 44.1829 57.2915 44.5872 57.8088 44.5835V44.5872C58.3134 44.5872 58.7408 44.1829 58.7408 43.5821C58.7408 42.982 58.3134 42.5814 57.8088 42.5814Z" fill="#2463A9"/>
</svg>
