<svg width="60" height="60" viewBox="0 0 60 60" fill="none" xmlns="http://www.w3.org/2000/svg">
<path d="M50.625 15.625H28.125C27.9592 15.625 27.8003 15.6908 27.6831 15.8081C27.5658 15.9253 27.5 16.0842 27.5 16.25V23.75C27.5 23.9158 27.5658 24.0747 27.6831 24.1919C27.8003 24.3092 27.9592 24.375 28.125 24.375H50.625C50.7908 24.375 50.9497 24.3092 51.0669 24.1919C51.1842 24.0747 51.25 23.9158 51.25 23.75V16.25C51.25 16.0842 51.1842 15.9253 51.0669 15.8081C50.9497 15.6908 50.7908 15.625 50.625 15.625ZM50 23.125H28.75V16.875H50V23.125ZM31.875 26.875H28.125C27.9592 26.875 27.8003 26.9408 27.6831 27.0581C27.5658 27.1753 27.5 27.3342 27.5 27.5V31.25C27.5 31.4158 27.5658 31.5747 27.6831 31.6919C27.8003 31.8092 27.9592 31.875 28.125 31.875H31.875C32.0408 31.875 32.1997 31.8092 32.3169 31.6919C32.4342 31.5747 32.5 31.4158 32.5 31.25V27.5C32.5 27.3342 32.4342 27.1753 32.3169 27.0581C32.1997 26.9408 32.0408 26.875 31.875 26.875ZM31.25 30.625H28.75V28.125H31.25V30.625ZM38.125 26.875H34.375C34.2092 26.875 34.0503 26.9408 33.9331 27.0581C33.8158 27.1753 33.75 27.3342 33.75 27.5V31.25C33.75 31.4158 33.8158 31.5747 33.9331 31.6919C34.0503 31.8092 34.2092 31.875 34.375 31.875H38.125C38.2908 31.875 38.4497 31.8092 38.5669 31.6919C38.6842 31.5747 38.75 31.4158 38.75 31.25V27.5C38.75 27.3342 38.6842 27.1753 38.5669 27.0581C38.4497 26.9408 38.2908 26.875 38.125 26.875ZM37.5 30.625H35V28.125H37.5V30.625ZM44.375 26.875H40.625C40.4592 26.875 40.3003 26.9408 40.1831 27.0581C40.0658 27.1753 40 27.3342 40 27.5V31.25C40 31.4158 40.0658 31.5747 40.1831 31.6919C40.3003 31.8092 40.4592 31.875 40.625 31.875H44.375C44.5408 31.875 44.6997 31.8092 44.8169 31.6919C44.9342 31.5747 45 31.4158 45 31.25V27.5C45 27.3342 44.9342 27.1753 44.8169 27.0581C44.6997 26.9408 44.5408 26.875 44.375 26.875ZM43.75 30.625H41.25V28.125H43.75V30.625ZM50.625 26.875H46.875C46.7092 26.875 46.5503 26.9408 46.4331 27.0581C46.3158 27.1753 46.25 27.3342 46.25 27.5V31.25C46.25 31.4158 46.3158 31.5747 46.4331 31.6919C46.5503 31.8092 46.7092 31.875 46.875 31.875H50.625C50.7908 31.875 50.9497 31.8092 51.0669 31.6919C51.1842 31.5747 51.25 31.4158 51.25 31.25V27.5C51.25 27.3342 51.1842 27.1753 51.0669 27.0581C50.9497 26.9408 50.7908 26.875 50.625 26.875ZM50 30.625H47.5V28.125H50V30.625ZM31.875 33.125H28.125C27.9592 33.125 27.8003 33.1908 27.6831 33.3081C27.5658 33.4253 27.5 33.5842 27.5 33.75V37.5C27.5 37.6658 27.5658 37.8247 27.6831 37.9419C27.8003 38.0592 27.9592 38.125 28.125 38.125H31.875C32.0408 38.125 32.1997 38.0592 32.3169 37.9419C32.4342 37.8247 32.5 37.6658 32.5 37.5V33.75C32.5 33.5842 32.4342 33.4253 32.3169 33.3081C32.1997 33.1908 32.0408 33.125 31.875 33.125ZM31.25 36.875H28.75V34.375H31.25V36.875ZM38.125 33.125H34.375C34.2092 33.125 34.0503 33.1908 33.9331 33.3081C33.8158 33.4253 33.75 33.5842 33.75 33.75V37.5C33.75 37.6658 33.8158 37.8247 33.9331 37.9419C34.0503 38.0592 34.2092 38.125 34.375 38.125H38.125C38.2908 38.125 38.4497 38.0592 38.5669 37.9419C38.6842 37.8247 38.75 37.6658 38.75 37.5V33.75C38.75 33.5842 38.6842 33.4253 38.5669 33.3081C38.4497 33.1908 38.2908 33.125 38.125 33.125ZM37.5 36.875H35V34.375H37.5V36.875ZM44.375 33.125H40.625C40.4592 33.125 40.3003 33.1908 40.1831 33.3081C40.0658 33.4253 40 33.5842 40 33.75V37.5C40 37.6658 40.0658 37.8247 40.1831 37.9419C40.3003 38.0592 40.4592 38.125 40.625 38.125H44.375C44.5408 38.125 44.6997 38.0592 44.8169 37.9419C44.9342 37.8247 45 37.6658 45 37.5V33.75C45 33.5842 44.9342 33.4253 44.8169 33.3081C44.6997 33.1908 44.5408 33.125 44.375 33.125ZM43.75 36.875H41.25V34.375H43.75V36.875ZM50.625 33.125H46.875C46.7092 33.125 46.5503 33.1908 46.4331 33.3081C46.3158 33.4253 46.25 33.5842 46.25 33.75V37.5C46.25 37.6658 46.3158 37.8247 46.4331 37.9419C46.5503 38.0592 46.7092 38.125 46.875 38.125H50.625C50.7908 38.125 50.9497 38.0592 51.0669 37.9419C51.1842 37.8247 51.25 37.6658 51.25 37.5V33.75C51.25 33.5842 51.1842 33.4253 51.0669 33.3081C50.9497 33.1908 50.7908 33.125 50.625 33.125ZM50 36.875H47.5V34.375H50V36.875ZM31.875 39.375H28.125C27.9592 39.375 27.8003 39.4408 27.6831 39.5581C27.5658 39.6753 27.5 39.8342 27.5 40V43.75C27.5 43.9158 27.5658 44.0747 27.6831 44.1919C27.8003 44.3092 27.9592 44.375 28.125 44.375H31.875C32.0408 44.375 32.1997 44.3092 32.3169 44.1919C32.4342 44.0747 32.5 43.9158 32.5 43.75V40C32.5 39.8342 32.4342 39.6753 32.3169 39.5581C32.1997 39.4408 32.0408 39.375 31.875 39.375ZM31.25 43.125H28.75V40.625H31.25V43.125ZM38.125 39.375H34.375C34.2092 39.375 34.0503 39.4408 33.9331 39.5581C33.8158 39.6753 33.75 39.8342 33.75 40V43.75C33.75 43.9158 33.8158 44.0747 33.9331 44.1919C34.0503 44.3092 34.2092 44.375 34.375 44.375H38.125C38.2908 44.375 38.4497 44.3092 38.5669 44.1919C38.6842 44.0747 38.75 43.9158 38.75 43.75V40C38.75 39.8342 38.6842 39.6753 38.5669 39.5581C38.4497 39.4408 38.2908 39.375 38.125 39.375ZM37.5 43.125H35V40.625H37.5V43.125ZM44.375 39.375H40.625C40.4592 39.375 40.3003 39.4408 40.1831 39.5581C40.0658 39.6753 40 39.8342 40 40V43.75C40 43.9158 40.0658 44.0747 40.1831 44.1919C40.3003 44.3092 40.4592 44.375 40.625 44.375H44.375C44.5408 44.375 44.6997 44.3092 44.8169 44.1919C44.9342 44.0747 45 43.9158 45 43.75V40C45 39.8342 44.9342 39.6753 44.8169 39.5581C44.6997 39.4408 44.5408 39.375 44.375 39.375ZM43.75 43.125H41.25V40.625H43.75V43.125ZM50.625 39.375H46.875C46.7092 39.375 46.5503 39.4408 46.4331 39.5581C46.3158 39.6753 46.25 39.8342 46.25 40V43.75C46.25 43.9158 46.3158 44.0747 46.4331 44.1919C46.5503 44.3092 46.7092 44.375 46.875 44.375H50.625C50.7908 44.375 50.9497 44.3092 51.0669 44.1919C51.1842 44.0747 51.25 43.9158 51.25 43.75V40C51.25 39.8342 51.1842 39.6753 51.0669 39.5581C50.9497 39.4408 50.7908 39.375 50.625 39.375ZM50 43.125H47.5V40.625H50V43.125ZM31.875 46.875H28.125C27.9592 46.875 27.8003 46.9408 27.6831 47.0581C27.5658 47.1753 27.5 47.3342 27.5 47.5V50C27.5 50.1658 27.5658 50.3247 27.6831 50.4419C27.8003 50.5592 27.9592 50.625 28.125 50.625H31.875C32.0408 50.625 32.1997 50.5592 32.3169 50.4419C32.4342 50.3247 32.5 50.1658 32.5 50V47.5C32.5 47.3342 32.4342 47.1753 32.3169 47.0581C32.1997 46.9408 32.0408 46.875 31.875 46.875ZM31.25 49.375H28.75V48.125H31.25V49.375ZM38.125 46.875H34.375C34.2092 46.875 34.0503 46.9408 33.9331 47.0581C33.8158 47.1753 33.75 47.3342 33.75 47.5V50C33.75 50.1658 33.8158 50.3247 33.9331 50.4419C34.0503 50.5592 34.2092 50.625 34.375 50.625H38.125C38.2908 50.625 38.4497 50.5592 38.5669 50.4419C38.6842 50.3247 38.75 50.1658 38.75 50V47.5C38.75 47.3342 38.6842 47.1753 38.5669 47.0581C38.4497 46.9408 38.2908 46.875 38.125 46.875ZM37.5 49.375H35V48.125H37.5V49.375ZM44.375 46.875H40.625C40.4592 46.875 40.3003 46.9408 40.1831 47.0581C40.0658 47.1753 40 47.3342 40 47.5V50C40 50.1658 40.0658 50.3247 40.1831 50.4419C40.3003 50.5592 40.4592 50.625 40.625 50.625H44.375C44.5408 50.625 44.6997 50.5592 44.8169 50.4419C44.9342 50.3247 45 50.1658 45 50V47.5C45 47.3342 44.9342 47.1753 44.8169 47.0581C44.6997 46.9408 44.5408 46.875 44.375 46.875ZM43.75 49.375H41.25V48.125H43.75V49.375ZM50.625 46.875H46.875C46.7092 46.875 46.5503 46.9408 46.4331 47.0581C46.3158 47.1753 46.25 47.3342 46.25 47.5V50C46.25 50.1658 46.3158 50.3247 46.4331 50.4419C46.5503 50.5592 46.7092 50.625 46.875 50.625H50.625C50.7908 50.625 50.9497 50.5592 51.0669 50.4419C51.1842 50.3247 51.25 50.1658 51.25 50V47.5C51.25 47.3342 51.1842 47.1753 51.0669 47.0581C50.9497 46.9408 50.7908 46.875 50.625 46.875ZM50 49.375H47.5V48.125H50V49.375ZM52.5 11.875H25V10C24.9993 9.33719 24.7356 8.70173 24.2669 8.23306C23.7983 7.76438 23.1628 7.50074 22.5 7.5H11.25C10.5872 7.50074 9.95173 7.76438 9.48306 8.23306C9.01438 8.70173 8.75074 9.33719 8.75 10V11.875H7.5C6.83719 11.8757 6.20173 12.1394 5.73306 12.6081C5.26438 13.0767 5.00074 13.7122 5 14.375V51.875C5.00074 52.5378 5.26438 53.1733 5.73306 53.6419C6.20173 54.1106 6.83719 54.3743 7.5 54.375H52.5C53.1628 54.3743 53.7983 54.1106 54.2669 53.6419C54.7356 53.1733 54.9993 52.5378 55 51.875V14.375C54.9993 13.7122 54.7356 13.0767 54.2669 12.6081C53.7983 12.1394 53.1628 11.8757 52.5 11.875ZM10 10C10.0004 9.6686 10.1322 9.35088 10.3665 9.11654C10.6009 8.8822 10.9186 8.75038 11.25 8.75H22.5C22.8314 8.75038 23.1491 8.8822 23.3835 9.11654C23.6178 9.35088 23.7496 9.6686 23.75 10V48.125C23.7496 48.4564 23.6178 48.7741 23.3835 49.0085C23.1491 49.2428 22.8314 49.3746 22.5 49.375H11.25C10.9186 49.3746 10.6009 49.2428 10.3665 49.0085C10.1322 48.7741 10.0004 48.4564 10 48.125V10ZM53.75 51.875C53.7496 52.2064 53.6178 52.5241 53.3835 52.7585C53.1491 52.9928 52.8314 53.1246 52.5 53.125H7.5C7.1686 53.1246 6.85087 52.9928 6.61654 52.7585C6.3822 52.5241 6.25038 52.2064 6.25 51.875V14.375C6.25038 14.0436 6.3822 13.7259 6.61654 13.4915C6.85087 13.2572 7.1686 13.1254 7.5 13.125H8.75V48.125C8.75074 48.7878 9.01438 49.4233 9.48306 49.8919C9.95173 50.3606 10.5872 50.6243 11.25 50.625H22.5C23.1628 50.6243 23.7983 50.3606 24.2669 49.8919C24.7356 49.4233 24.9993 48.7878 25 48.125V13.125H52.5C52.8314 13.1254 53.1491 13.2572 53.3835 13.4915C53.6178 13.7259 53.7496 14.0436 53.75 14.375V51.875Z" fill="black"/>
</svg>
