<svg width="60" height="60" viewBox="0 0 60 60" fill="none" xmlns="http://www.w3.org/2000/svg">
<path d="M29.9999 20.6898V6.20703C43.053 6.20703 53.793 16.947 53.793 30.0001C53.793 43.0532 43.053 53.7932 29.9999 53.7932C16.9468 53.7932 6.20679 43.0532 6.20679 30.0001C6.20679 23.6919 8.71437 17.636 13.1751 13.1753" stroke="black" stroke-width="2" stroke-miterlimit="10"/>
<path d="M18.1923 21.1178C17.8044 20.7299 17.5864 20.2037 17.5864 19.6551C17.5864 19.1064 17.8044 18.5803 18.1923 18.1923C18.5803 17.8044 19.1064 17.5864 19.6551 17.5864C20.2037 17.5864 20.7299 17.8044 21.1178 18.1923L32.9254 27.0744C33.3206 27.4561 33.6359 27.9127 33.8527 28.4175C34.0696 28.9224 34.1838 29.4654 34.1885 30.0148C34.1933 30.5642 34.0886 31.1091 33.8805 31.6176C33.6725 32.1262 33.3652 32.5882 32.9767 32.9767C32.5882 33.3652 32.1262 33.6725 31.6176 33.8805C31.1091 34.0886 30.5642 34.1933 30.0148 34.1885C29.4654 34.1838 28.9224 34.0696 28.4175 33.8527C27.9127 33.6359 27.4561 33.3206 27.0744 32.9254L18.1923 21.1178Z" fill="black"/>
</svg>
