<svg width="60" height="60" viewBox="0 0 60 60" fill="none" xmlns="http://www.w3.org/2000/svg">
<path fill-rule="evenodd" clip-rule="evenodd" d="M0 0H60V60H0V0Z" fill="white"/>
<path fill-rule="evenodd" clip-rule="evenodd" d="M2.64697 11.6575H8.44882L11.6637 33.7677L14.7997 11.6575H54.5514L53.2188 18.0085H19.6612L14.5647 47.0967H8.76258L2.64697 11.6575Z" fill="black"/>
<path fill-rule="evenodd" clip-rule="evenodd" d="M55.5708 38.8642C55.7277 42.3137 53.7676 47.5671 49.4549 47.5671C44.4375 47.5671 43.3396 41.3733 43.3396 38.7857H47.4167C47.4167 40.2752 48.6714 41.7652 49.6121 41.7652C50.5531 41.7652 51.4944 40.5889 51.4944 39.8051C51.4944 39.0207 51.1806 37.845 49.6912 36.8256C44.8294 33.9245 43.7318 30.5528 43.7318 27.6521C43.5749 24.2022 45.2213 19.1057 49.5336 19.1057C53.8464 19.1057 55.0223 25.1432 55.0223 27.6521H51.1806C51.1806 26.2407 50.2396 25.2216 49.2989 25.2216C48.358 25.2216 47.7304 26.1623 47.7304 26.9467C47.7304 27.7308 47.8873 28.4365 49.3774 29.4556C51.4156 30.3966 55.5708 33.4542 55.5708 38.8642ZM55.8036 45.5289C55.9687 45.5286 56.1323 45.5609 56.2848 45.624C56.4374 45.6871 56.576 45.7796 56.6928 45.8964C56.8095 46.0131 56.902 46.1517 56.9651 46.3043C57.0282 46.4569 57.0605 46.6204 57.0603 46.7855C57.0613 46.9512 57.0296 47.1154 56.9669 47.2688C56.9043 47.4222 56.8119 47.5616 56.6951 47.6792C56.5783 47.7967 56.4394 47.8899 56.2864 47.9536C56.1334 48.0172 55.9693 48.0499 55.8036 48.0499C55.6375 48.0504 55.4728 48.018 55.3192 47.9546C55.1656 47.8913 55.026 47.7981 54.9085 47.6806C54.791 47.5631 54.6979 47.4235 54.6345 47.2699C54.5711 47.1163 54.5388 46.9517 54.5393 46.7855C54.5393 46.0898 55.1045 45.5289 55.8036 45.5289V45.2366C54.942 45.2366 54.2467 45.932 54.2467 46.7858C54.2464 46.9903 54.2864 47.1929 54.3646 47.382C54.4427 47.571 54.5574 47.7427 54.702 47.8874C54.8467 48.032 55.0184 48.1467 55.2075 48.2248C55.3965 48.303 55.5991 48.3431 55.8036 48.3428C56.6572 48.3428 57.3529 47.6474 57.3529 46.7858C57.3522 46.3751 57.1888 45.9814 56.8984 45.691C56.608 45.4007 56.2143 45.2372 55.8036 45.2366V45.5289Z" fill="black"/>
<path fill-rule="evenodd" clip-rule="evenodd" d="M55.4917 46.205H55.8986C56.0608 46.205 56.298 46.2049 56.298 46.4219C56.298 46.6354 56.1672 46.679 55.9817 46.6747H55.4917V46.924H55.8195L56.1909 47.6353H56.5744L56.1669 46.924C56.4635 46.9041 56.6254 46.7774 56.6254 46.4736C56.6254 46.2996 56.5781 46.1374 56.4277 46.039C56.3014 45.96 56.1159 45.9556 55.9736 45.9556H55.163V47.6353H55.4914V46.205H55.4917ZM21.6995 37.6885L23.2677 27.4955L24.8359 37.6885H21.6995ZM20.7588 43.4119H25.62L26.2472 47.0968H34.0092V32.5135L38.7919 47.0968H42.7905V19.9686H38.7134V33.768L34.166 19.9686H29.9324V45.4504L25.5416 19.9686H20.9938L16.2896 47.0968H20.2882L20.7588 43.4119Z" fill="black"/>
</svg>
