<svg width="50" height="50" viewBox="0 0 50 50" fill="none" xmlns="http://www.w3.org/2000/svg">
<path fill-rule="evenodd" clip-rule="evenodd" d="M0 0H50V50H0V0Z" fill="white"/>
<path fill-rule="evenodd" clip-rule="evenodd" d="M2.20581 9.7146H7.04068L9.71972 28.1397L12.3331 9.7146H45.4595L44.349 15.007H16.3844L12.1373 39.2473H7.30215L2.20581 9.7146Z" fill="#323232"/>
<path fill-rule="evenodd" clip-rule="evenodd" d="M46.3091 32.3868C46.4399 35.2614 44.8065 39.6392 41.2125 39.6392C37.0313 39.6392 36.1165 34.4777 36.1165 32.3214H39.514C39.514 33.5626 40.5596 34.8043 41.3435 34.8043C42.1277 34.8043 42.9121 33.8241 42.9121 33.1709C42.9121 32.5172 42.6506 31.5375 41.4094 30.688C37.3579 28.2704 36.4433 25.4606 36.4433 23.0433C36.3126 20.1685 37.6845 15.9214 41.2782 15.9214C44.8721 15.9214 45.8521 20.9526 45.8521 23.0433H42.6506C42.6506 21.8672 41.8665 21.018 41.0826 21.018C40.2984 21.018 39.7755 21.8019 39.7755 22.4556C39.7755 23.109 39.9062 23.697 41.1479 24.5463C42.8465 25.3304 46.3091 27.8785 46.3091 32.3868ZM46.5032 37.9407C46.6407 37.9405 46.777 37.9674 46.9041 38.02C47.0313 38.0725 47.1468 38.1497 47.2441 38.2469C47.3414 38.3442 47.4185 38.4597 47.471 38.5869C47.5236 38.714 47.5505 38.8503 47.5503 38.9879C47.5512 39.1259 47.5248 39.2628 47.4726 39.3906C47.4203 39.5184 47.3433 39.6347 47.246 39.7326C47.1487 39.8305 47.0329 39.9082 46.9054 39.9613C46.778 40.0143 46.6412 40.0416 46.5032 40.0415C46.3647 40.0419 46.2275 40.015 46.0995 39.9621C45.9714 39.9093 45.8551 39.8317 45.7572 39.7338C45.6593 39.6359 45.5817 39.5196 45.5289 39.3916C45.4761 39.2635 45.4491 39.1263 45.4495 38.9879C45.4495 38.4081 45.9206 37.9407 46.5032 37.9407V37.6971C45.7852 37.6971 45.2057 38.2766 45.2057 38.9881C45.2054 39.1586 45.2388 39.3274 45.3039 39.4849C45.3691 39.6425 45.4646 39.7856 45.5852 39.9061C45.7057 40.0266 45.8488 40.1222 46.0063 40.1873C46.1639 40.2524 46.3327 40.2858 46.5032 40.2856C47.2144 40.2856 47.7942 39.7061 47.7942 38.9881C47.7936 38.6459 47.6574 38.3178 47.4154 38.0758C47.1734 37.8338 46.8454 37.6976 46.5032 37.6971V37.9407Z" fill="#323232"/>
<path fill-rule="evenodd" clip-rule="evenodd" d="M46.2432 38.504H46.5822C46.7174 38.504 46.915 38.504 46.915 38.6848C46.915 38.8628 46.8061 38.8991 46.6515 38.8955H46.2432V39.1032H46.5163L46.8258 39.696H47.1454L46.8058 39.1032C47.053 39.0866 47.1879 38.9811 47.1879 38.7279C47.1879 38.5829 47.1485 38.4477 47.0232 38.3658C46.9179 38.2999 46.7633 38.2963 46.6447 38.2963H45.9693V39.696H46.2429V38.504H46.2432ZM18.083 31.407L19.3898 22.9128L20.6967 31.407H18.083ZM17.2991 36.1765H21.3501L21.8728 39.2472H28.341V27.0945L32.3266 39.2472H35.6588V16.6404H32.2613V28.1399L28.4718 16.6404H24.9437V37.8753L21.2847 16.6404H17.4949L13.5747 39.2472H16.9069L17.2991 36.1765Z" fill="#323232"/>
</svg>
