<svg width="60" height="60" viewBox="0 0 60 60" fill="none" xmlns="http://www.w3.org/2000/svg">
<path d="M22.2832 12.3047H37.7168C38.4159 12.3041 39.0862 12.0261 39.5806 11.5317C40.0749 11.0374 40.3529 10.3671 40.3535 9.66797V7.91016C40.3529 7.21105 40.0749 6.54075 39.5806 6.0464C39.0862 5.55205 38.4159 5.27406 37.7168 5.27344H22.2832C21.5841 5.27406 20.9138 5.55205 20.4194 6.0464C19.9251 6.54075 19.6471 7.21105 19.6465 7.91016V9.66797C19.6471 10.3671 19.9251 11.0374 20.4194 11.5317C20.9138 12.0261 21.5841 12.3041 22.2832 12.3047ZM21.4043 7.91016C21.4043 7.67706 21.4969 7.4535 21.6617 7.28868C21.8265 7.12385 22.0501 7.03125 22.2832 7.03125H37.7168C37.9499 7.03125 38.1735 7.12385 38.3383 7.28868C38.5031 7.4535 38.5957 7.67706 38.5957 7.91016V9.66797C38.5957 9.90107 38.5031 10.1246 38.3383 10.2894C38.1735 10.4543 37.9499 10.5469 37.7168 10.5469H22.2832C22.0501 10.5469 21.8265 10.4543 21.6617 10.2894C21.4969 10.1246 21.4043 9.90107 21.4043 9.66797V7.91016ZM45.7617 42.2098H40.6055C40.3724 42.2098 40.1488 42.3024 39.984 42.4672C39.8192 42.632 39.7266 42.8556 39.7266 43.0887C39.7266 43.3218 39.8192 43.5453 39.984 43.7102C40.1488 43.875 40.3724 43.9676 40.6055 43.9676H45.7617C45.9948 43.9676 46.2184 43.875 46.3832 43.7102C46.548 43.5453 46.6406 43.3218 46.6406 43.0887C46.6406 42.8556 46.548 42.632 46.3832 42.4672C46.2184 42.3024 45.9948 42.2098 45.7617 42.2098ZM39.7266 16.7215C39.7266 16.9546 39.8192 17.1781 39.984 17.343C40.1488 17.5078 40.3724 17.6004 40.6055 17.6004H45.7617C45.9948 17.6004 46.2184 17.5078 46.3832 17.343C46.548 17.1781 46.6406 16.9546 46.6406 16.7215C46.6406 16.4884 46.548 16.2648 46.3832 16.1C46.2184 15.9352 45.9948 15.8426 45.7617 15.8426H40.6055C40.3724 15.8426 40.1488 15.9352 39.984 16.1C39.8192 16.2648 39.7266 16.4884 39.7266 16.7215ZM31.793 37.9242C31.9701 37.9254 32.1435 37.8731 32.2904 37.774C32.4373 37.6749 32.5508 37.5338 32.6161 37.369C32.6813 37.2043 32.6953 37.0237 32.6561 36.8509C32.6169 36.6781 32.5264 36.5212 32.3965 36.4008L28.7109 32.9297H28.9453C29.8 32.9339 30.6315 32.6522 31.3076 32.1294C31.9837 31.6066 32.4656 30.8727 32.6766 30.0445H33.4969C33.73 30.0445 33.9535 29.9519 34.1184 29.7871C34.2832 29.6223 34.3758 29.3987 34.3758 29.1656C34.3758 28.9325 34.2832 28.709 34.1184 28.5441C33.9535 28.3793 33.73 28.2867 33.4969 28.2867H32.6766C32.5778 27.8863 32.4134 27.505 32.1902 27.1582H33.498C33.7311 27.1582 33.9547 27.0656 34.1195 26.9008C34.2844 26.736 34.377 26.5124 34.377 26.2793C34.377 26.0462 34.2844 25.8226 34.1195 25.6578C33.9547 25.493 33.7311 25.4004 33.498 25.4004H26.4996C26.2665 25.4004 26.043 25.493 25.8781 25.6578C25.7133 25.8226 25.6207 26.0462 25.6207 26.2793C25.6207 26.5124 25.7133 26.736 25.8781 26.9008C26.043 27.0656 26.2665 27.1582 26.4996 27.1582H28.9453C29.3316 27.1546 29.7114 27.2581 30.0424 27.4574C30.3734 27.6566 30.6427 27.9437 30.8203 28.2867H26.4996C26.2665 28.2867 26.043 28.3793 25.8781 28.5441C25.7133 28.709 25.6207 28.9325 25.6207 29.1656C25.6207 29.3987 25.7133 29.6223 25.8781 29.7871C26.043 29.9519 26.2665 30.0445 26.4996 30.0445H30.8203C30.6424 30.3873 30.373 30.6741 30.042 30.873C29.7111 31.072 29.3315 31.1755 28.9453 31.1719H26.4844H26.4328H26.3965L26.3496 31.1789L26.3109 31.1859L26.2676 31.1965L26.2277 31.2082L26.1855 31.2234L26.148 31.2375L26.1059 31.2586L26.0719 31.275L26.032 31.2996C26.0207 31.306 26.0097 31.313 25.9992 31.3207L25.9641 31.3465L25.9301 31.3734C25.9198 31.3818 25.91 31.3908 25.9008 31.4004L25.8656 31.4332C25.8631 31.4365 25.8599 31.4393 25.8563 31.4414L25.8398 31.4625L25.8082 31.4988L25.7836 31.5316L25.7578 31.568L25.7367 31.6043C25.7288 31.6167 25.7217 31.6296 25.7156 31.643C25.7086 31.6559 25.7027 31.6688 25.6969 31.6816L25.6793 31.7203L25.6652 31.7602C25.6652 31.7742 25.6559 31.7883 25.6523 31.8023C25.6476 31.8157 25.6441 31.8294 25.6418 31.8434C25.6418 31.8574 25.6348 31.8715 25.6324 31.8855L25.6254 31.9301C25.6254 31.943 25.6254 31.9559 25.6254 31.9699C25.6254 31.984 25.6254 32.0027 25.6254 32.0191C25.6254 32.0355 25.6254 32.0355 25.6254 32.0449C25.6248 32.0488 25.6248 32.0528 25.6254 32.0566C25.6254 32.073 25.6254 32.0895 25.6254 32.1059C25.6254 32.1223 25.6254 32.1316 25.6254 32.1445L25.6324 32.1879L25.6395 32.2313L25.65 32.2687C25.65 32.284 25.657 32.2992 25.6617 32.3133C25.6657 32.326 25.6704 32.3386 25.6758 32.3508C25.6758 32.3648 25.6852 32.3789 25.691 32.393L25.7098 32.4305L25.7285 32.4691C25.7355 32.482 25.7438 32.4938 25.7508 32.5055L25.7742 32.543C25.7812 32.5535 25.7906 32.5641 25.7988 32.5746L25.827 32.6121L25.8516 32.6391L25.8879 32.6766L25.8949 32.6848L31.1883 37.6781C31.3506 37.8351 31.5672 37.9232 31.793 37.9242ZM12.4805 47.4832H28.1836C28.4167 47.4832 28.6402 47.3906 28.8051 47.2258C28.9699 47.0609 29.0625 46.8374 29.0625 46.6043C29.0625 46.3712 28.9699 46.1476 28.8051 45.9828C28.6402 45.818 28.4167 45.7254 28.1836 45.7254H12.4805C12.2474 45.7254 12.0238 45.818 11.859 45.9828C11.6942 46.1476 11.6016 46.3712 11.6016 46.6043C11.6016 46.8374 11.6942 47.0609 11.859 47.2258C12.0238 47.3906 12.2474 47.4832 12.4805 47.4832ZM12.4805 17.6004H35.2148C35.4479 17.6004 35.6715 17.5078 35.8363 17.343C36.0012 17.1781 36.0938 16.9546 36.0938 16.7215C36.0938 16.4884 36.0012 16.2648 35.8363 16.1C35.6715 15.9352 35.4479 15.8426 35.2148 15.8426H12.4805C12.2474 15.8426 12.0238 15.9352 11.859 16.1C11.6942 16.2648 11.6016 16.4884 11.6016 16.7215C11.6016 16.9546 11.6942 17.1781 11.859 17.343C12.0238 17.5078 12.2474 17.6004 12.4805 17.6004ZM54.798 0H10.7227C9.55754 0.00124081 8.44049 0.464633 7.61662 1.2885C6.79276 2.11236 6.32937 3.22941 6.32812 4.39453V50.9508H1.75781C1.52471 50.9508 1.30116 51.0434 1.13633 51.2082C0.971505 51.373 0.878906 51.5966 0.878906 51.8297V55.677C0.880147 56.8231 1.33601 57.922 2.14647 58.7324C2.95693 59.5429 4.05579 59.9988 5.20195 60H47.6824C47.7267 59.9994 47.771 59.9959 47.8148 59.9895C48.9265 59.9138 49.9681 59.4192 50.7293 58.6055C51.4906 57.7919 51.9148 56.7197 51.9164 55.6055V9.04922H58.2445C58.4776 9.04922 58.7012 8.95662 58.866 8.79179C59.0308 8.62697 59.1234 8.40341 59.1234 8.17031V4.32305C59.1222 3.17648 58.666 2.07726 57.855 1.26673C57.0441 0.456207 55.9446 0.000620269 54.798 0V0ZM5.20195 58.2422C4.5219 58.2413 3.86996 57.9707 3.38909 57.4898C2.90821 57.0089 2.63765 56.357 2.63672 55.677V52.7086H43.0664V55.677C43.0654 56.6006 43.3616 57.5 43.9113 58.2422H5.20195ZM50.1562 4.48242V55.6055C50.1556 56.3046 49.8776 56.9749 49.3833 57.4692C48.8889 57.9636 48.2186 58.2416 47.5195 58.2422H47.3895C46.7094 58.2413 46.0575 57.9707 45.5766 57.4898C45.0957 57.0089 44.8251 56.357 44.8242 55.677V51.8297C44.8242 51.5966 44.7316 51.373 44.5668 51.2082C44.402 51.0434 44.1784 50.9508 43.9453 50.9508H8.08594V4.39453C8.08656 3.69542 8.36455 3.02512 8.8589 2.53078C9.35325 2.03643 10.0235 1.75843 10.7227 1.75781H51.0832C50.4812 2.53838 50.1552 3.49665 50.1562 4.48242ZM57.3633 7.29492H51.9141V4.48242C51.915 3.7601 52.2023 3.06762 52.7131 2.55686C53.2239 2.0461 53.9163 1.75874 54.6387 1.75781H54.798C55.4781 1.75874 56.13 2.02931 56.6109 2.51018C57.0918 2.99105 57.3624 3.64299 57.3633 4.32305V7.29492ZM11.6016 43.0887C11.6016 43.3218 11.6942 43.5453 11.859 43.7102C12.0238 43.875 12.2474 43.9676 12.4805 43.9676H30C32.6508 43.9661 35.2305 43.1103 37.3566 41.5271C39.4827 39.9439 41.042 37.7177 41.8031 35.1785H45.7617C45.9948 35.1785 46.2184 35.0859 46.3832 34.9211C46.548 34.7563 46.6406 34.5327 46.6406 34.2996C46.6406 34.0665 46.548 33.843 46.3832 33.6781C46.2184 33.5133 45.9948 33.4207 45.7617 33.4207H42.1875C42.2702 32.8384 42.3117 32.251 42.3117 31.6629C42.3153 29.8392 41.9122 28.0377 41.1316 26.3895H45.7617C45.9948 26.3895 46.2184 26.2969 46.3832 26.132C46.548 25.9672 46.6406 25.7436 46.6406 25.5105C46.6406 25.2774 46.548 25.0539 46.3832 24.8891C46.2184 24.7242 45.9948 24.6316 45.7617 24.6316H40.1062C38.9697 23.0049 37.4577 21.6763 35.6984 20.7583C33.9391 19.8403 31.9844 19.36 30 19.3582H12.4805C12.2474 19.3582 12.0238 19.4508 11.859 19.6156C11.6942 19.7805 11.6016 20.004 11.6016 20.2371C11.6016 20.4702 11.6942 20.6938 11.859 20.8586C12.0238 21.0234 12.2474 21.116 12.4805 21.116H23.6496C22.167 22.0143 20.8879 23.2116 19.8937 24.6316H12.4805C12.2474 24.6316 12.0238 24.7242 11.859 24.8891C11.6942 25.0539 11.6016 25.2774 11.6016 25.5105C11.6016 25.7436 11.6942 25.9672 11.859 26.132C12.0238 26.2969 12.2474 26.3895 12.4805 26.3895H18.8672C18.5979 26.9571 18.373 27.5448 18.1945 28.1473H12.4805C12.2474 28.1473 12.0238 28.2399 11.859 28.4047C11.6942 28.5695 11.6016 28.7931 11.6016 29.0262C11.6016 29.2593 11.6942 29.4828 11.859 29.6477C12.0238 29.8125 12.2474 29.9051 12.4805 29.9051H17.8125C17.6469 31.0711 17.6469 32.2547 17.8125 33.4207H12.4805C12.2474 33.4207 12.0238 33.5133 11.859 33.6781C11.6942 33.843 11.6016 34.0665 11.6016 34.2996C11.6016 34.5327 11.6942 34.7563 11.859 34.9211C12.0238 35.0859 12.2474 35.1785 12.4805 35.1785H18.1969C18.3757 35.7808 18.6006 36.3685 18.8695 36.9363H12.4805C12.2474 36.9363 12.0238 37.0289 11.859 37.1938C11.6942 37.3586 11.6016 37.5821 11.6016 37.8152C11.6016 38.0483 11.6942 38.2719 11.859 38.4367C12.0238 38.6015 12.2474 38.6941 12.4805 38.6941H19.8937C20.8888 40.1138 22.1682 41.311 23.6508 42.2098H12.4805C12.2474 42.2098 12.0238 42.3024 11.859 42.4672C11.6942 42.632 11.6016 42.8556 11.6016 43.0887ZM22.5375 39.1195C20.8104 37.393 19.7354 35.1211 19.4957 32.6909C19.256 30.2606 19.8663 27.8224 21.2228 25.7918C22.5792 23.7611 24.5979 22.2636 26.9347 21.5545C29.2715 20.8453 31.7819 20.9684 34.0381 21.9027C36.2944 22.837 38.1568 24.5247 39.3082 26.6783C40.4595 28.8319 40.8285 31.3181 40.3522 33.7133C39.8759 36.1084 38.5838 38.2643 36.6962 39.8136C34.8085 41.3629 32.442 42.2097 30 42.2098C28.6135 42.2144 27.2398 41.9437 25.9588 41.4132C24.6777 40.8827 23.5148 40.1031 22.5375 39.1195Z" fill="black"/>
</svg>
