<svg width="90" height="90" viewBox="0 0 90 90" fill="none" xmlns="http://www.w3.org/2000/svg">
<path d="M33.1875 57.6562L37.6875 32.3438H44.7187L40.3594 57.6562H33.1875Z" fill="#3C58BF"/>
<path d="M33.1875 57.6562L38.9531 32.3438H44.7187L40.3594 57.6562H33.1875Z" fill="#293688"/>
<path d="M65.8125 32.625C64.4062 32.0625 62.1563 31.5 59.3438 31.5C52.3125 31.5 47.25 35.0156 47.25 40.0781C47.25 43.875 50.7656 45.8438 53.5781 47.1094C56.3906 48.375 57.2344 49.2188 57.2344 50.3438C57.2344 52.0312 54.9844 52.875 53.0156 52.875C50.2031 52.875 48.6563 52.4531 46.2656 51.4687L45.2813 51.0469L44.2969 56.8125C45.9844 57.5156 49.0781 58.2188 52.3125 58.2188C59.7656 58.2188 64.6875 54.7031 64.6875 49.3594C64.6875 46.4062 62.8594 44.1563 58.6406 42.3281C56.1094 41.0625 54.5625 40.3594 54.5625 39.0937C54.5625 37.9687 55.8281 36.8438 58.6406 36.8438C61.0313 36.8438 62.7188 37.2656 63.9844 37.8281L64.6875 38.1094L65.8125 32.625Z" fill="#3C58BF"/>
<path d="M65.8125 32.625C64.4062 32.0625 62.1563 31.5 59.3438 31.5C52.3125 31.5 48.5156 35.0156 48.5156 40.0781C48.5156 43.875 50.7656 45.8438 53.5781 47.1094C56.3906 48.375 57.2344 49.2188 57.2344 50.3438C57.2344 52.0312 54.9844 52.875 53.0156 52.875C50.2031 52.875 48.6563 52.4531 46.2656 51.4687L45.2813 51.0469L44.2969 56.8125C45.9844 57.5156 49.0781 58.2188 52.3125 58.2188C59.7656 58.2188 64.6875 54.7031 64.6875 49.3594C64.6875 46.4062 62.8594 44.1563 58.6406 42.3281C56.1094 41.0625 54.5625 40.3594 54.5625 39.0937C54.5625 37.9687 55.8281 36.8438 58.6406 36.8438C61.0313 36.8438 62.7188 37.2656 63.9844 37.8281L64.6875 38.1094L65.8125 32.625Z" fill="#293688"/>
<path d="M77.9063 32.3438C76.2188 32.3438 74.9531 32.4844 74.25 34.1719L63.7031 57.6562H71.2969L72.7031 53.4375H81.7031L82.5469 57.6562H89.2969L83.3906 32.3438H77.9063ZM74.6719 49.2188C75.0937 47.9531 77.4844 41.7656 77.4844 41.7656C77.4844 41.7656 78.0469 40.2187 78.4688 39.2344L78.8906 41.625C78.8906 41.625 80.2969 47.9531 80.5781 49.3594H74.6719V49.2188Z" fill="#3C58BF"/>
<path d="M79.5937 32.3438C77.9062 32.3438 76.6406 32.4844 75.9375 34.1719L63.7031 57.6562H71.2969L72.7031 53.4375H81.7031L82.5469 57.6562H89.2969L83.3906 32.3438H79.5937ZM74.6719 49.2188C75.2344 47.8125 77.4844 41.7656 77.4844 41.7656C77.4844 41.7656 78.0469 40.2187 78.4688 39.2344L78.8906 41.625C78.8906 41.625 80.2969 47.9531 80.5781 49.3594H74.6719V49.2188Z" fill="#293688"/>
<path d="M20.25 50.0625L19.5469 46.4062C18.2812 42.1875 14.2031 37.5469 9.70312 35.2969L16.0312 57.7969H23.625L35.0156 32.4844H27.4219L20.25 50.0625Z" fill="#3C58BF"/>
<path d="M20.25 50.0625L19.5469 46.4062C18.2812 42.1875 14.2031 37.5469 9.70312 35.2969L16.0312 57.7969H23.625L35.0156 32.4844H28.8281L20.25 50.0625Z" fill="#293688"/>
<path d="M0.703125 32.3438L1.96875 32.625C10.9688 34.7344 17.1562 40.0781 19.5469 46.4062L17.0156 34.4531C16.5938 32.7656 15.3281 32.3438 13.7812 32.3438H0.703125Z" fill="#FFBC00"/>
<path d="M0.703125 32.3438C9.70312 34.4531 17.1562 39.9375 19.5469 46.2656L17.1562 36.2812C16.7344 34.5937 15.3281 33.6094 13.7812 33.6094L0.703125 32.3438Z" fill="#F7981D"/>
<path d="M0.703125 32.3438C9.70312 34.4531 17.1562 39.9375 19.5469 46.2656L17.8594 40.7812C17.4375 39.0938 16.875 37.4063 14.9063 36.7031L0.703125 32.3438Z" fill="#ED7C00"/>
<path d="M27.2812 49.2188L22.5 44.4375L20.25 49.7813L19.6875 46.2656C18.4219 42.0469 14.3438 37.4062 9.84375 35.1562L16.1719 57.6562H23.7656L27.2812 49.2188ZM40.3594 57.6562L34.3125 51.4687L33.1875 57.6562H40.3594ZM56.5312 48.9375C57.0938 49.5 57.375 49.9219 57.2344 50.4844C57.2344 52.1719 54.9844 53.0156 53.0156 53.0156C50.2031 53.0156 48.6563 52.5938 46.2656 51.6094L45.2812 51.1875L44.2969 56.9531C45.9844 57.6562 49.0781 58.3594 52.3125 58.3594C56.8125 58.3594 60.4688 57.0938 62.5781 54.8438L56.5312 48.9375ZM64.6875 57.6562H71.2969L72.7031 53.4375H81.7031L82.5469 57.6562H89.2969L86.9062 47.3906L78.4688 39.2344L78.8906 41.4844C78.8906 41.4844 80.2969 47.8125 80.5781 49.2188H74.6719C75.2344 47.8125 77.4844 41.7656 77.4844 41.7656C77.4844 41.7656 78.0469 40.2187 78.4688 39.2344" fill="#051244"/>
</svg>
