<svg width="60" height="60" viewBox="0 0 60 60" fill="none" xmlns="http://www.w3.org/2000/svg">
<path d="M22.125 38.4375L25.125 21.5625H29.8125L26.9062 38.4375H22.125Z" fill="#3C58BF"/>
<path d="M22.125 38.4375L25.9688 21.5625H29.8125L26.9062 38.4375H22.125Z" fill="#293688"/>
<path d="M43.875 21.75C42.9375 21.375 41.4375 21 39.5625 21C34.875 21 31.5 23.3438 31.5 26.7188C31.5 29.25 33.8437 30.5625 35.7187 31.4063C37.5937 32.25 38.1562 32.8125 38.1562 33.5625C38.1562 34.6875 36.6563 35.25 35.3438 35.25C33.4688 35.25 32.4375 34.9688 30.8438 34.3125L30.1875 34.0313L29.5312 37.875C30.6562 38.3438 32.7188 38.8125 34.875 38.8125C39.8438 38.8125 43.125 36.4688 43.125 32.9062C43.125 30.9375 41.9062 29.4375 39.0938 28.2188C37.4063 27.375 36.375 26.9063 36.375 26.0625C36.375 25.3125 37.2188 24.5625 39.0938 24.5625C40.6875 24.5625 41.8125 24.8438 42.6562 25.2188L43.125 25.4063L43.875 21.75Z" fill="#3C58BF"/>
<path d="M43.875 21.75C42.9375 21.375 41.4375 21 39.5625 21C34.875 21 32.3437 23.3438 32.3437 26.7188C32.3437 29.25 33.8437 30.5625 35.7187 31.4063C37.5937 32.25 38.1562 32.8125 38.1562 33.5625C38.1562 34.6875 36.6563 35.25 35.3438 35.25C33.4688 35.25 32.4375 34.9688 30.8438 34.3125L30.1875 34.0313L29.5312 37.875C30.6562 38.3438 32.7188 38.8125 34.875 38.8125C39.8438 38.8125 43.125 36.4688 43.125 32.9062C43.125 30.9375 41.9062 29.4375 39.0938 28.2188C37.4063 27.375 36.375 26.9063 36.375 26.0625C36.375 25.3125 37.2188 24.5625 39.0938 24.5625C40.6875 24.5625 41.8125 24.8438 42.6562 25.2188L43.125 25.4063L43.875 21.75Z" fill="#293688"/>
<path d="M51.9375 21.5625C50.8125 21.5625 49.9688 21.6562 49.5 22.7812L42.4688 38.4375H47.5313L48.4688 35.625H54.4688L55.0313 38.4375H59.5313L55.5938 21.5625H51.9375ZM49.7812 32.8125C50.0625 31.9688 51.6562 27.8438 51.6562 27.8438C51.6562 27.8438 52.0313 26.8125 52.3125 26.1562L52.5938 27.75C52.5938 27.75 53.5313 31.9687 53.7188 32.9062H49.7812V32.8125Z" fill="#3C58BF"/>
<path d="M53.0625 21.5625C51.9375 21.5625 51.0938 21.6562 50.625 22.7812L42.4688 38.4375H47.5313L48.4688 35.625H54.4688L55.0313 38.4375H59.5313L55.5938 21.5625H53.0625ZM49.7812 32.8125C50.1562 31.875 51.6562 27.8438 51.6562 27.8438C51.6562 27.8438 52.0313 26.8125 52.3125 26.1562L52.5938 27.75C52.5938 27.75 53.5313 31.9687 53.7188 32.9062H49.7812V32.8125Z" fill="#293688"/>
<path d="M13.5 33.375L13.0312 30.9375C12.1875 28.125 9.46875 25.0312 6.46875 23.5312L10.6875 38.5312H15.75L23.3438 21.6562H18.2812L13.5 33.375Z" fill="#3C58BF"/>
<path d="M13.5 33.375L13.0312 30.9375C12.1875 28.125 9.46875 25.0312 6.46875 23.5312L10.6875 38.5312H15.75L23.3438 21.6562H19.2188L13.5 33.375Z" fill="#293688"/>
<path d="M0.46875 21.5625L1.3125 21.75C7.3125 23.1563 11.4375 26.7188 13.0312 30.9375L11.3438 22.9688C11.0625 21.8437 10.2188 21.5625 9.1875 21.5625H0.46875Z" fill="#FFBC00"/>
<path d="M0.46875 21.5625C6.46875 22.9688 11.4375 26.625 13.0312 30.8438L11.4375 24.1875C11.1562 23.0625 10.2188 22.4062 9.1875 22.4062L0.46875 21.5625Z" fill="#F7981D"/>
<path d="M0.46875 21.5625C6.46875 22.9688 11.4375 26.625 13.0312 30.8438L11.9062 27.1875C11.625 26.0625 11.25 24.9375 9.9375 24.4688L0.46875 21.5625Z" fill="#ED7C00"/>
<path d="M18.1875 32.8125L15 29.625L13.5 33.1875L13.125 30.8438C12.2812 28.0313 9.5625 24.9375 6.5625 23.4375L10.7812 38.4375H15.8438L18.1875 32.8125ZM26.9062 38.4375L22.875 34.3125L22.125 38.4375H26.9062ZM37.6875 32.625C38.0625 33 38.25 33.2813 38.1562 33.6563C38.1562 34.7813 36.6562 35.3438 35.3438 35.3438C33.4688 35.3438 32.4375 35.0625 30.8438 34.4063L30.1875 34.125L29.5312 37.9688C30.6562 38.4375 32.7188 38.9062 34.875 38.9062C37.875 38.9062 40.3125 38.0625 41.7188 36.5625L37.6875 32.625ZM43.125 38.4375H47.5312L48.4688 35.625H54.4688L55.0312 38.4375H59.5312L57.9375 31.5938L52.3125 26.1562L52.5938 27.6562C52.5938 27.6562 53.5312 31.875 53.7188 32.8125H49.7812C50.1562 31.875 51.6562 27.8438 51.6562 27.8438C51.6562 27.8438 52.0312 26.8125 52.3125 26.1562" fill="#051244"/>
</svg>
